<svg width="199" height="18" viewBox="0 0 199 18" fill="none" xmlns="http://www.w3.org/2000/svg">
<path d="M0.232 1.848V13H5.592V11.816H1.688V1.848H0.232ZM15.4583 8.6C15.4583 5.832 13.5223 4.088 11.0263 4.088C8.54625 4.088 6.59425 5.832 6.59425 8.6C6.59425 11.384 8.48225 13.144 10.9623 13.144C13.4583 13.144 15.4583 11.384 15.4583 8.6ZM8.08225 8.6C8.08225 6.392 9.47425 5.352 11.0103 5.352C12.5143 5.352 13.9703 6.392 13.9703 8.6C13.9703 10.824 12.4823 11.864 10.9623 11.864C9.44225 11.864 8.08225 10.824 8.08225 8.6ZM18.8286 8.232C18.8286 6.2 19.8846 5.576 21.2766 5.576H21.6606V4.072C20.2686 4.072 19.3246 4.68 18.8286 5.656V4.232H17.3726V13H18.8286V8.232ZM27.0694 5.32C28.5734 5.32 29.8534 6.264 29.8374 7.976H24.3014C24.4614 6.264 25.6454 5.32 27.0694 5.32ZM31.1654 10.296H29.5974C29.2774 11.24 28.4454 11.912 27.1334 11.912C25.6454 11.912 24.3974 10.936 24.2854 9.16H31.2934C31.3254 8.856 31.3414 8.6 31.3414 8.28C31.3414 5.88 29.6774 4.088 27.1334 4.088C24.5734 4.088 22.7974 5.832 22.7974 8.6C22.7974 11.384 24.6374 13.144 27.1334 13.144C29.3094 13.144 30.7174 11.896 31.1654 10.296ZM45.9193 13H47.3593V7.832C47.3593 5.32 45.8073 4.072 43.8073 4.072C42.4633 4.072 41.2153 4.76 40.7033 6.024C40.1273 4.712 38.9273 4.072 37.4873 4.072C36.3353 4.072 35.2953 4.568 34.7193 5.496V4.232H33.2633V13H34.7193V8.168C34.7193 6.28 35.7273 5.336 37.1993 5.336C38.6393 5.336 39.5993 6.248 39.5993 8.04V13H41.0393V8.168C41.0393 6.28 42.0473 5.336 43.5193 5.336C44.9593 5.336 45.9193 6.248 45.9193 8.04V13ZM54.0133 13H55.4693V4.232H54.0133V13ZM54.7653 2.808C55.2933 2.808 55.7253 2.376 55.7253 1.816C55.7253 1.256 55.2933 0.823999 54.7653 0.823999C54.2053 0.823999 53.7733 1.256 53.7733 1.816C53.7733 2.376 54.2053 2.808 54.7653 2.808ZM64.2548 10.616C64.1908 7.48 59.1028 8.616 59.1028 6.536C59.1028 5.832 59.7428 5.32 60.8148 5.32C61.9828 5.32 62.6548 5.96 62.7188 6.84H64.1748C64.0788 5.128 62.7988 4.088 60.8628 4.088C58.9108 4.088 57.6468 5.192 57.6468 6.536C57.6468 9.8 62.8308 8.664 62.8308 10.616C62.8308 11.336 62.1908 11.912 61.0388 11.912C59.8068 11.912 59.0548 11.272 58.9748 10.424H57.4708C57.5668 12.024 59.0068 13.144 61.0548 13.144C62.9908 13.144 64.2548 12.056 64.2548 10.616ZM70.8958 10.6C70.8958 12.36 71.7758 13 73.3278 13H74.6398V11.768H73.5677C72.6718 11.768 72.3518 11.464 72.3518 10.6V5.432H74.6398V4.232H72.3518V2.024H70.8958V4.232H69.7598V5.432H70.8958V10.6ZM76.4039 13H77.8599V8.152C77.8599 6.264 78.8839 5.336 80.3719 5.336C81.8439 5.336 82.8199 6.248 82.8199 8.04V13H84.2599V7.832C84.2599 5.32 82.7079 4.072 80.7559 4.072C79.5239 4.072 78.4359 4.568 77.8599 5.496V1.16H76.4039V13ZM90.3663 5.32C91.8703 5.32 93.1503 6.264 93.1343 7.976H87.5983C87.7582 6.264 88.9423 5.32 90.3663 5.32ZM94.4623 10.296H92.8943C92.5743 11.24 91.7423 11.912 90.4303 11.912C88.9423 11.912 87.6943 10.936 87.5823 9.16H94.5903C94.6223 8.856 94.6383 8.6 94.6383 8.28C94.6383 5.88 92.9743 4.088 90.4303 4.088C87.8703 4.088 86.0943 5.832 86.0943 8.6C86.0943 11.384 87.9343 13.144 90.4303 13.144C92.6063 13.144 94.0143 11.896 94.4623 10.296ZM102.282 8.232C102.282 6.2 103.338 5.576 104.73 5.576H105.114V4.072C103.722 4.072 102.778 4.68 102.282 5.656V4.232H100.826V13H102.282V8.232ZM106.795 13H108.251V4.232H106.795V13ZM107.547 2.808C108.075 2.808 108.507 2.376 108.507 1.816C108.507 1.256 108.075 0.823999 107.547 0.823999C106.987 0.823999 106.555 1.256 106.555 1.816C106.555 2.376 106.987 2.808 107.547 2.808ZM110.188 8.584C110.188 11.304 111.996 13.144 114.348 13.144C115.948 13.144 117.084 12.296 117.612 11.352V13.192C117.612 15.064 116.444 16.056 114.892 16.056C113.452 16.056 112.412 15.336 112.092 14.28H110.652C110.94 16.152 112.588 17.32 114.892 17.32C117.468 17.32 119.084 15.608 119.084 13.192V4.232H117.612V5.832C117.1 4.888 115.948 4.088 114.348 4.088C111.996 4.088 110.188 5.848 110.188 8.584ZM117.612 8.6C117.612 10.664 116.236 11.864 114.636 11.864C113.036 11.864 111.676 10.648 111.676 8.584C111.676 6.52 113.036 5.352 114.636 5.352C116.236 5.352 117.612 6.568 117.612 8.6ZM121.545 13H123.001V8.152C123.001 6.264 124.025 5.336 125.513 5.336C126.985 5.336 127.961 6.248 127.961 8.04V13H129.401V7.832C129.401 5.32 127.849 4.072 125.897 4.072C124.665 4.072 123.577 4.568 123.001 5.496V1.16H121.545V13ZM132.099 10.6C132.099 12.36 132.979 13 134.531 13H135.843V11.768H134.771C133.875 11.768 133.555 11.464 133.555 10.6V5.432H135.843V4.232H133.555V2.024H132.099V4.232H130.963V5.432H132.099V10.6ZM141.329 8.584C141.329 11.304 143.137 13.144 145.473 13.144C147.089 13.144 148.225 12.312 148.753 11.368V13H150.225V4.232H148.753V5.832C148.241 4.92 147.121 4.088 145.489 4.088C143.137 4.088 141.329 5.848 141.329 8.584ZM148.753 8.6C148.753 10.664 147.377 11.864 145.777 11.864C144.177 11.864 142.817 10.648 142.817 8.584C142.817 6.52 144.177 5.352 145.777 5.352C147.377 5.352 148.753 6.568 148.753 8.6ZM159.101 13H160.541V7.832C160.541 5.32 158.989 4.072 156.957 4.072C155.773 4.072 154.717 4.568 154.141 5.48V4.232H152.685V13H154.141V8.152C154.141 6.264 155.165 5.336 156.653 5.336C158.125 5.336 159.101 6.248 159.101 8.04V13ZM169.224 10.616C169.16 7.48 164.072 8.616 164.072 6.536C164.072 5.832 164.712 5.32 165.784 5.32C166.952 5.32 167.624 5.96 167.688 6.84H169.144C169.048 5.128 167.768 4.088 165.832 4.088C163.88 4.088 162.616 5.192 162.616 6.536C162.616 9.8 167.8 8.664 167.8 10.616C167.8 11.336 167.16 11.912 166.008 11.912C164.776 11.912 164.024 11.272 163.944 10.424H162.44C162.536 12.024 163.976 13.144 166.024 13.144C167.96 13.144 169.224 12.056 169.224 10.616ZM172.991 13H174.495L176.607 6.04L178.719 13H180.223L182.959 4.232H181.519L179.535 11.608L177.407 4.232H175.919L173.743 11.592L171.727 4.232H170.239L172.991 13ZM188.132 5.32C189.636 5.32 190.916 6.264 190.9 7.976H185.364C185.524 6.264 186.708 5.32 188.132 5.32ZM192.228 10.296H190.66C190.34 11.24 189.508 11.912 188.196 11.912C186.708 11.912 185.46 10.936 185.348 9.16H192.356C192.388 8.856 192.404 8.6 192.404 8.28C192.404 5.88 190.74 4.088 188.196 4.088C185.636 4.088 183.86 5.832 183.86 8.6C183.86 11.384 185.7 13.144 188.196 13.144C190.372 13.144 191.78 11.896 192.228 10.296ZM195.782 8.232C195.782 6.2 196.838 5.576 198.23 5.576H198.614V4.072C197.222 4.072 196.278 4.68 195.782 5.656V4.232H194.326V13H195.782V8.232Z" fill="white"/>
</svg>
