<svg width="46" height="46" viewBox="0 0 46 46" fill="none" xmlns="http://www.w3.org/2000/svg">
<g filter="url(#filter0_d_2_1431)">
<circle cx="23" cy="19" r="18" fill="white"/>
</g>
<g filter="url(#filter1_d_2_1431)">
<path fill-rule="evenodd" clip-rule="evenodd" d="M20.3604 19.0034L26.7282 13.0176C26.9035 12.8531 27 12.6333 27 12.3989C27 12.1644 26.9035 11.9447 26.7282 11.78L26.1702 11.2557C25.9952 11.0908 25.7611 11 25.5118 11C25.2624 11 25.0286 11.0908 24.8534 11.2557L17.2715 18.3824C17.0956 18.5476 16.9993 18.7683 17 19.003C16.9993 19.2387 17.0955 19.4592 17.2715 19.6245L24.8464 26.7443C25.0216 26.9092 25.2553 27 25.5048 27C25.7542 27 25.988 26.9092 26.1633 26.7443L26.7211 26.22C27.0841 25.8788 27.0841 25.3234 26.7211 24.9823L20.3604 19.0034Z" fill="#91A6FF"/>
</g>
<defs>
<filter id="filter0_d_2_1431" x="0" y="0" width="46" height="46" filterUnits="userSpaceOnUse" color-interpolation-filters="sRGB">
<feFlood flood-opacity="0" result="BackgroundImageFix"/>
<feColorMatrix in="SourceAlpha" type="matrix" values="0 0 0 0 0 0 0 0 0 0 0 0 0 0 0 0 0 0 127 0" result="hardAlpha"/>
<feMorphology radius="1" operator="dilate" in="SourceAlpha" result="effect1_dropShadow_2_1431"/>
<feOffset dy="4"/>
<feGaussianBlur stdDeviation="2"/>
<feColorMatrix type="matrix" values="0 0 0 0 0.607892 0 0 0 0 0.607803 0 0 0 0 0.607923 0 0 0 0.195001 0"/>
<feBlend mode="normal" in2="BackgroundImageFix" result="effect1_dropShadow_2_1431"/>
<feBlend mode="normal" in="SourceGraphic" in2="effect1_dropShadow_2_1431" result="shape"/>
</filter>
<filter id="filter1_d_2_1431" x="11" y="9" width="22" height="28" filterUnits="userSpaceOnUse" color-interpolation-filters="sRGB">
<feFlood flood-opacity="0" result="BackgroundImageFix"/>
<feColorMatrix in="SourceAlpha" type="matrix" values="0 0 0 0 0 0 0 0 0 0 0 0 0 0 0 0 0 0 127 0" result="hardAlpha"/>
<feOffset dy="4"/>
<feGaussianBlur stdDeviation="3"/>
<feColorMatrix type="matrix" values="0 0 0 0 0.356836 0 0 0 0 0.0876498 0 0 0 0 0.666986 0 0 0 0.174791 0"/>
<feBlend mode="normal" in2="BackgroundImageFix" result="effect1_dropShadow_2_1431"/>
<feBlend mode="normal" in="SourceGraphic" in2="effect1_dropShadow_2_1431" result="shape"/>
</filter>
</defs>
</svg>
