<svg width="82" height="40" viewBox="0 0 82 40" fill="none" xmlns="http://www.w3.org/2000/svg">
<g filter="url(#filter0_d_187_4)">
<path fill-rule="evenodd" clip-rule="evenodd" d="M6 18C6 10.268 12.268 4 20 4H62C69.732 4 76 10.268 76 18C76 25.732 69.732 32 62 32H20C12.268 32 6 25.732 6 18Z" fill="#F5A604"/>
</g>
<circle cx="20" cy="18" r="10" fill="white"/>
<path d="M25.9954 18.0012C25.9065 20.0701 24.928 21.7976 23.4639 22.8598C22.5867 23.4936 21.5586 23.878 20.4859 23.9732C20.2971 23.9913 20.1054 24 19.912 24C19.8076 24 19.7037 23.9971 19.601 23.9918C18.2862 23.9228 17.0322 23.4087 16.0387 22.5318C16.0373 22.5305 16.0359 22.5292 16.0347 22.5277H16.0319C15.9923 22.4933 15.9532 22.4578 15.9171 22.4216L15.8654 22.3727C15.8499 22.3581 15.835 22.3441 15.8201 22.329C15.7279 22.2393 15.6383 22.1462 15.5515 22.0499L15.501 21.9916C15.4499 21.9334 15.4006 21.8751 15.3523 21.8169C15.3443 21.807 15.3363 21.7965 15.3277 21.7866L15.2571 21.6963L15.2106 21.638C15.1813 21.599 15.1532 21.5593 15.1239 21.5215L15.1199 21.5156L15.0975 21.4842C15.0608 21.4317 15.0246 21.3787 14.9896 21.3251C14.9615 21.282 14.9322 21.2383 14.907 21.1946L14.9036 21.1899C14.8766 21.1462 14.8502 21.102 14.8244 21.0577C14.8117 21.0361 14.7991 21.0146 14.7871 20.993L14.7469 20.9208C14.6969 20.8305 14.6499 20.7384 14.6045 20.6452C14.5948 20.6265 14.5862 20.6079 14.577 20.5869L14.5408 20.5065C14.5311 20.4855 14.5213 20.4646 14.5122 20.443C14.4898 20.3917 14.4674 20.3399 14.4462 20.2874C14.4364 20.2635 14.4266 20.2391 14.4175 20.2146C14.3893 20.1441 14.3635 20.0724 14.3377 20.0008L14.3205 19.9495C14.2849 19.8435 14.251 19.7357 14.2212 19.6261C14.2143 19.6028 14.208 19.5795 14.2022 19.5556L14.1867 19.4974L14.1695 19.428C14.1621 19.3972 14.1552 19.3663 14.1483 19.3354C14.1414 19.3045 14.1328 19.2655 14.1253 19.2305L14.1098 19.1519L14.0961 19.075C14.072 18.9429 14.0528 18.8089 14.0387 18.673C14.0387 18.6601 14.0352 18.6467 14.0341 18.6333C14.0249 18.5424 14.0174 18.4504 14.0117 18.3577C14.0117 18.3362 14.0117 18.3158 14.0117 18.2942C14.0048 18.2342 14.0008 18.1672 14.0008 18.102C13.9469 14.7547 16.6281 11.9919 19.9252 12H19.9998H20.098L20.1915 12.0047H20.2036C21.0801 12.0467 21.9362 12.2878 22.7087 12.7103C22.7932 12.7561 22.8763 12.8043 22.9578 12.8547C23.251 13.0343 23.5309 13.2354 23.7951 13.4566C24.0653 13.683 24.3182 13.93 24.5515 14.1954C24.742 14.4135 24.9176 14.6446 25.0772 14.887C25.6821 15.7947 26.0454 16.861 25.9954 18.0012Z" fill="#DDAB0A"/>
<path d="M23.4641 22.8586C22.5868 23.493 21.5585 23.8778 20.4855 23.9732C20.2967 23.9913 20.105 24 19.9116 24C19.8072 24 19.7033 23.9971 19.6006 23.9919C18.2858 23.9228 17.0318 23.4088 16.0383 22.5318C16.0369 22.5306 16.0355 22.5292 16.0343 22.5277H16.0315C15.9919 22.4933 15.9528 22.4578 15.9167 22.4217L15.865 22.3727C15.8495 22.3582 15.8346 22.3442 15.8197 22.329C15.7275 22.2393 15.6379 22.1463 15.5511 22.0499L15.5006 21.9917C15.4495 21.9334 15.4002 21.8751 15.3519 21.8169C15.3439 21.807 15.3359 21.7965 15.3273 21.7866L15.2567 21.6963L15.2102 21.638C15.1809 21.599 15.1528 21.5594 15.1235 21.5215C16.9755 21.8961 21.0021 22.6833 23.4641 22.8586Z" fill="#C69712"/>
<path d="M20.9331 23.0882C20.3323 23.2895 19.7035 23.3914 19.0708 23.39C18.9733 23.39 18.8757 23.3865 18.7793 23.3818C17.8137 23.3325 16.875 23.0421 16.0463 22.5364C16.041 22.5333 16.036 22.5295 16.0314 22.5253C15.4256 21.9907 14.9331 21.3365 14.584 20.6026C14.5513 20.5316 14.518 20.4622 14.4899 20.39C14.2241 19.7695 14.064 19.1078 14.0164 18.4329C14.009 18.3234 14.0038 18.2133 14.0021 18.102C13.9823 16.7142 14.4356 15.3621 15.2853 14.2748C16.135 13.1875 17.3288 12.4318 18.6645 12.1358C18.738 12.1195 18.812 12.1043 18.8866 12.0909C19.2297 12.0295 19.5775 11.9991 19.9259 12H20.0006C20.9443 12.0137 21.8652 12.2964 22.6583 12.8157C23.0352 13.0617 23.3775 13.3584 23.6758 13.6978C23.9296 13.9843 24.1497 14.2996 24.3318 14.6376C24.4395 14.8393 24.5334 15.0481 24.613 15.2628C24.6513 15.3708 24.6884 15.4797 24.7244 15.5896C24.8945 16.1396 24.9856 16.7116 24.9947 17.288C25.0383 19.9751 23.3189 22.2853 20.9331 23.0882Z" fill="#F8C705"/>
<path d="M23.8015 15.8758C23.5299 15.0808 23.0219 14.3911 22.3476 13.9018C21.6733 13.4126 20.866 13.1479 20.0372 13.1444H20.0114C19.2335 13.1444 18.4668 13.3331 17.7752 13.6947C17.0836 14.0564 16.4871 14.5805 16.0354 15.2235C15.5837 15.8665 15.2899 16.6098 15.1784 17.3914C15.0668 18.1731 15.1409 18.9704 15.3943 19.7171C15.583 20.2741 15.8898 20.7823 16.2931 21.2058C16.6649 21.5968 17.11 21.9083 17.6022 22.1221C18.0944 22.3358 18.6238 22.4474 19.1592 22.4503H19.185C19.963 22.4502 20.7298 22.2613 21.4214 21.8995C22.1131 21.5377 22.7095 21.0134 23.1612 20.3702C23.6128 19.727 23.9066 18.9835 24.0179 18.2018C24.1293 17.42 24.0551 16.6226 23.8015 15.8758ZM15.7226 19.4666C15.4928 18.7889 15.4257 18.0653 15.5269 17.356C15.6281 16.6467 15.8947 15.9722 16.3045 15.3886C16.7143 14.805 17.2555 14.3292 17.883 14.0007C18.5105 13.6723 19.2061 13.5008 19.9121 13.5004H19.9356C20.4116 13.5026 20.8824 13.6016 21.3199 13.7918C21.7575 13.9819 22.1531 14.2593 22.4832 14.6074C22.8875 15.0009 23.1938 15.4864 23.3768 16.0238C23.6066 16.7015 23.6737 17.4251 23.5725 18.1345C23.4713 18.8438 23.2047 19.5183 22.7949 20.102C22.3851 20.6856 21.8439 21.1615 21.2164 21.49C20.589 21.8185 19.8933 21.9901 19.1873 21.9906H19.1637C18.6878 21.9882 18.2171 21.889 17.7796 21.6989C17.342 21.5087 16.9464 21.2315 16.6162 20.8836C16.2116 20.4901 15.9052 20.0043 15.7226 19.4666Z" fill="#DDAB0A"/>
<path d="M22.482 14.6085C21.8233 13.9668 20.9471 13.6064 20.0342 13.6017H20.0113C19.3052 13.6017 18.6093 13.773 17.9816 14.1013C17.3539 14.4296 16.8125 14.9055 16.4026 15.4892C15.9928 16.0729 15.7262 16.7476 15.6252 17.4571C15.5241 18.1666 15.5915 18.8903 15.8218 19.5679C15.9888 20.0598 16.2595 20.5088 16.6149 20.8835C16.2107 20.4899 15.9048 20.0042 15.7225 19.4666C15.4927 18.7889 15.4255 18.0653 15.5268 17.356C15.628 16.6467 15.8946 15.9721 16.3044 15.3885C16.7142 14.8049 17.2554 14.3291 17.8829 14.0007C18.5103 13.6723 19.206 13.5007 19.912 13.5004H19.9355C20.4114 13.5028 20.882 13.6022 21.3194 13.7925C21.7567 13.9829 22.1521 14.2603 22.482 14.6085Z" fill="#C69712"/>
<g style="mix-blend-mode:screen" opacity="0.5">
<path d="M18.6642 12.1359L18.3629 12.7366L14.741 19.8943L14.4896 20.3901C14.2238 19.7696 14.0637 19.1079 14.0161 18.433L16.8168 12.8933C17.3856 12.5358 18.0104 12.2796 18.6642 12.1359Z" fill="#F8C705"/>
</g>
<path d="M19.4135 19.7806C19.5997 19.8341 19.7571 19.8339 19.8855 19.78C20.0147 19.7243 20.1139 19.6177 20.183 19.4602C20.2103 19.3979 20.2231 19.3389 20.2213 19.2832C20.2203 19.2257 20.2087 19.17 20.1865 19.1161C20.1643 19.0621 20.1328 19.0095 20.092 18.9581C20.052 18.9049 20.0058 18.8534 19.9535 18.8034L19.4135 19.7806ZM20.432 16.8831C20.3335 16.854 20.2449 16.8392 20.1665 16.8388C20.0888 16.8366 20.0202 16.8462 19.9606 16.8676C19.9028 16.8898 19.8531 16.921 19.8114 16.9614C19.7722 17.0008 19.7406 17.048 19.7165 17.1029C19.6892 17.1652 19.6748 17.2256 19.6731 17.2841C19.6741 17.3416 19.6853 17.3983 19.7067 17.454C19.7281 17.5098 19.7584 17.5652 19.7976 17.6202C19.8376 17.6734 19.8843 17.7263 19.9376 17.779L20.432 16.8831ZM20.3236 18.1312C20.3998 18.1964 20.4749 18.2643 20.5487 18.335C20.6233 18.4038 20.6923 18.4756 20.7556 18.5503C20.8189 18.625 20.874 18.7037 20.9207 18.7863C20.9675 18.8689 21.0011 18.9565 21.0216 19.0491C21.0448 19.1408 21.0512 19.2381 21.041 19.341C21.0308 19.444 21.0004 19.5531 20.9498 19.6685C20.8751 19.8388 20.7753 19.9868 20.6503 20.1125C20.5279 20.2372 20.3855 20.333 20.2229 20.4C20.0611 20.4651 19.884 20.498 19.6914 20.4988C19.4989 20.4996 19.2956 20.4604 19.0814 20.3811L18.8847 20.7399C18.8602 20.7859 18.8213 20.8199 18.768 20.8419C18.7146 20.8638 18.6588 20.8617 18.6005 20.8353L18.3244 20.7105L18.6306 20.1543C18.5331 20.0927 18.4398 20.0241 18.3506 19.9487C18.264 19.8723 18.1835 19.792 18.109 19.7078C18.0353 19.6219 17.9691 19.5338 17.9104 19.4436C17.8525 19.3516 17.8048 19.2587 17.7673 19.1649L18.1503 18.9265C18.1832 18.9063 18.221 18.8948 18.2636 18.8922C18.3071 18.8877 18.347 18.8937 18.3835 18.9101C18.4254 18.9291 18.4635 18.9617 18.4978 19.0079C18.5322 19.0542 18.5686 19.1079 18.6072 19.1693C18.6485 19.2296 18.6957 19.2938 18.7489 19.3617C18.8039 19.4305 18.8734 19.4959 18.9576 19.5581L19.5615 18.4649C19.4844 18.4015 19.4086 18.3354 19.334 18.2666C19.262 18.1967 19.1947 18.1235 19.1322 18.047C19.0697 17.9704 19.0154 17.8899 18.9695 17.8055C18.9261 17.7201 18.8954 17.6283 18.8773 17.5301C18.8592 17.432 18.8569 17.3278 18.8703 17.2175C18.8845 17.1054 18.9198 16.9853 18.976 16.8571C19.0386 16.7142 19.1275 16.5887 19.2427 16.4805C19.3586 16.3705 19.4936 16.2867 19.6477 16.2291C19.8037 16.1723 19.9758 16.1458 20.1641 16.1497C20.3531 16.1518 20.5531 16.1939 20.7638 16.276L20.9373 15.9626C20.9618 15.9166 21.0003 15.8836 21.0528 15.8634C21.108 15.8422 21.1638 15.8444 21.2203 15.87L21.4991 15.996L21.2138 16.5122C21.3953 16.636 21.539 16.769 21.6448 16.9112C21.7506 17.0534 21.8319 17.1966 21.8888 17.3408L21.5824 17.5315C21.5384 17.5621 21.4974 17.5809 21.4594 17.5878C21.4222 17.593 21.3836 17.5865 21.3435 17.5684C21.3162 17.556 21.2866 17.5339 21.2547 17.5019C21.2255 17.4689 21.1929 17.4312 21.157 17.3886C21.1219 17.3442 21.0813 17.2973 21.0352 17.248C20.991 17.1994 20.9415 17.1529 20.8868 17.1084L20.3236 18.1312Z" fill="white"/>
<g style="mix-blend-mode:screen" opacity="0.5">
<path d="M24.7231 15.5897L23.7394 17.5351L21.9161 21.1416L20.9318 23.0882C20.6073 23.1972 20.2739 23.2771 19.9355 23.3271L20.6937 21.8274L23.5735 16.1309L24.3305 14.6376C24.4382 14.8393 24.5321 15.0481 24.6117 15.2628C24.6538 15.3708 24.6909 15.4797 24.7231 15.5897Z" fill="#F8C705"/>
</g>
<defs>
<filter id="filter0_d_187_4" x="0" y="0" width="82" height="40" filterUnits="userSpaceOnUse" color-interpolation-filters="sRGB">
<feFlood flood-opacity="0" result="BackgroundImageFix"/>
<feColorMatrix in="SourceAlpha" type="matrix" values="0 0 0 0 0 0 0 0 0 0 0 0 0 0 0 0 0 0 127 0" result="hardAlpha"/>
<feOffset dy="2"/>
<feGaussianBlur stdDeviation="3"/>
<feColorMatrix type="matrix" values="0 0 0 0 0.854902 0 0 0 0 0.854902 0 0 0 0 0.854902 0 0 0 1 0"/>
<feBlend mode="normal" in2="BackgroundImageFix" result="effect1_dropShadow_187_4"/>
<feBlend mode="normal" in="SourceGraphic" in2="effect1_dropShadow_187_4" result="shape"/>
</filter>
</defs>
</svg>
