<svg width="40" height="40" viewBox="0 0 40 40" fill="none" xmlns="http://www.w3.org/2000/svg">
<path d="M39.9849 20.0039C39.6884 26.9004 36.4267 32.6588 31.5465 36.1993C28.6224 38.312 25.1953 39.5933 21.6198 39.9107C20.9905 39.9709 20.3515 40 19.7068 40C19.3586 40 19.0124 39.9903 18.67 39.9728C14.2875 39.7426 10.1072 38.0292 6.79582 35.1059C6.79088 35.1018 6.78639 35.0973 6.78242 35.0923H6.77286C6.64086 34.9777 6.51078 34.8592 6.39025 34.7388L6.21808 34.5757C6.16643 34.5271 6.11669 34.4805 6.06695 34.43C5.7596 34.1309 5.46116 33.8208 5.17166 33.4997L5.00331 33.3055C4.83305 33.1113 4.66853 32.9171 4.50784 32.7229C4.48106 32.6899 4.45428 32.6549 4.42558 32.6219L4.19028 32.3208L4.03532 32.1266C3.93776 31.9965 3.84402 31.8644 3.74646 31.7382L3.73306 31.7188L3.65846 31.6139C3.53602 31.4391 3.4155 31.2624 3.29881 31.0837C3.20507 30.94 3.10751 30.7943 3.02333 30.6487L3.01185 30.6331C2.92194 30.4875 2.83394 30.3399 2.74786 30.1923C2.70577 30.1204 2.66368 30.0486 2.62351 29.9767L2.4896 29.7359C2.32317 29.4349 2.1663 29.128 2.01517 28.8173C1.98265 28.7551 1.95395 28.693 1.92334 28.623L1.80282 28.355C1.7703 28.2851 1.73778 28.2152 1.70717 28.1433C1.63256 27.9724 1.55796 27.7996 1.48717 27.6248C1.45465 27.5452 1.42213 27.4636 1.39152 27.382C1.29778 27.147 1.2117 26.9082 1.12561 26.6693L1.06822 26.4984C0.949614 26.1449 0.836746 25.7856 0.737268 25.4205C0.714312 25.3428 0.693269 25.2651 0.674138 25.1855L0.622487 24.9913L0.565096 24.7602C0.540227 24.6572 0.51727 24.5543 0.494314 24.4514C0.471358 24.3484 0.442662 24.2183 0.417793 24.1018L0.366141 23.8396L0.320229 23.5832C0.239882 23.143 0.176114 22.6963 0.128926 22.2432C0.128926 22.2005 0.117448 22.1558 0.113622 22.1111C0.0830138 21.8081 0.0581445 21.5013 0.0390143 21.1925C0.0390143 21.1206 0.0390143 21.0527 0.0390143 20.9808C0.016058 20.7808 0.00266683 20.5574 0.00266683 20.3399C-0.177157 9.18241 8.76049 -0.0271297 19.7508 6.0051e-05H19.9995H20.3266L20.6385 0.015597H20.6786C23.6003 0.155502 26.4539 0.959215 29.029 2.36751C29.3108 2.52029 29.5876 2.68084 29.8592 2.84915C30.8368 3.44757 31.7696 4.11811 32.6503 4.85536C33.5511 5.61015 34.394 6.43339 35.1717 7.31797C35.8067 8.04514 36.3921 8.81535 36.924 9.62327C38.9404 12.6491 40.1513 16.2032 39.9849 20.0039Z" fill="#DDAB0A"/>
<path d="M31.5471 36.1953C28.6228 38.3098 25.195 39.5924 21.6185 39.9106C20.9891 39.9708 20.3502 39.9999 19.7055 39.9999C19.3573 39.9999 19.0111 39.9902 18.6686 39.9728C14.2862 39.7425 10.1059 38.0291 6.79448 35.1058C6.78955 35.1018 6.78506 35.0972 6.78109 35.0922H6.77152C6.63952 34.9776 6.50944 34.8591 6.38892 34.7387L6.21674 34.5756C6.16509 34.527 6.11535 34.4804 6.06562 34.4299C5.75826 34.1309 5.45982 33.8208 5.17032 33.4997L5.00197 33.3055C4.83171 33.1112 4.66719 32.917 4.5065 32.7228C4.47972 32.6898 4.45294 32.6548 4.42424 32.6218L4.18894 32.3208L4.03398 32.1266C3.93642 31.9965 3.84268 31.8644 3.74512 31.7382C9.91845 32.9869 23.3402 35.6107 31.5471 36.1953Z" fill="#C69712"/>
<path d="M23.1071 36.9606C21.1044 37.6316 19.0084 37.9713 16.8994 37.9666C16.5742 37.9666 16.2489 37.955 15.9276 37.9394C12.7089 37.775 9.57984 36.807 6.81774 35.1214C6.79995 35.1109 6.78329 35.0985 6.768 35.0845C4.74845 33.3023 3.10698 31.1218 1.94335 28.6755C1.83431 28.4386 1.72335 28.2074 1.62961 27.9666C0.743569 25.8985 0.209901 23.6926 0.0513668 21.443C0.0264975 21.0779 0.00928023 20.7109 0.00354116 20.3399C-0.0624995 15.714 1.44865 11.207 4.28099 7.58268C7.11332 3.95833 11.0927 1.43938 15.545 0.452582C15.7898 0.398202 16.0366 0.347707 16.2853 0.303038C17.429 0.0983916 18.5884 -0.00299498 19.7498 6.73414e-05H19.9985C23.1442 0.0458089 26.2139 0.987935 28.8577 2.71904C30.1141 3.53885 31.2551 4.52801 32.2495 5.65941C33.0953 6.61417 33.8291 7.66543 34.4361 8.79205C34.795 9.46417 35.1082 10.1604 35.3735 10.8759C35.501 11.2359 35.6247 11.5991 35.7446 11.9655C36.3117 13.7987 36.6152 15.7055 36.6456 17.6268C36.791 26.5838 31.0596 34.2843 23.1071 36.9606Z" fill="#F8C705"/>
<path d="M32.6702 12.9197C31.7649 10.2698 30.0715 7.97067 27.8239 6.33977C25.5763 4.70887 22.8853 3.82667 20.1227 3.815H20.0366C17.4434 3.81495 14.8878 4.44385 12.5824 5.64934C10.2771 6.85483 8.28885 8.60202 6.7832 10.7454C5.27754 12.8888 4.29809 15.3664 3.92639 17.9718C3.55469 20.5772 3.80151 23.2351 4.64629 25.7241C5.27533 27.5807 6.29797 29.2745 7.64209 30.6862C8.8815 31.9896 10.3652 33.0281 12.006 33.7405C13.6467 34.453 15.4113 34.8249 17.1957 34.8346H17.2818C19.8754 34.8342 22.4313 34.2048 24.7367 32.9987C27.0422 31.7926 29.0304 30.0448 30.5359 27.9009C32.0414 25.7569 33.0205 23.2788 33.3917 20.6729C33.763 18.067 33.5156 15.4088 32.6702 12.9197ZM5.74054 24.889C4.9744 22.6301 4.75071 20.2181 5.08807 17.8537C5.42544 15.4893 6.31412 13.2409 7.68015 11.2956C9.04619 9.35022 10.8501 7.7642 12.9418 6.66946C15.0334 5.57472 17.3524 5.00292 19.7056 5.00164H19.7841C21.3707 5.00881 22.9398 5.33909 24.3984 5.97292C25.857 6.60674 27.1756 7.53124 28.276 8.69167C29.6238 10.0032 30.6447 11.6216 31.2546 13.413C32.0206 15.672 32.2443 18.0841 31.9069 20.4485C31.5695 22.813 30.6809 25.0615 29.3149 27.0069C27.9489 28.9524 26.145 30.5386 24.0534 31.6336C21.9618 32.7285 19.6428 33.3006 17.2895 33.3022H17.211C15.6245 33.2943 14.0557 32.9637 12.5972 32.3299C11.1386 31.6961 9.81998 30.772 8.71912 29.6122C7.37045 28.3006 6.34935 26.6814 5.74054 24.889Z" fill="#DDAB0A"/>
<path d="M28.2733 8.69556C26.0778 6.55658 23.1571 5.35522 20.1142 5.33958H20.0377C17.684 5.33956 15.3643 5.91051 13.272 7.00488C11.1796 8.09925 9.37513 9.68535 8.00884 11.6311C6.64254 13.5768 5.75398 15.8258 5.41719 18.1907C5.08039 20.5556 5.3051 22.968 6.0726 25.2269C6.62928 26.8665 7.53152 28.363 8.7164 29.6122C7.36912 28.3002 6.34935 26.681 5.74165 24.889C4.9755 22.6301 4.75181 20.2181 5.08918 17.8537C5.42655 15.4893 6.31522 13.2409 7.68126 11.2956C9.0473 9.35023 10.8512 7.76421 12.9429 6.66947C15.0345 5.57473 17.3535 5.00293 19.7067 5.00165H19.7852C21.3714 5.00984 22.9399 5.34098 24.3979 5.97547C25.8558 6.60995 27.1736 7.5349 28.2733 8.69556Z" fill="#C69712"/>
<g style="mix-blend-mode:screen" opacity="0.5">
<path d="M15.5458 0.452332L14.5415 2.45466L2.4684 26.3136L1.63049 27.9664C0.744448 25.8982 0.21078 23.6923 0.0522461 21.4428L9.38781 2.97709C11.2838 1.78538 13.3664 0.93149 15.5458 0.452332Z" fill="#F8C705"/>
</g>
<path d="M17.0542 24.3342C17.799 24.5479 18.4283 24.5471 18.9421 24.3316C19.4591 24.1088 19.8557 23.6823 20.132 23.0523C20.2413 22.8032 20.2923 22.5673 20.2852 22.3446C20.2812 22.1145 20.2349 21.8917 20.146 21.6759C20.0572 21.4602 19.9312 21.2496 19.768 21.0442C19.608 20.8314 19.4233 20.625 19.214 20.4251L17.0542 24.3342ZM21.1282 12.7442C20.7339 12.6274 20.3798 12.5684 20.066 12.567C19.7554 12.5582 19.4809 12.5966 19.2425 12.682C19.0114 12.7706 18.8124 12.8958 18.6455 13.0573C18.4891 13.2149 18.3626 13.4035 18.2662 13.6233C18.157 13.8724 18.0991 14.114 18.0925 14.3481C18.0965 14.5781 18.1413 14.8046 18.2269 15.0277C18.3125 15.2507 18.4337 15.4723 18.5905 15.6924C18.7505 15.9052 18.9372 16.1169 19.1505 16.3274L21.1282 12.7442ZM20.6945 17.7364C20.9995 17.9971 21.2996 18.2689 21.5949 18.5516C21.8934 18.827 22.1693 19.1141 22.4225 19.4129C22.6758 19.7117 22.896 20.0263 23.083 20.3567C23.2701 20.687 23.4046 21.0375 23.4867 21.4082C23.5792 21.7748 23.605 22.164 23.5642 22.5757C23.5234 22.9874 23.4018 23.4241 23.1994 23.8856C22.9006 24.567 22.5012 25.159 22.0012 25.6617C21.5118 26.1603 20.9419 26.5435 20.2916 26.8114C19.6445 27.072 18.9359 27.2038 18.1659 27.2069C17.3958 27.21 16.5824 27.053 15.7257 26.736L14.939 28.1713C14.8409 28.3552 14.6852 28.4911 14.4719 28.5791C14.2586 28.667 14.0354 28.6583 13.8021 28.5528L12.6977 28.0536L13.9224 25.8287C13.5325 25.5823 13.1592 25.3082 12.8024 25.0065C12.4561 24.7007 12.134 24.3795 11.8361 24.043C11.5414 23.6991 11.2766 23.3468 11.0418 22.986C10.8101 22.618 10.6193 22.2464 10.4693 21.8714L12.0012 20.9178C12.1328 20.8368 12.2839 20.791 12.4546 20.7803C12.6284 20.7624 12.7883 20.7863 12.9341 20.8522C13.1017 20.928 13.2542 21.0584 13.3915 21.2433C13.5287 21.4283 13.6746 21.6434 13.829 21.8888C13.994 22.1301 14.1828 22.3867 14.3956 22.6584C14.6156 22.9335 14.8938 23.1953 15.2303 23.4439L17.6459 19.0711C17.3378 18.8177 17.0345 18.5533 16.736 18.2779C16.448 17.9985 16.1789 17.7057 15.9288 17.3995C15.6788 17.0933 15.4618 16.7714 15.278 16.4338C15.1047 16.092 14.9818 15.7249 14.9094 15.3322C14.837 14.9396 14.8277 14.5227 14.8813 14.0817C14.9382 13.6334 15.0791 13.1528 15.304 12.6399C15.5546 12.0685 15.9102 11.5664 16.3707 11.1337C16.8345 10.6937 17.3746 10.3584 17.9911 10.1279C18.6148 9.90069 19.3032 9.79487 20.0563 9.81047C20.8127 9.81873 21.6123 9.98705 22.4554 10.3154L23.1492 9.06204C23.2473 8.87814 23.4014 8.74588 23.6115 8.66525C23.832 8.58059 24.0553 8.58934 24.2813 8.69148L25.3966 9.19563L24.2552 11.2606C24.9814 11.7557 25.5561 12.2876 25.9793 12.8564C26.4025 13.4251 26.7278 13.9979 26.9552 14.5748L25.7297 15.3376C25.5537 15.46 25.3897 15.5351 25.2378 15.563C25.089 15.5835 24.9344 15.5576 24.774 15.4851C24.6647 15.4357 24.5463 15.347 24.4189 15.2192C24.3021 15.0874 24.1718 14.9363 24.0281 14.766C23.8876 14.5884 23.7253 14.4009 23.541 14.2035C23.3641 14.0094 23.1662 13.8234 22.9472 13.6454L20.6945 17.7364Z" fill="white"/>
<g style="mix-blend-mode:screen" opacity="0.5">
<path d="M35.7446 11.9658L32.4657 18.4505L26.388 30.4723L23.1071 36.9609C22.0252 37.3242 20.9139 37.5906 19.7861 37.7572L22.3132 32.7581L31.9128 13.77L34.4361 8.79236C34.795 9.46448 35.1082 10.1607 35.3735 10.8763C35.5137 11.2362 35.6375 11.5994 35.7446 11.9658Z" fill="#F8C705"/>
</g>
</svg>
