<svg width="267" height="34" viewBox="0 0 267 34" fill="none" xmlns="http://www.w3.org/2000/svg">
<path d="M6.09 25H12.3L15.78 11.14L19.14 25H25.35L30.84 3.94H25.32L22.26 19.27L18.66 3.94H13.02L9.27 19.27L6.24 3.94H0.75L6.09 25ZM49.7927 16.63C49.7927 11.32 46.0127 8.02 41.0927 8.02C36.2027 8.02 32.3927 11.32 32.3927 16.63C32.3927 21.94 36.1127 25.24 41.0327 25.24C45.9527 25.24 49.7927 21.94 49.7927 16.63ZM37.6127 16.63C37.6127 13.78 39.2327 12.46 41.0927 12.46C42.8927 12.46 44.5727 13.78 44.5727 16.63C44.5727 19.45 42.8627 20.8 41.0327 20.8C39.1727 20.8 37.6127 19.45 37.6127 16.63ZM51.4943 16.6C51.4943 21.88 54.7643 25.24 58.8443 25.24C61.3343 25.24 63.1043 24.1 64.0343 22.63V25H69.1643V8.26H64.0343V10.63C63.1343 9.16 61.3643 8.02 58.8743 8.02C54.7643 8.02 51.4943 11.32 51.4943 16.6ZM64.0343 16.63C64.0343 19.3 62.3243 20.77 60.3743 20.77C58.4543 20.77 56.7143 19.27 56.7143 16.6C56.7143 13.93 58.4543 12.49 60.3743 12.49C62.3243 12.49 64.0343 13.96 64.0343 16.63ZM72.8756 25H78.0056V15.91C78.0056 13.63 79.2656 12.37 81.2156 12.37C83.1656 12.37 84.4256 13.63 84.4256 15.91V25H89.5256V15.22C89.5256 10.72 86.9756 8.08 83.1656 8.08C80.8556 8.08 79.0256 9.07 78.0056 10.51V2.8H72.8756V25ZM93.0905 25H98.2205V15.91C98.2205 13.63 99.4805 12.37 101.43 12.37C103.38 12.37 104.64 13.63 104.64 15.91V25H109.74V15.22C109.74 10.72 107.19 8.08 103.38 8.08C101.07 8.08 99.2405 9.07 98.2205 10.51V2.8H93.0905V25ZM115.105 17.56H119.455L120.055 3.19H114.505L115.105 17.56ZM120.385 22.48C120.385 20.89 119.155 19.66 117.355 19.66C115.525 19.66 114.295 20.89 114.295 22.48C114.295 24.01 115.525 25.24 117.355 25.24C119.155 25.24 120.385 24.01 120.385 22.48ZM145.781 25H151.211L143.591 3.94H137.651L130.031 25H135.401L136.661 21.28H144.521L145.781 25ZM143.201 17.32H138.011L140.591 9.61L143.201 17.32ZM176.6 25H181.7V15.22C181.7 10.72 179.03 8.08 174.89 8.08C172.46 8.08 170.36 9.43 169.25 11.2C168.11 9.19 166.07 8.08 163.55 8.08C161.36 8.08 159.65 9.01 158.66 10.36V8.26H153.53V25H158.66V15.91C158.66 13.72 159.92 12.52 161.87 12.52C163.82 12.52 165.08 13.72 165.08 15.91V25H170.18V15.91C170.18 13.72 171.44 12.52 173.39 12.52C175.34 12.52 176.6 13.72 176.6 15.91V25ZM184.268 16.6C184.268 21.88 187.538 25.24 191.618 25.24C194.108 25.24 195.878 24.1 196.808 22.63V25H201.938V8.26H196.808V10.63C195.908 9.16 194.138 8.02 191.648 8.02C187.538 8.02 184.268 11.32 184.268 16.6ZM196.808 16.63C196.808 19.3 195.098 20.77 193.148 20.77C191.228 20.77 189.488 19.27 189.488 16.6C189.488 13.93 191.228 12.49 193.148 12.49C195.098 12.49 196.808 13.96 196.808 16.63ZM217.559 8.26H204.779V12.49H211.679L204.719 20.92V25H217.709V20.77H210.449L217.559 12.34V8.26ZM220.532 25H225.662V8.26H220.532V25ZM223.112 6.52C224.912 6.52 226.142 5.29 226.142 3.76C226.142 2.2 224.912 0.969998 223.112 0.969998C221.282 0.969998 220.052 2.2 220.052 3.76C220.052 5.29 221.282 6.52 223.112 6.52ZM240.93 25H246.03V15.22C246.03 10.72 243.45 8.08 239.58 8.08C237.33 8.08 235.53 9.07 234.51 10.48V8.26H229.38V25H234.51V15.91C234.51 13.63 235.77 12.37 237.72 12.37C239.67 12.37 240.93 13.63 240.93 15.91V25ZM248.574 16.6C248.574 21.88 251.844 25.24 255.954 25.24C258.414 25.24 260.184 24.07 261.114 22.6V24.97C261.114 27.79 259.584 28.81 257.634 28.81C255.864 28.81 254.604 28 254.274 26.74H249.204C249.654 30.73 252.894 33.25 257.874 33.25C263.664 33.25 266.244 29.44 266.244 24.97V8.26H261.114V10.63C260.214 9.13 258.414 8.02 255.954 8.02C251.844 8.02 248.574 11.32 248.574 16.6ZM261.114 16.63C261.114 19.3 259.404 20.77 257.454 20.77C255.534 20.77 253.794 19.27 253.794 16.6C253.794 13.93 255.534 12.49 257.454 12.49C259.404 12.49 261.114 13.96 261.114 16.63Z" fill="white"/>
</svg>
