<svg xmlns="http://www.w3.org/2000/svg" xmlns:xlink="http://www.w3.org/1999/xlink" viewBox="0 0 744.75 282.24"><defs><style>.cls-1{isolation:isolate;}.cls-2{opacity:0.17;}.cls-3{fill:url(#linear-gradient);}.cls-25,.cls-4{fill:#f8eded;}.cls-5{fill:url(#radial-gradient);}.cls-6{fill:url(#radial-gradient-2);}.cls-7{fill:url(#radial-gradient-3);}.cls-8{fill:url(#radial-gradient-4);}.cls-9{fill:#c4854b;}.cls-10{fill:#ffb24d;}.cls-11{fill:url(#radial-gradient-5);}.cls-12{fill:url(#radial-gradient-6);}.cls-13{fill:url(#radial-gradient-7);}.cls-14{fill:url(#radial-gradient-8);}.cls-15{fill:url(#radial-gradient-9);}.cls-16{fill:url(#radial-gradient-10);}.cls-17{fill:url(#radial-gradient-11);}.cls-18{fill:url(#radial-gradient-12);}.cls-19{fill:url(#radial-gradient-13);}.cls-20{fill:url(#radial-gradient-14);}.cls-21{fill:#513029;opacity:0.24;}.cls-22{fill:#25070f;}.cls-23{fill:url(#linear-gradient-2);}.cls-24{fill:#fff;}.cls-25{mix-blend-mode:multiply;}.cls-26{fill:#333;}</style><linearGradient id="linear-gradient" x1="-537.93" y1="531.15" x2="-779.29" y2="644.1" gradientTransform="translate(891.81 -303.33) rotate(7.09)" gradientUnits="userSpaceOnUse"><stop offset="0" stop-color="#fcbe5e"/><stop offset="0.74" stop-color="#d88342"/><stop offset="1" stop-color="#cb6e38"/></linearGradient><radialGradient id="radial-gradient" cx="101" cy="182.97" r="3.3" gradientUnits="userSpaceOnUse"><stop offset="0" stop-color="#ff728c"/><stop offset="0.27" stop-color="#fa6f88"/><stop offset="0.61" stop-color="#ea667d"/><stop offset="0.98" stop-color="#d1576b"/><stop offset="1" stop-color="#d0566a"/></radialGradient><radialGradient id="radial-gradient-2" cx="96.87" cy="187.37" r="3.76" xlink:href="#radial-gradient"/><radialGradient id="radial-gradient-3" cx="104.52" cy="191.26" r="3.42" xlink:href="#radial-gradient"/><radialGradient id="radial-gradient-4" cx="115.45" cy="189.58" r="8.69" xlink:href="#radial-gradient"/><radialGradient id="radial-gradient-5" cx="46.44" cy="200.79" r="3.63" xlink:href="#radial-gradient"/><radialGradient id="radial-gradient-6" cx="41.9" cy="205.62" r="4.13" xlink:href="#radial-gradient"/><radialGradient id="radial-gradient-7" cx="50.3" cy="209.89" r="3.76" xlink:href="#radial-gradient"/><radialGradient id="radial-gradient-8" cx="62.31" cy="208.05" r="9.54" xlink:href="#radial-gradient"/><radialGradient id="radial-gradient-9" cx="56.19" cy="200.55" r="3" xlink:href="#radial-gradient"/><radialGradient id="radial-gradient-10" cx="157.37" cy="206.05" r="3.63" xlink:href="#radial-gradient"/><radialGradient id="radial-gradient-11" cx="152.84" cy="210.88" r="4.13" xlink:href="#radial-gradient"/><radialGradient id="radial-gradient-12" cx="161.23" cy="215.15" r="3.76" xlink:href="#radial-gradient"/><radialGradient id="radial-gradient-13" cx="173.24" cy="213.3" r="9.54" xlink:href="#radial-gradient"/><radialGradient id="radial-gradient-14" cx="167.12" cy="205.81" r="3" xlink:href="#radial-gradient"/><linearGradient id="linear-gradient-2" x1="976.51" y1="-445.2" x2="976.51" y2="-402.42" gradientTransform="translate(-577.94 678.54) rotate(-1.34)" gradientUnits="userSpaceOnUse"><stop offset="0" stop-color="#140b06"/><stop offset="1" stop-color="#513029"/></linearGradient></defs><g class="cls-1"><g id="Layer_2" data-name="Layer 2"><g id="Layer_1-2" data-name="Layer 1"><ellipse class="cls-2" cx="255.13" cy="231.48" rx="255.13" ry="50.76"/><path class="cls-3" d="M272.22,167.73c.24-6-1.09-12.15-4.38-16.89-3.92-5.63-10.21-9.15-16.15-12.08-17.39-8.59-37.94-6.24-55.79,3.15A79.36,79.36,0,0,0,171,162.38a78.32,78.32,0,0,0-12.63,23.27,10.71,10.71,0,0,0-7.46-2c-9.14,1.09-17.62,1.94-26.81.2-6.76-1.27-13.26-4.28-20.24-4.19a14.68,14.68,0,0,0-13.46,8.91c-2.47,6.23-1.06,13.77,1.67,19.69a22.89,22.89,0,0,0,12.56,11.9c6.17,2.52,13.22,3.58,19.86,3.95a76.47,76.47,0,0,0,20.36-1.54c5.34-1.17,10.56-3,15.76-4.7.75-.24,1.5-.5,2.25-.77a60.93,60.93,0,0,0,11.26,7.19,61.88,61.88,0,0,0,38.94,6.18c21-3.73,39.37-18.88,50.7-38,.86-1.44,1.67-2.9,2.45-4.39C269.51,181.75,271.93,174.82,272.22,167.73Z"/><path class="cls-4" d="M122.31,218.13a22.73,22.73,0,0,1,.48-4.29,2,2,0,0,1,1-1.37,8.51,8.51,0,0,1,2-.48c-.49-.47-1.08-.77-1.57-1.25a2.55,2.55,0,0,1-.62-1.9,36,36,0,0,1,2.4-13,62.78,62.78,0,0,1,5.3-11.1,56.33,56.33,0,0,1-7.17-.88c-6.76-1.27-13.26-4.28-20.24-4.19a14.68,14.68,0,0,0-13.46,8.91c-2.47,6.23-1.06,13.77,1.67,19.69a22.89,22.89,0,0,0,12.56,11.9,60.46,60.46,0,0,0,18,3.83A22.89,22.89,0,0,1,122.31,218.13Z"/><path class="cls-5" d="M105.44,183c.13.79-1.76,1.42-4.21,1.4s-4.54-.66-4.67-1.45,1.76-1.42,4.22-1.41S105.32,182.21,105.44,183Z"/><path class="cls-6" d="M101.87,187.4c.16,1-2,1.79-4.71,1.77s-5.13-.84-5.28-1.84,2-1.79,4.71-1.77S101.72,186.4,101.87,187.4Z"/><path class="cls-7" d="M99.9,190.79c0-.75,2-1.14,4.58-.89s4.63,1.08,4.65,1.82-2,1.15-4.57.89S99.92,191.54,99.9,190.79Z"/><path class="cls-8" d="M112.79,191.77c-.27-.29-.54-.83-.9-1l0,0a1.38,1.38,0,0,0-.27-.08,19,19,0,0,1-5.23-1.68c-1-.55-2.18-1.38-2.2-2.44.11-1.54,3.51-2.22,7.58-1.5l1.69.28c.62.11,1.08.31,1.59,0a6.43,6.43,0,0,1,4.26-.45,11,11,0,0,1,6.59,3.54,3.53,3.53,0,0,1,.85,1.92c.07,1.33-1.16,2.35-2.34,2.94a12,12,0,0,1-3.77,1.1,9.89,9.89,0,0,1-3.89-.25,8.68,8.68,0,0,1-2.79-1.34A7.86,7.86,0,0,1,112.79,191.77Z"/><path class="cls-9" d="M113.53,183.24c0,.64-1.65.93-3.67.66s-3.64-1-3.63-1.63,1.65-.93,3.66-.66S113.54,182.61,113.53,183.24Z"/><path class="cls-10" d="M367.05,182a98.32,98.32,0,0,0-1.93-17.43,63.85,63.85,0,0,0-8.79-22.31,0,0,0,0,0,0,0,41.44,41.44,0,0,0-3.93-5.08s0,0,0,0c-.41-.47-.84-.92-1.28-1.37A36.24,36.24,0,0,0,339.87,128h0c-1-.45-2.08-.86-3.18-1.23l-.93-.29c-7.3-2.26-15-2.66-22.69-3.13-2.41-.15-4.79-.37-7.16-.66q-3.86-.47-7.65-1.17c-18.64-3.36-36.32-10.32-54.42-16.17h0c-3-1-6-1.92-9-2.81-.88-.26-1.77-.51-2.65-.75l-.28-.07h0c-24.2-6.53-49.12-6.13-71.52,6.39a100.7,100.7,0,0,0-25,19.83h0a108.24,108.24,0,0,0-15.71,22,111.49,111.49,0,0,0-10.23,26.33c-.31,1.23-.58,2.47-.82,3.73-.11.49-.21,1-.29,1.49-.12.65-.23,1.3-.33,2-.07.43-.13.86-.19,1.29-.22,1.52-.39,3.05-.52,4.59,0,.36-.06.71-.08,1.07-.06.74-.1,1.48-.13,2.23a82.94,82.94,0,0,0,.12,10.09c.13,1.77.31,3.55.56,5.31.18,1.28.38,2.55.63,3.81h0a69.85,69.85,0,0,0,2.78,10.35h0c4.11,11.68,11.4,22,22.46,28.5a52.34,52.34,0,0,0,20.16,6.54l.39.05a133.38,133.38,0,0,0,20.41.67h0c4.95-.12,9.85-.35,14.6-.39h3.19c28.64,0,57.28-.25,85.92-.45q4.42,0,8.84-.06h2.13l27.29-.15,5.52,0,10.24,0c3.77,0,7.68,0,11.1-1.61,5.43-2.48,8.53-8.26,10.42-13.92,1.07-3.21,2.19-6.38,3.31-9.54,2.23-6.3,4.44-12.58,6.19-19,.82-3,1.53-6,2.11-9.08.14-.76.28-1.52.4-2.29.31-1.93.58-4,.79-6,0-.37.07-.74.1-1.11.12-1.3.21-2.63.27-4,.05-.89.09-1.78.11-2.69C367.1,185.74,367.11,183.86,367.05,182ZM242.84,247.79a.18.18,0,1,1,0-.35A.18.18,0,1,1,242.84,247.79Z"/><path class="cls-10" d="M100.88,92.25l.66,13.23-6.75-8.43s-2.27,17.21,11.7,36.66c11.17,15.46,14.26,17.23,14.26,17.23l11.37-16.21a21.59,21.59,0,0,0,3.15-18.18c-3-11-6.45-29.18-.14-41.07C116.09,77.26,100.88,92.25,100.88,92.25Z"/><path class="cls-9" d="M237.49,189c.27-6.59-1.19-13.33-4.81-18.54-4.3-6.19-11.22-10.05-17.73-13.27-19.11-9.43-41.68-6.86-61.29,3.46a87.31,87.31,0,0,0-27.34,22.48,85.72,85.72,0,0,0-13.87,25.56,11.84,11.84,0,0,0-8.2-2.2c-10,1.19-19.35,2.13-29.45.22-7.42-1.4-14.56-4.7-22.22-4.61a16.13,16.13,0,0,0-14.79,9.79c-2.71,6.84-1.17,15.13,1.83,21.62a25.23,25.23,0,0,0,13.8,13.08c6.78,2.76,14.52,3.93,21.81,4.33a84,84,0,0,0,22.37-1.69,177.06,177.06,0,0,0,17.3-5.16c.83-.27,1.66-.54,2.48-.85a67.34,67.34,0,0,0,12.36,7.9c13.08,6.63,27.87,9.44,42.77,6.79,23.11-4.1,43.25-20.74,55.69-41.71q1.41-2.38,2.69-4.83C234.51,204.45,237.17,196.84,237.49,189Z"/><path class="cls-10" d="M234.49,184c.27-6.59-1.19-13.33-4.81-18.54-4.3-6.19-11.22-10.05-17.73-13.27-19.11-9.43-41.68-6.86-61.29,3.46a87.31,87.31,0,0,0-27.34,22.48,85.72,85.72,0,0,0-13.87,25.56,11.84,11.84,0,0,0-8.2-2.2c-10,1.19-19.35,2.13-29.45.22-7.42-1.4-14.56-4.7-22.22-4.61a16.13,16.13,0,0,0-14.79,9.79c-2.71,6.84-1.17,15.13,1.83,21.62a25.23,25.23,0,0,0,13.8,13.08c6.78,2.76,14.52,3.93,21.81,4.33a84,84,0,0,0,22.37-1.69,177.06,177.06,0,0,0,17.3-5.16c.83-.27,1.66-.54,2.48-.85a67.34,67.34,0,0,0,12.36,7.9c13.08,6.63,27.87,9.44,42.77,6.79,23.11-4.1,43.25-20.74,55.69-41.71q1.41-2.38,2.69-4.83C231.51,199.45,234.17,191.84,234.49,184Z"/><path class="cls-4" d="M69.84,239.41a24.82,24.82,0,0,1,.53-4.72,2.25,2.25,0,0,1,1.1-1.5,8.75,8.75,0,0,1,2.16-.53c-.54-.51-1.19-.85-1.72-1.37a2.81,2.81,0,0,1-.69-2.09,39.78,39.78,0,0,1,2.64-14.3,68.81,68.81,0,0,1,5.82-12.19,62.25,62.25,0,0,1-7.88-1c-7.42-1.4-14.56-4.7-22.22-4.61a16.13,16.13,0,0,0-14.79,9.79c-2.71,6.84-1.17,15.13,1.83,21.62a25.23,25.23,0,0,0,13.8,13.08,66.34,66.34,0,0,0,19.78,4.2A24.63,24.63,0,0,1,69.84,239.41Z"/><path class="cls-11" d="M51.31,200.82c.14.87-1.93,1.56-4.63,1.54s-5-.73-5.12-1.6,1.93-1.56,4.63-1.54S51.18,200,51.31,200.82Z"/><path class="cls-12" d="M47.39,205.65c.18,1.09-2.14,2-5.17,1.95s-5.64-.92-5.81-2,2.15-2,5.18-2S47.22,204.55,47.39,205.65Z"/><path class="cls-13" d="M45.22,209.38c0-.82,2.23-1.26,5-1s5.09,1.18,5.12,2-2.23,1.26-5,1S45.25,210.2,45.22,209.38Z"/><path class="cls-14" d="M59.39,210.46c-.31-.32-.6-.92-1-1.15l0,0a1.4,1.4,0,0,0-.29-.09,20.46,20.46,0,0,1-5.75-1.85c-1.12-.6-2.4-1.51-2.41-2.68.12-1.69,3.85-2.43,8.32-1.65l1.86.32c.68.12,1.18.34,1.74,0a7,7,0,0,1,4.68-.49,12.08,12.08,0,0,1,7.24,3.88,3.91,3.91,0,0,1,.93,2.11c.08,1.46-1.27,2.59-2.57,3.23A13.08,13.08,0,0,1,68,213.3a10.88,10.88,0,0,1-4.27-.27,9.91,9.91,0,0,1-3.07-1.48A9.39,9.39,0,0,1,59.39,210.46Z"/><path class="cls-15" d="M60.2,201.09c0,.69-1.82,1-4,.72s-4-1.1-4-1.79,1.82-1,4-.73S60.21,200.39,60.2,201.09Z"/><path class="cls-9" d="M313.92,215.22c-5.33-11.19-18.86-18.58-33.31-19.84-15.44-1.34-30.42,3.37-45,7.58-7,2-14.16,3.85-21.32,5.41-5,1.08-19.37,5.44-21.58,5.62-2.62.22-5.31-1-7.63-2a66,66,0,0,0-15.69-4.27,23.62,23.62,0,0,0-12,1.22,21.28,21.28,0,0,0-12.27,11.81A20.38,20.38,0,0,0,146,237.8c5.61,10.66,18.93,15.12,30.12,18.58a221.05,221.05,0,0,0,44.37,8.84,220.37,220.37,0,0,0,45.5-.38c19.71-2.25,41-9.43,48.34-28.68C317.29,228.33,316.79,221.23,313.92,215.22Z"/><path class="cls-10" d="M310.92,210.22c-5.33-11.19-18.86-18.58-33.31-19.84-15.44-1.34-30.42,3.37-45,7.58-7,2-14.16,3.85-21.32,5.41-5,1.08-19.37,5.44-21.58,5.62-2.62.22-5.31-1-7.63-2a66,66,0,0,0-15.69-4.27,23.62,23.62,0,0,0-12,1.22,21.28,21.28,0,0,0-12.27,11.81A20.38,20.38,0,0,0,143,232.8c5.61,10.66,18.93,15.12,30.12,18.58a221.05,221.05,0,0,0,44.37,8.84,220.37,220.37,0,0,0,45.5-.38c19.71-2.25,41-9.43,48.34-28.68C314.29,223.33,313.79,216.23,310.92,210.22Z"/><path class="cls-4" d="M179.24,242.68c.19-.83.42-1.65.63-2.48a6,6,0,0,1,.82-2.1,1.78,1.78,0,0,1,1.71-.39,10.83,10.83,0,0,0,2.35.33c-1.12-1.17-2.6-2.35-2.8-4a9.21,9.21,0,0,1,.25-2.91c.23-1.19.47-2.39.75-3.57a68.37,68.37,0,0,1,2.15-7.42,45.72,45.72,0,0,1,5.66-11.31,8.94,8.94,0,0,1-1,.18c-2.62.22-5.31-1-7.63-2a66,66,0,0,0-15.69-4.27,23.62,23.62,0,0,0-12,1.22,21.28,21.28,0,0,0-12.27,11.81A20.38,20.38,0,0,0,143,232.8c5.61,10.66,18.93,15.12,30.12,18.58q2.57.8,5.15,1.52A40,40,0,0,1,179.24,242.68Z"/><path class="cls-16" d="M162.25,206.08c.13.87-1.94,1.56-4.63,1.55s-5-.73-5.13-1.6,1.93-1.56,4.63-1.55S162.11,205.21,162.25,206.08Z"/><path class="cls-17" d="M158.33,210.91c.17,1.1-2.14,2-5.18,2s-5.63-.91-5.8-2,2.14-2,5.17-1.95S158.15,209.82,158.33,210.91Z"/><path class="cls-18" d="M156.16,214.64c0-.82,2.23-1.26,5-1s5.09,1.18,5.12,2-2.23,1.26-5,1S156.19,215.47,156.16,214.64Z"/><path class="cls-19" d="M170.32,215.71c-.3-.32-.59-.91-1-1.15h0a.89.89,0,0,0-.29-.09,20.67,20.67,0,0,1-5.75-1.85c-1.12-.6-2.39-1.51-2.41-2.68.12-1.69,3.85-2.43,8.32-1.65l1.86.31c.69.12,1.18.34,1.74,0a7,7,0,0,1,4.68-.49A12.1,12.1,0,0,1,184.7,212a3.85,3.85,0,0,1,.93,2.1c.08,1.47-1.27,2.59-2.57,3.24a13.34,13.34,0,0,1-4.14,1.21,10.88,10.88,0,0,1-4.27-.27,9.89,9.89,0,0,1-3.07-1.47A9.46,9.46,0,0,1,170.32,215.71Z"/><path class="cls-20" d="M171.13,206.34c0,.7-1.81,1-4,.73s-4-1.1-4-1.79,1.82-1,4-.73S171.14,205.64,171.13,206.34Z"/><path class="cls-10" d="M419.23,187.5q2.14-.6,4.26-1.32c11.31-3.84,22.16-9.75,32.69-15.33,9.88-5.24,19.76-10.71,28.88-17.2,4.44-3.15,9.17-6.55,11.49-11.66,3.19-7-4.37-12.73-9.48-16a154.06,154.06,0,0,0-20.86-11.62,141.62,141.62,0,0,0-47.08-11.75,127.2,127.2,0,0,0-19.52.09q-1.92.16-3.84.39a126.53,126.53,0,0,0-56.7,21c-4.33,3-8.54,6.33-11.41,10.74-6.9,10.64-1.35,24.49,5.35,33.82a55.62,55.62,0,0,0,28.19,20.23c9.48,3,20,2.83,29.84,2.52A119.11,119.11,0,0,0,419.23,187.5Z"/><path class="cls-4" d="M407.26,184.51a100.56,100.56,0,0,0,23.39-7c18.54-8.06,37.24-17.35,53.62-29.27,4.76-3.47,7.53-7.1,1-11.62-19.89-13.78-48.77-17.92-72.36-17-30.45,1.19-63.51,11.58-85.56,33.39C323.88,156.48,357.73,193,407.26,184.51Z"/><path class="cls-9" d="M283.65,180.73q-1.78-1.33-3.49-2.76c-9.16-7.68-17.13-17.12-24.92-26.13-7.32-8.46-14.54-17.14-20.7-26.49-3-4.55-6.17-9.42-6.48-15-.43-7.71,8.67-10.29,14.63-11.5a153.25,153.25,0,0,1,23.65-3.27,141.32,141.32,0,0,1,48.14,6.09,126.54,126.54,0,0,1,18.16,7.14c1.16.57,2.3,1.15,3.44,1.75a126.58,126.58,0,0,1,45.26,40.09c3,4.34,5.67,9,6.74,14.14,2.59,12.41-7.6,23.32-17.22,29.59A55.64,55.64,0,0,1,337.25,203c-9.92-.62-19.68-4.61-28.72-8.45A118.42,118.42,0,0,1,283.65,180.73Z"/><path class="cls-10" d="M384.24,181.48c-.93,1.07-1.93,2.09-3,3.06l-.06.07-.42.38c-.63.57-1.27,1.13-1.92,1.67l-.93.75c-1.35,1.07-2.72,2.05-4.09,2.94-.4.26-.8.51-1.2.74a52.34,52.34,0,0,1-10.8,5c-.49.17-1,.33-1.49.48-.79.25-1.58.47-2.38.68a57,57,0,0,1-17.73,1.7c-9.93-.62-19.69-4.61-28.73-8.45l-.54-.23-1.37-.6a115.26,115.26,0,0,1-23-13q-1.78-1.33-3.49-2.76-2.27-1.91-4.44-3.94c-2.25-2.09-4.42-4.27-6.54-6.51a.13.13,0,0,1-.06-.07c-4.82-5.06-9.38-10.41-13.88-15.61-2.82-3.27-5.63-6.57-8.38-9.93a201.81,201.81,0,0,1-12.32-16.56c-3-4.55-6.17-9.42-6.48-15a7.78,7.78,0,0,1,1.06-4.54,6,6,0,0,1,.5-.74c2.79-3.75,8.75-5.34,13.07-6.22a153.25,153.25,0,0,1,23.65-3.27,141.32,141.32,0,0,1,48.14,6.09,127.06,127.06,0,0,1,17.31,6.73l.86.41,2.09,1a0,0,0,0,0,0,0l1.33.69a130.29,130.29,0,0,1,14.56,9,127.11,127.11,0,0,1,15,12.5,120.32,120.32,0,0,1,15.7,18.61c2.92,4.26,5.57,8.83,6.69,13.86,0,.06,0,.12,0,.18s0,.07,0,.1.05.22.06.33C392.6,168.71,389.26,175.75,384.24,181.48Z"/><path class="cls-4" d="M298.89,178.29a101.16,101.16,0,0,1-19.27-15c-14.36-14.22-28.44-29.65-39.39-46.7-3.18-4.95-4.44-9.34,3.27-11.19,23.53-5.65,51.94,1,73.6,10.35,28,12.13,55,33.79,67.66,62.1C386.77,182.34,342,204.1,298.89,178.29Z"/><path class="cls-9" d="M435.43,228.33c2.9,2.51,7,5.9,13.48,6.88a53.18,53.18,0,0,1-5.64,5.46c-7.27,6.1-16.59,11.08-26.14,15.05-3.05,1.27-6.12,2.43-9.16,3.49-5.46,1.91-10.8,3.49-15.69,4.76s-10.09,2.4-15.2,3.27a180.27,180.27,0,0,1-25.7,2.48h-.1a187.48,187.48,0,0,1-35.66-2.56h0c-2.28-.38-4.54-.8-6.81-1.27a205.29,205.29,0,0,1-30.57-8.75q-2.62-1-5.24-2c-11.95-4.78-27.72-14.13-35.9-24.39,9.36-.1,15.39-2.66,19.83-6.84a20.62,20.62,0,0,1-15.25-6.24s-.07,0-.08-.08a17.73,17.73,0,0,1-1.76-2.11c11.31-7.21,15.31-14.16,16.35-15.73l.66-1c4-6.26,6.63-13.07,9.44-19.91,1.69-4.11,3.24-8.25,4.79-12.37.36-.94.71-1.87,1.06-2.81h0l.05-.11c.7-1.85,1.41-3.7,2.15-5.53,3.69-9.31,7.87-18.33,14.18-26.46.82-1.06,1.68-2.08,2.57-3.08a68.14,68.14,0,0,1,7.17-6.94,75,75,0,0,1,12.41-8.38,81.87,81.87,0,0,1,8.52-4,87.36,87.36,0,0,1,11.4-3.75h0c1.39-.36,2.79-.69,4.2-1l.86.41,2.09,1,.73-.19q.57-.17,1.14-.3c.65-.17,1.31-.34,2-.48.45-.11.89-.21,1.34-.3.85-.2,1.69-.37,2.54-.52l1.22-.23c.57-.1,1.14-.2,1.7-.28l1.35-.2c.93-.14,1.87-.26,2.8-.36.48-.32,1-.65,1.43-1a42.16,42.16,0,0,0,15.41-21.44,14.43,14.43,0,0,1,1.57,7.61h0a18.16,18.16,0,0,1-.74,4.18,21.76,21.76,0,0,1-1.72,4.18,25.76,25.76,0,0,1-1.64,2.64c.9-.65,1.78-1.33,2.63-2a43.26,43.26,0,0,0,4.78-4.6c.76-.84,1.44-1.75,2.17-2.61a2.17,2.17,0,0,1,2.78-.77,3.14,3.14,0,0,1,.6.45,19.9,19.9,0,0,1-.63,2.83c-.07.25-.15.49-.23.73h0c-.1.29-.2.58-.31.86s-.23.57-.35.85c-.24.56-.51,1.11-.8,1.65a25.76,25.76,0,0,1-1.64,2.64c.45-.32.89-.65,1.33-1s.69-.54,1-.82l.27-.22a42.2,42.2,0,0,0,3.73-3.47,9.34,9.34,0,0,1,.27,1,12.49,12.49,0,0,1,.24,2.59,14,14,0,0,1-.77,4.34c-.11.31-.22.62-.34.93a18.46,18.46,0,0,1-1.82,3.43c-.2.31-.41.61-.63.91A53.09,53.09,0,0,1,395.31,118c1,1,1.92,2,2.84,3a68.36,68.36,0,0,1,4.46,5.54,90.53,90.53,0,0,1,10.05,18.12c3.27,7.78,5.3,15.87,7.28,24h0l.87,3.53h0c.69,2.79,1.4,5.59,2.17,8.37,0,.18.1.37.16.54v0c.37,1.35.77,2.69,1.19,4h0c.07.24.14.47.22.71q.69,2.19,1.47,4.35c3.55,9.78,7.84,19.38,16.93,25,.27.17.55.34.84.5l.31.16c1,.54,8,3.1,8.68,2.25A25.93,25.93,0,0,1,435.43,228.33Z"/><path class="cls-10" d="M461.78,218c-.35.47-.71.93-1.1,1.37a25.8,25.8,0,0,1-16.25,8.93c2.9,2.51,7,5.9,13.48,6.88a62,62,0,0,1-12.6,10.59c-13.29,8.7-30.44,14.63-44,18.17q-7.53,2-15.2,3.27a180.35,180.35,0,0,1-30.23,2.54c-1.42,0-2.85,0-4.27,0h-.3l-.68,0-1.84-.06c-.54,0-1.09,0-1.64-.07l-1.55-.08-1.52-.09-2-.14-.53,0-1.77-.15q-2.68-.22-5.37-.54c-2-.23-4.09-.5-6.12-.81l-1.81-.27-2.4-.4-2.1-.37q-2.54-.45-5.05-1h0l-1.23-.26c-1.35-.29-2.7-.6-4.05-.91l-1-.24-1.21-.3-2.07-.53q-3.1-.81-6.2-1.71c-1.37-.4-2.74-.82-4.1-1.25l-2.05-.66c-1.27-.42-2.54-.85-3.8-1.29l-1.91-.68-.39-.13h0l-1.78-.64c-1.7-.62-3.39-1.28-5.08-1.95-11.95-4.78-27.72-14.13-35.9-24.39,9.36-.1,15.39-2.66,19.83-6.84a20.38,20.38,0,0,1-12.39-3.79,19.67,19.67,0,0,1-4.62-4.53,1,1,0,0,1-.08-.11c11.31-7.21,15.31-14.16,16.35-15.73l.63-1c4-6.27,6.66-13.1,9.47-20,.81-2,1.59-4,2.35-5.94h0c.37-1,.73-1.89,1.09-2.84.71-1.86,1.4-3.72,2.1-5.57,4.38-11.57,8.92-22.93,16.69-32.93.82-1.06,1.68-2.08,2.57-3.08a66,66,0,0,1,5.82-5.77A72,72,0,0,1,316,115.27q2.06-1.27,4.2-2.41c1.24-.66,2.5-1.3,3.78-1.9.73-.35,1.47-.68,2.21-1,.54-.24,1.09-.47,1.64-.69l.12,0,1.56-.63c.85-.33,1.71-.65,2.58-1l1.18-.41.8-.26h0l.22-.06c.58-.2,1.16-.38,1.75-.55l.48-.14.64-.19.63-.19.73-.19q.57-.17,1.14-.3c.65-.17,1.31-.34,2-.48.45-.11.89-.21,1.34-.3.85-.2,1.69-.37,2.54-.52l1.22-.23c.57-.1,1.14-.2,1.7-.28l1.35-.2c.93-.14,1.87-.26,2.8-.36.48-.32,1-.65,1.43-1a42.16,42.16,0,0,0,15.41-21.44A37.56,37.56,0,0,0,370.65,75a.7.7,0,0,1,.87-.47,12,12,0,0,1,6.57,5.5,14.29,14.29,0,0,1,1.87,7.2c0,.25,0,.49,0,.74s0,.5-.05.75-.06.58-.1.88a19.9,19.9,0,0,1-.63,2.83c-.07.25-.15.49-.23.73h0c-.1.29-.2.58-.31.86s-.23.57-.35.85c-.24.56-.51,1.11-.8,1.65a25.76,25.76,0,0,1-1.64,2.64c.45-.32.89-.65,1.33-1s.69-.54,1-.82l.27-.22a42.2,42.2,0,0,0,3.73-3.47c.36-.37.71-.75,1.05-1.13.76-.84,1.44-1.75,2.17-2.61a2.17,2.17,0,0,1,2.78-.77,6.66,6.66,0,0,1,2.12,2.44,10.79,10.79,0,0,1,1.15,3.11,13.29,13.29,0,0,1-.53,6.93c-.07.22-.15.44-.23.66s-.2.5-.31.74-.2.46-.31.68l-.09.19h0l-.1.21c0,.08-.07.15-.11.22a19.57,19.57,0,0,1-1.63,2.57c.49.21,1,.43,1.45.66s1,.5,1.55.77.89.46,1.33.7a54.6,54.6,0,0,1,5.09,3.22c.53.38,1,.76,1.55,1.15l.07.06c.59.46,1.18.93,1.75,1.42s.85.72,1.26,1.1c.19.16.38.32.56.5.51.46,1,.94,1.52,1.43h0c.71.69,1.4,1.4,2.08,2.13a83.85,83.85,0,0,1,15.31,24.55c4.45,10.58,6.59,21.72,9.46,32.72.47,1.79.95,3.57,1.47,5.34.73,2.52,1.53,5,2.43,7.51,3.66,10.08,8.1,20,17.77,25.46l.31.16C454.11,216.32,461.15,218.88,461.78,218Z"/><path class="cls-4" d="M445.31,245.8h0c-13.44,12.93-14.05,5.21-20.18,14.91-3.05,1.27-6.12,2.43-9.16,3.49-10.13,1.14-26.12,2.39-29.89,3a180.35,180.35,0,0,1-30.23,2.54c-1.42,0-2.85,0-4.27,0h-.3l-.68,0-1.84-.06c-.54,0-1.09,0-1.64-.07l-1.55-.08-1.52-.09-2-.14-.53,0-1.77-.15q-2.68-.22-5.37-.54-3.06-.36-6.12-.81l-1.81-.27-2.4-.4-2.1-.37q-2.54-.45-5.05-1h0l-1.23-.26c-1.35-.29-2.7-.6-4.05-.91l-1-.24-1.21-.3-2.07-.53q-3.1-.81-6.2-1.71c-1.37-.4-2.74-.82-4.1-1.25l-2.05-.66c-1.27-.42-2.54-.85-3.8-1.29-.77-.26-1.53-.53-2.3-.81h0c.11-.22.23-.43.35-.65s.26-.5.39-.75a63,63,0,0,1,15.51-18.23,94.25,94.25,0,0,1,12.9-8.87,2.58,2.58,0,0,1,.32-.18c2.5-1.44,5.06-2.77,7.65-4,3.69-1.77,7.43-3.36,11-5.42l.07,0,.39-.23a57.64,57.64,0,0,0,8.68-6.18,46.29,46.29,0,0,0,9-10.4,42.8,42.8,0,0,0,2.14-3.79c.28-.55.55-1.1.81-1.67.15-.35.31-.7.46-1.06a50.41,50.41,0,0,0,2.4-7.18h0l.08-.29c.29-1.18.55-2.36.77-3.56,0,0,0,0,0,0,.29-1.59.52-3.2.69-4.81,0-.29.05-.57.08-.86,0,0,0,0,0,0,.15-1.66.23-3.33.26-5a79.31,79.31,0,0,0-2.3-20.06,75.85,75.85,0,0,0-4.1-12.24,0,0,0,0,0,0,0c-.43-1-.89-2-1.36-2.94q-1-2-2.12-3.95c-.07-.12-.14-.25-.22-.37a51.1,51.1,0,0,0-10.57-12.85c-.66-.56-1.33-1.1-2-1.62a38.17,38.17,0,0,0-12.85-6.36,37.43,37.43,0,0,0-5.26-1.07c-.59-.07-1.18-.13-1.77-.17,1.24-.66,2.5-1.3,3.78-1.9.73-.35,1.47-.68,2.21-1,.54-.24,1.09-.47,1.64-.69l.12,0,1.56-.63c.85-.33,1.71-.65,2.58-1l1.18-.41.8-.26h0l.22-.06c.58-.2,1.16-.38,1.75-.55l.48-.14.64-.19.64-.18.72-.2q.57-.17,1.14-.3c.65-.17,1.31-.34,2-.48.45-.11.89-.21,1.34-.3.85-.2,1.69-.37,2.54-.52l1.22-.23c.57-.1,1.14-.2,1.7-.28l1.35-.2c.93-.14,1.87-.26,2.8-.36.48-.32,1-.65,1.43-1a42.16,42.16,0,0,0,15.41-21.44A37.56,37.56,0,0,0,370.65,75a.7.7,0,0,1,.87-.47,12,12,0,0,1,6.57,5.5,14.29,14.29,0,0,1,1.87,7.2c0,.25,0,.49,0,.74s0,.5-.05.75-.06.58-.1.88a19.9,19.9,0,0,1-.63,2.83c-.07.25-.15.49-.23.73h0c-.1.29-.2.58-.31.86s-.23.57-.35.85c-.24.56-.51,1.11-.8,1.65a25.76,25.76,0,0,1-1.64,2.64c.45-.32.89-.65,1.33-1s.69-.54,1-.82l.27-.22a42.2,42.2,0,0,0,3.73-3.47c.36-.37.71-.75,1.05-1.13.76-.84,1.44-1.75,2.17-2.61a2.17,2.17,0,0,1,2.78-.77,6.66,6.66,0,0,1,2.12,2.44,10.79,10.79,0,0,1,1.15,3.11,13.29,13.29,0,0,1-.53,6.93c-.07.22-.15.44-.23.66s-.2.5-.31.74-.2.46-.31.68l-.09.19a2.12,2.12,0,0,1-.11.21c0,.08-.07.15-.11.22a19.57,19.57,0,0,1-1.63,2.57c.49.21,1,.43,1.45.66s1,.5,1.55.77.89.46,1.33.7a54.6,54.6,0,0,1,5.09,3.22c.53.38,1,.76,1.55,1.15l.07.06c.59.46,1.18.93,1.75,1.42s.85.72,1.26,1.1c.19.16.38.32.56.5.51.46,1,.94,1.52,1.43h0l-.45,2.36-.51,2.68c-.23,1.18-.46,2.35-.7,3.52-.73,3.58-1.52,7.13-2.46,10.65h0c-.42,1.58-.87,3.13-1.36,4.69Q398,144.43,397,147q-1.38,3.8-3.05,7.48c-.89,2-1.84,3.9-2.76,5.85h0l-.15.31c-.12.26-.24.51-.37.77h0c-.46,1-.91,2-1.34,3h0c-.15.32-.28.63-.42,1a71.93,71.93,0,0,0-4.11,12.79,2.66,2.66,0,0,0-.07.39,0,0,0,0,0,0,0c-.16.76-.3,1.51-.42,2.28h0l-.09.6q-.28,1.92-.42,3.87c-.06,1-.1,2-.1,2.93s0,2.16.11,3.24c.36,5.24,1.7,10.46,4.87,14.7h0c.21.28.42.55.65.83a19,19,0,0,0,2.84,2.77,25.82,25.82,0,0,0,7.4,4,47.66,47.66,0,0,0,6.81,1.86l.72.14.46.09c3,.56,6.06,1,9,1.76h0q1.22.32,2.4.75c.59.22,1.18.45,1.77.7a44.94,44.94,0,0,1,6.85,3.56A41.23,41.23,0,0,1,440,234.79a42.68,42.68,0,0,1,3.26,5.88A49.33,49.33,0,0,1,445.31,245.8Z"/><ellipse class="cls-21" cx="400.69" cy="187.05" rx="29.9" ry="22.72" transform="translate(187.63 574.53) rotate(-86.22)"/><ellipse class="cls-22" cx="401.59" cy="187.12" rx="29.9" ry="22.72" transform="translate(188.39 575.49) rotate(-86.22)"/><ellipse class="cls-21" cx="335.65" cy="187.08" rx="32.41" ry="26.05" transform="translate(130.31 511.88) rotate(-86.83)"/><ellipse class="cls-22" cx="336.99" cy="187.19" rx="32.41" ry="26.05" transform="translate(131.48 513.33) rotate(-86.83)"/><ellipse class="cls-22" cx="331.61" cy="146.22" rx="15.83" ry="6.93" transform="translate(-26.55 201.59) rotate(-32.58)"/><ellipse class="cls-22" cx="402.1" cy="144.9" rx="5.13" ry="11.73" transform="translate(16.64 329.58) rotate(-45.42)"/><path class="cls-22" d="M392.58,253.07a2.25,2.25,0,0,0-.08-.24c-1.74-1.06-6.82-1.26-11.56-.86-6.22.51-10.11,3.3-10.27,1.34s4.75-3.95,11-4.47c5.48-.46,10.15.39,11.3,1.94a3,3,0,0,1,.79,1.31,9.2,9.2,0,0,1,.45,1.79A1.91,1.91,0,0,1,392.58,253.07Z"/><path class="cls-23" d="M417.43,215c-3.79-2.58-9.44-3.43-13.49-4a114.61,114.61,0,0,0-27.82-.66c-6.76.67-18.93,2-20.86,10.13-.95,4,.18,8.5,2.16,12,3.62,6.47,11.08,9.58,17.93,11.34a49,49,0,0,0,32.2-3.05,25.81,25.81,0,0,0,11.92-10.85C422.11,224.88,422.57,218.46,417.43,215Z"/><path class="cls-24" d="M416.85,217.25c-.12,1.24-5.06,1.78-11,1.21s-10.74-2-10.62-3.27,5.06-1.78,11-1.21S417,216,416.85,217.25Z"/><ellipse class="cls-24" cx="344.95" cy="177.74" rx="8.22" ry="9.59"/><ellipse class="cls-24" cx="335.82" cy="202.39" rx="3.65" ry="5.93"/><ellipse class="cls-24" cx="412.52" cy="178.74" rx="6.65" ry="7.76"/><ellipse class="cls-24" cx="405.13" cy="198.7" rx="2.96" ry="4.8"/><path class="cls-4" d="M744.75,69.86c0,.84,0,1.67-.08,2.5-2,37.42-50,67.35-108.92,67.35-29.13,0-55.61-7.32-75.15-19.27l.07.06-31.33,15.37-2.59,1.27,13.77-33.28c-8.77-10.07-13.77-21.66-13.77-34,0-38.58,48.8-69.86,109-69.86S744.75,31.28,744.75,69.86Z"/><path class="cls-25" d="M744.67,72.36c-2,37.42-50,67.35-108.92,67.35-29.13,0-55.61-7.32-75.15-19.27l.07.06-31.33,15.37,3.78-9.14,27.55-13.51-.07-.06c19.54,11.94,46,19.27,75.15,19.27,57,0,103.73-28,108.57-63.71C744.49,69.92,744.61,71.13,744.67,72.36Z"/><image width="1806" height="1779" transform="translate(624.17 25.24) scale(0.05)" xlink:href="../Course%20icons/Icons/Coin@300x-8.png"/><rect class="cls-26" x="569.62" y="64.93" width="37.55" height="10.31" rx="4.91"/></g></g></g></svg>