<?xml version="1.0" encoding="utf-8"?>
<!-- Generator: Adobe Illustrator 16.0.0, SVG Export Plug-In . SVG Version: 6.00 Build 0)  -->
<!DOCTYPE svg PUBLIC "-//W3C//DTD SVG 1.1//EN" "http://www.w3.org/Graphics/SVG/1.1/DTD/svg11.dtd">
<svg version="1.1" id="Layer_1" xmlns="http://www.w3.org/2000/svg" xmlns:xlink="http://www.w3.org/1999/xlink" x="0px" y="0px"
	 width="360px" height="640px" viewBox="0 0 360 640" enable-background="new 0 0 360 640" xml:space="preserve">
<g opacity="0.2">
	<path opacity="0.2" enable-background="new    " d="M335.893,488.558c0.944,0.201,1.836,0.201,2.729,0.201
		c-1.338-2.265-3.567-2.832-4.996-5.164c-0.143-0.278-0.242-0.557-0.332-0.826c-0.575-1.92-1.089-3.629-1.089-3.629l-0.227-0.758
		h-52.942h-0.008H278l1.82,3.168c0,0.009,0.009,0.009,0.009,0.02c0.128,0.221,0.265,0.422,0.407,0.624
		c0.031,0.048,0.068,0.096,0.099,0.134c0.144,0.191,0.295,0.375,0.446,0.557c0.029,0.039,0.068,0.067,0.099,0.106
		c0.151,0.152,0.302,0.307,0.461,0.451c0.022,0.019,0.045,0.048,0.075,0.066c0.174,0.154,0.355,0.288,0.544,0.413
		c10.302,4.838,21.449-3.091,30.806,5.405c0.446,0.565-2.676,2.832-2.797,5.702c0.046,0.375,0.091,0.759,0.129,1.151l-27.412,2.909
		c0,0.336,0.25,0.586,0.56,0.557l0.56-0.058c0.627,1.393,1.239,2.784,1.836,4.187c0.121,0.277,0.228,0.565,0.295,0.854
		c-1.246,4.522,1.875,6.778,3.711,9.341c0.105,0.288,0.205,0.566,0.31,0.854c0.28,0.777,0.552,1.546,0.817,2.322
		c0.271,0.778,0.393,1.584-0.106,2.545c-0.627,1.344-1.073,1.91-1.519,3.044c-0.446,2.832,2.675,2.265,3.892,3.84
		c0.907,0.595,1.209,1.344,1.437,2.102c0.227,0.758,0.445,1.518,0.664,2.275c0.039,0.595,0.068,1.2-0.037,1.805
		c-1.043,2.438-0.598,5.827,1.42,6.941c0.553,0.527,0.931,1.064,1.384,1.603c0.242,0.971,0.476,1.93,0.703,2.89
		c0.112,0.316,0.204,0.634,0.295,0.95c0.944,2.516,0.944,5.348,1.625,7.334c0.053,0.299,0.105,0.586,0.136,0.884
		c0.71,3.389,1.33,6.575,1.859,9.523c0.105,0.585,0.212,1.161,0.271,1.737c-1.164,2.861-0.718,5.127,1.247,7.65
		c0.098,0.442,0.182,0.885,0.242,1.307c0.62,4.233,0.96,7.114,1.073,8.188c-0.038-1.882,0.067-4.791,0.287-8.438
		c-0.196-0.374-0.332-0.769-0.574-1.152c-0.764-1.872-2.993-2.438-2.547-3.571c0-1.698,2.229-2.831,3.317-4.877
		c0.28-0.536,0.438-1.074,0.598-1.611c0.212-2.603,0.438-5.338,0.688-8.16c0.022-0.27,0.053-0.528,0.098-0.797
		c3.318-3.812,4.21-6.077,0.976-10.618c0.007-0.278,0.038-0.556,0.06-0.825c0.054-0.557,0.106-1.104,0.159-1.661
		c0,0-0.045,0.653-0.128,1.795c-0.023,0.288-0.038,0.605-0.038,0.941c3.174,4.291,2.729,7.123-0.726,10.454
		c-0.054,0.307-0.075,0.615-0.099,0.922c-0.174,2.477-0.354,5.088-0.537,7.688c-0.036,0.288-0.074,0.587-0.136,0.874
		c-3.348,4.166-5.124,6.998-0.71,11.194c-0.03,0.46-0.061,0.912-0.091,1.344c-0.272,3.889-0.453,6.48-0.453,6.48h0.567
		c0,0,0.264-3.802,0.551-7.872c-0.068-0.298-0.128-0.605-0.257-0.894c-0.718-1.555-2.947-2.688-2.947-3.82
		c0-2.267,2.675-3.965,4.157-6.059c0.136-0.229,0.241-0.488,0.34-0.776c0.582-1.738,1.563-4.656,2.804-8.343
		c0.083-0.249,0.166-0.499,0.265-0.748c2.69-3.889,6.703-4.455,3.515-10.34c0.06-0.316,0.158-0.634,0.264-0.95
		c0.106-0.317,0.212-0.644,0.325-0.96c0.083-0.26,0.174-0.519,0.257-0.777c0.56-1.613-0.777-2.746-0.777-3.879
		c0-2.832,3.566-3.965,4.322-6.672c0.09-0.278,0.189-0.558,0.279-0.835c0.56-1.661,1.119-3.331,1.678-5.002
		c0.137-0.412,0.28-0.835,0.416-1.248c-0.461-3.235-4.028-2.668-4.028-3.802c0-4.53,5.797-3.398,7.687-7.104
		c0.128-0.384,0.257-0.768,0.385-1.152c0.387-1.143,0.765-2.266,1.126-3.359c0.023-0.24,0.054-0.48,0.068-0.71
		c0.091-2.392,0.537-4.091,1.92-5.501c0.121-0.222,0.219-0.433,0.317-0.644c0.778-2.304,1.467-4.358,2.041-6.077
		c0.121-0.346,0.233-0.682,0.378-1.008c1.67-1.613,3.008-3.312,4.58-4.407C335.847,488.644,335.893,488.558,335.893,488.558z
		 M312.894,487.089c4.331-0.019,8.79-0.019,13.242,1.114c-4.46-0.567-8.919,1.699-13.249-0.145
		C312.902,487.569,312.894,487.089,312.894,487.089z M308.881,516.388c-4.134,2.947,0.325,5.213,1.844,8.17
		c0.076,0.7,0.054,1.411,0.038,2.121c-0.022,0.711-0.045,1.432-0.067,2.142c-0.038,1.065-0.092,2.131-1.301,3.282
		c-1.526,0.816-2.863,2.516-3.31,3.648c-0.892,3.399,3.567,2.266,3.975,5.559c-0.015,0.249-0.029,0.499-0.053,0.748
		c-0.015,0.25-0.03,0.5-0.038,0.74c2.352,4.281,1.905,6.547-0.952,10.56c-0.053,0.461-0.105,0.911-0.158,1.354
		c-0.294,2.496-0.612,4.694-0.944,6.528c-0.068,0.365-0.136,0.72-0.204,1.046c0.151,1.21-0.295,1.775-1.187,1.775
		c0.445-0.565,0.892-1.132,0.884-1.535c0.022-0.336,0.053-0.721,0.083-1.143c0.121-1.709,0.288-4.118,0.483-6.901
		c0.023-0.279,0.038-0.558,0.062-0.846c2.947-3.725,4.285-6.557,0.786-11.251c0.015-0.327,0.029-0.643,0.021-0.97
		c-0.007-0.643-0.06-1.277-0.211-1.901c-1.655-2.063-1.21-4.896,0.446-7.248c0.536-1.151,0.612-2.208,0.68-3.177
		c0.091-1.296,0.174-2.448,0.242-3.408s0.007-1.709-0.318-2.179c-1.813-1.335-4.488-3.6-1.965-5.904
		C308.065,517.194,308.465,516.791,308.881,516.388z"/>
</g>
<path fill="#D5CDC3" d="M313.311,375.01h-0.559v96.325h0.559V375.01z"/>
<path fill="#ED5167" d="M335.811,467.956l-0.271,0.749l-3.559,9.677h-53.979l2.057-3.168c1.321-2.035,3.25-3.283,5.319-3.447
	L335.811,467.956z"/>
<path fill="#C53546" d="M335.54,468.705l-3.56,9.677c-28.932,0-53.479,0-52.942,0l1.61-2.487c1.322-2.034,3.25-3.282,5.319-3.445
	L335.54,468.705z"/>
<path fill="#FF8311" d="M313.303,392.605l20.385,76.781l-23.785-2.381C314.596,451.377,315.563,404.529,313.303,392.605z"/>
<path fill="#545451" d="M334.397,469.876c-0.25-0.028-24.827-2.534-25.198-2.572c0.022-0.364,0.271-0.643,0.566-0.614
	c3.28,0.336,20.867,2.132,24.147,2.467C334.2,469.185,334.42,469.502,334.397,469.876z"/>
<path fill="#FFB672" d="M315.405,460.785l-30.224-3.283c0.061-0.115,0.113-0.221,0.174-0.336
	c18.562-35.521,26.392-77.309,27.261-82.166c-1.247,13.968,1.36,85.392,2.229,85.353
	C315.08,460.353,315.375,460.785,315.405,460.785z"/>
<path fill="#545451" d="M315.148,460.363l-30.353-3.245c-0.302-0.029-0.567,0.221-0.597,0.557l31.169,3.331l0.021-0.307
	C315.405,460.535,315.3,460.382,315.148,460.363z"/>
<path opacity="0.35" enable-background="new    " d="M332.257,477.624l-0.279,0.758h-52.942c-0.008,0-0.008,0-0.008,0H278
	l2.057-3.168c0.808-1.248,1.851-2.198,3.008-2.784c0.316,0.135,0.694,0.288,1.133,0.442
	C289.004,474.59,301.331,477.192,332.257,477.624z"/>
<path fill="#666666" d="M32.48,234.96c0-4.128-6.016-2.336-6.016-5.216c0-1.2,0.944-1.824,2.144-1.792
	c1.36,0.016,2.064,0.864,2.16,1.616h1.6c-0.176-1.696-1.568-2.864-3.696-2.864c-2.208,0-3.696,1.248-3.696,3.088
	c0,4.144,6.032,2.224,6.032,5.232c0,1.056-0.832,1.856-2.24,1.856c-1.552,0-2.208-0.928-2.304-1.856h-1.552
	c0.032,1.84,1.616,3.088,3.856,3.088C31.184,238.112,32.48,236.544,32.48,234.96z M36.079,230.848v-1.616h-1.456v12.928h1.456
	v-5.776c0.544,0.896,1.68,1.76,3.28,1.76c2.352,0,4.16-1.84,4.16-4.56c0-2.736-1.808-4.496-4.16-4.496
	C37.759,229.088,36.606,229.92,36.079,230.848z M42.031,233.584c0,2.064-1.36,3.28-2.976,3.28c-1.584,0-2.976-1.2-2.976-3.264
	c0-2.032,1.392-3.248,2.976-3.248C40.67,230.352,42.031,231.52,42.031,233.584z M49.163,230.32c1.504,0,2.784,0.944,2.768,2.656
	h-5.536C46.555,231.264,47.739,230.32,49.163,230.32z M53.259,235.296h-1.568c-0.32,0.944-1.152,1.616-2.464,1.616
	c-1.488,0-2.736-0.976-2.848-2.752h7.008c0.032-0.304,0.048-0.56,0.048-0.88c0-2.4-1.664-4.192-4.208-4.192
	c-2.56,0-4.336,1.744-4.336,4.512c0,2.784,1.84,4.544,4.336,4.544C51.403,238.144,52.811,236.896,53.259,235.296z M55.357,238h1.456
	v-11.84h-1.456V238z M59.294,238h1.456v-11.84h-1.456V238z M63.232,238h1.456v-8.768h-1.456V238z M63.984,227.808
	c0.528,0,0.96-0.432,0.96-0.992s-0.432-0.992-0.96-0.992c-0.56,0-0.992,0.432-0.992,0.992S63.424,227.808,63.984,227.808z
	 M73.585,238h1.44v-5.168c0-2.512-1.552-3.76-3.584-3.76c-1.184,0-2.24,0.496-2.816,1.408v-1.248h-1.456V238h1.456v-4.848
	c0-1.888,1.024-2.816,2.512-2.816c1.472,0,2.448,0.912,2.448,2.704V238z M76.86,233.584c0,2.72,1.808,4.56,4.16,4.56
	c1.6,0,2.736-0.848,3.264-1.792v1.84c0,1.872-1.168,2.864-2.72,2.864c-1.44,0-2.48-0.72-2.8-1.776h-1.44
	c0.288,1.872,1.936,3.04,4.24,3.04c2.576,0,4.192-1.712,4.192-4.128v-8.96h-1.472v1.6c-0.512-0.944-1.664-1.744-3.264-1.744
	C78.668,229.088,76.86,230.848,76.86,233.584z M84.284,233.6c0,2.064-1.376,3.264-2.976,3.264c-1.6,0-2.96-1.216-2.96-3.28
	s1.36-3.232,2.96-3.232C82.908,230.352,84.284,231.568,84.284,233.6z"/>
<path d="M42.76,270.344V290h-4.788v-8.092h-7.448V290h-4.788v-19.656h4.788v7.7h7.448v-7.7H42.76z M60.944,281.936
	c0,0.448-0.028,0.915-0.084,1.4H50.024c0.075,0.971,0.383,1.717,0.924,2.24c0.56,0.504,1.241,0.756,2.044,0.756
	c1.194,0,2.025-0.504,2.492-1.512h5.096c-0.261,1.027-0.737,1.951-1.428,2.772c-0.672,0.821-1.521,1.465-2.548,1.932
	c-1.027,0.467-2.175,0.7-3.444,0.7c-1.531,0-2.894-0.327-4.088-0.98c-1.194-0.653-2.128-1.587-2.8-2.8
	c-0.672-1.213-1.008-2.632-1.008-4.256s0.327-3.043,0.98-4.256c0.672-1.213,1.605-2.147,2.8-2.8c1.195-0.653,2.567-0.98,4.116-0.98
	c1.512,0,2.856,0.317,4.032,0.952c1.176,0.635,2.091,1.54,2.744,2.716C60.608,278.996,60.944,280.368,60.944,281.936z
	 M56.044,280.676c0-0.821-0.28-1.475-0.84-1.96c-0.56-0.485-1.26-0.728-2.1-0.728c-0.803,0-1.484,0.233-2.044,0.7
	c-0.542,0.467-0.877,1.129-1.008,1.988H56.044z M62.519,282.16c0-1.605,0.298-3.015,0.896-4.228c0.616-1.213,1.446-2.147,2.492-2.8
	c1.045-0.653,2.212-0.98,3.5-0.98c1.102,0,2.063,0.224,2.884,0.672c0.84,0.448,1.484,1.036,1.932,1.764v-2.212h4.788V290h-4.788
	v-2.212c-0.466,0.728-1.12,1.316-1.96,1.764c-0.821,0.448-1.783,0.672-2.884,0.672c-1.27,0-2.427-0.327-3.472-0.98
	c-1.045-0.672-1.876-1.615-2.492-2.828C62.817,285.184,62.519,283.765,62.519,282.16z M74.222,282.188
	c0-1.195-0.336-2.137-1.008-2.828c-0.653-0.691-1.456-1.036-2.408-1.036c-0.952,0-1.764,0.345-2.436,1.036
	c-0.654,0.672-0.98,1.605-0.98,2.8c0,1.195,0.326,2.147,0.98,2.856c0.672,0.691,1.484,1.036,2.436,1.036
	c0.952,0,1.754-0.345,2.408-1.036C73.886,284.325,74.222,283.383,74.222,282.188z M87.262,276.98c0.56-0.859,1.26-1.531,2.1-2.016
	c0.84-0.504,1.773-0.756,2.8-0.756v5.068h-1.316c-1.195,0-2.091,0.261-2.688,0.784c-0.597,0.504-0.896,1.4-0.896,2.688V290h-4.788
	v-15.624h4.788V276.98z M109.092,285.94V290h-2.436c-1.736,0-3.089-0.42-4.06-1.26c-0.97-0.859-1.456-2.249-1.456-4.172v-6.216
	h-1.904v-3.976h1.904v-3.808h4.788v3.808h3.136v3.976h-3.136v6.272c0,0.467,0.112,0.803,0.336,1.008
	c0.224,0.205,0.598,0.308,1.12,0.308H109.092z M121.363,274.208c1.792,0,3.23,0.597,4.312,1.792c1.083,1.176,1.624,2.8,1.624,4.872
	V290h-4.76v-8.484c0-1.045-0.27-1.857-0.812-2.436c-0.541-0.579-1.269-0.868-2.184-0.868c-0.914,0-1.642,0.289-2.184,0.868
	c-0.541,0.579-0.812,1.391-0.812,2.436V290h-4.788v-20.72h4.788v7.196c0.486-0.691,1.148-1.241,1.988-1.652
	C119.375,274.413,120.318,274.208,121.363,274.208z M145.355,281.936c0,0.448-0.028,0.915-0.084,1.4h-10.836
	c0.074,0.971,0.382,1.717,0.924,2.24c0.56,0.504,1.241,0.756,2.044,0.756c1.194,0,2.025-0.504,2.492-1.512h5.096
	c-0.262,1.027-0.738,1.951-1.428,2.772c-0.672,0.821-1.522,1.465-2.548,1.932c-1.027,0.467-2.175,0.7-3.444,0.7
	c-1.531,0-2.894-0.327-4.088-0.98c-1.195-0.653-2.128-1.587-2.8-2.8c-0.672-1.213-1.008-2.632-1.008-4.256s0.326-3.043,0.98-4.256
	c0.672-1.213,1.605-2.147,2.8-2.8c1.194-0.653,2.566-0.98,4.116-0.98c1.512,0,2.856,0.317,4.032,0.952
	c1.176,0.635,2.09,1.54,2.744,2.716C145.019,278.996,145.355,280.368,145.355,281.936z M140.455,280.676
	c0-0.821-0.28-1.475-0.84-1.96c-0.56-0.485-1.26-0.728-2.1-0.728c-0.803,0-1.484,0.233-2.044,0.7
	c-0.542,0.467-0.878,1.129-1.008,1.988H140.455z M152.862,282.16c0-1.605,0.299-3.015,0.896-4.228
	c0.616-1.213,1.447-2.147,2.492-2.8c1.045-0.653,2.212-0.98,3.5-0.98c1.101,0,2.063,0.224,2.884,0.672
	c0.84,0.448,1.484,1.036,1.932,1.764v-2.212h4.788V290h-4.788v-2.212c-0.467,0.728-1.12,1.316-1.96,1.764
	c-0.821,0.448-1.783,0.672-2.884,0.672c-1.269,0-2.427-0.327-3.472-0.98c-1.045-0.672-1.876-1.615-2.492-2.828
	C153.161,285.184,152.862,283.765,152.862,282.16z M164.566,282.188c0-1.195-0.336-2.137-1.008-2.828
	c-0.653-0.691-1.456-1.036-2.408-1.036c-0.952,0-1.764,0.345-2.436,1.036c-0.653,0.672-0.98,1.605-0.98,2.8
	c0,1.195,0.327,2.147,0.98,2.856c0.672,0.691,1.484,1.036,2.436,1.036c0.952,0,1.755-0.345,2.408-1.036
	C164.23,284.325,164.566,283.383,164.566,282.188z M188.246,274.376V290h-4.788v-2.128c-0.485,0.691-1.147,1.251-1.987,1.68
	c-0.822,0.411-1.737,0.616-2.745,0.616c-1.195,0-2.249-0.261-3.164-0.784c-0.915-0.541-1.624-1.316-2.128-2.324
	c-0.504-1.008-0.756-2.193-0.756-3.556v-9.128h4.76v8.484c0,1.045,0.271,1.857,0.812,2.436s1.269,0.868,2.184,0.868
	c0.933,0,1.671-0.289,2.212-0.868s0.812-1.391,0.812-2.436v-8.484H188.246z M190.732,282.16c0-1.605,0.3-3.015,0.896-4.228
	c0.616-1.213,1.447-2.147,2.492-2.8c1.046-0.653,2.212-0.98,3.5-0.98c1.027,0,1.96,0.215,2.8,0.644
	c0.858,0.429,1.531,1.008,2.017,1.736v-7.252h4.787V290h-4.787v-2.24c-0.449,0.747-1.092,1.344-1.933,1.792
	c-0.821,0.448-1.782,0.672-2.884,0.672c-1.288,0-2.454-0.327-3.5-0.98c-1.045-0.672-1.876-1.615-2.492-2.828
	C191.032,285.184,190.732,283.765,190.732,282.16z M202.438,282.188c0-1.195-0.336-2.137-1.008-2.828
	c-0.654-0.691-1.457-1.036-2.408-1.036c-0.953,0-1.765,0.345-2.437,1.036c-0.653,0.672-0.979,1.605-0.979,2.8
	c0,1.195,0.326,2.147,0.979,2.856c0.672,0.691,1.483,1.036,2.437,1.036c0.951,0,1.754-0.345,2.408-1.036
	C202.102,284.325,202.438,283.383,202.438,282.188z M213.098,272.752c-0.841,0-1.531-0.243-2.072-0.728
	c-0.523-0.504-0.784-1.12-0.784-1.848c0-0.747,0.261-1.363,0.784-1.848c0.541-0.504,1.231-0.756,2.072-0.756
	c0.82,0,1.492,0.252,2.016,0.756c0.541,0.485,0.812,1.101,0.812,1.848c0,0.728-0.271,1.344-0.812,1.848
	C214.59,272.509,213.918,272.752,213.098,272.752z M215.477,274.376V290h-4.787v-15.624H215.477z M226.059,290.224
	c-1.531,0-2.912-0.327-4.144-0.98c-1.213-0.653-2.175-1.587-2.884-2.8c-0.691-1.213-1.036-2.632-1.036-4.256
	c0-1.605,0.354-3.015,1.063-4.228c0.709-1.232,1.68-2.175,2.912-2.828c1.232-0.653,2.613-0.98,4.145-0.98s2.912,0.327,4.144,0.98
	c1.232,0.653,2.203,1.596,2.912,2.828c0.709,1.213,1.063,2.623,1.063,4.228s-0.363,3.024-1.092,4.256
	c-0.709,1.213-1.688,2.147-2.939,2.8C228.971,289.897,227.59,290.224,226.059,290.224z M226.059,286.08
	c0.916,0,1.689-0.336,2.324-1.008c0.653-0.672,0.98-1.633,0.98-2.884s-0.317-2.212-0.952-2.884
	c-0.616-0.672-1.382-1.008-2.296-1.008c-0.934,0-1.708,0.336-2.324,1.008c-0.616,0.653-0.924,1.615-0.924,2.884
	c0,1.251,0.299,2.212,0.896,2.884C224.379,285.744,225.145,286.08,226.059,286.08z M241.757,282.16c0-1.605,0.298-3.015,0.896-4.228
	c0.617-1.213,1.447-2.147,2.492-2.8c1.045-0.653,2.213-0.98,3.5-0.98c1.102,0,2.063,0.224,2.885,0.672
	c0.84,0.448,1.484,1.036,1.932,1.764v-2.212h4.788V290h-4.788v-2.212c-0.467,0.728-1.12,1.316-1.96,1.764
	c-0.821,0.448-1.783,0.672-2.884,0.672c-1.27,0-2.428-0.327-3.473-0.98c-1.045-0.672-1.875-1.615-2.492-2.828
	C242.055,285.184,241.757,283.765,241.757,282.16z M253.461,282.188c0-1.195-0.336-2.137-1.008-2.828
	c-0.654-0.691-1.456-1.036-2.408-1.036s-1.764,0.345-2.436,1.036c-0.654,0.672-0.98,1.605-0.98,2.8c0,1.195,0.326,2.147,0.98,2.856
	c0.672,0.691,1.483,1.036,2.436,1.036s1.754-0.345,2.408-1.036C253.125,284.325,253.461,283.383,253.461,282.188z M271.232,274.208
	c1.83,0,3.285,0.597,4.369,1.792c1.101,1.176,1.651,2.8,1.651,4.872V290h-4.76v-8.484c0-1.045-0.271-1.857-0.812-2.436
	c-0.543-0.579-1.271-0.868-2.185-0.868c-0.915,0-1.644,0.289-2.185,0.868s-0.812,1.391-0.812,2.436V290h-4.788v-15.624h4.788v2.072
	c0.485-0.691,1.138-1.232,1.96-1.624C269.282,274.413,270.206,274.208,271.232,274.208z M279.628,282.16
	c0-1.605,0.298-3.015,0.896-4.228c0.617-1.213,1.447-2.147,2.492-2.8c1.045-0.653,2.213-0.98,3.5-0.98
	c1.026,0,1.961,0.215,2.801,0.644c0.857,0.429,1.529,1.008,2.016,1.736v-7.252h4.788V290h-4.788v-2.24
	c-0.448,0.747-1.092,1.344-1.932,1.792c-0.822,0.448-1.783,0.672-2.885,0.672c-1.287,0-2.455-0.327-3.5-0.98
	c-1.045-0.672-1.875-1.615-2.492-2.828C279.926,285.184,279.628,283.765,279.628,282.16z M291.332,282.188
	c0-1.195-0.336-2.137-1.008-2.828c-0.654-0.691-1.456-1.036-2.408-1.036s-1.764,0.345-2.436,1.036c-0.654,0.672-0.98,1.605-0.98,2.8
	c0,1.195,0.326,2.147,0.98,2.856c0.672,0.691,1.483,1.036,2.436,1.036s1.754-0.345,2.408-1.036
	C290.996,284.325,291.332,283.383,291.332,282.188z M40.464,321.936c0,0.448-0.028,0.916-0.084,1.4H29.544
	c0.075,0.971,0.383,1.717,0.924,2.24c0.56,0.504,1.242,0.756,2.044,0.756c1.194,0,2.025-0.504,2.492-1.512H40.1
	c-0.261,1.027-0.737,1.951-1.428,2.771c-0.672,0.821-1.521,1.465-2.548,1.932c-1.027,0.468-2.175,0.701-3.444,0.701
	c-1.531,0-2.894-0.328-4.088-0.98c-1.194-0.653-2.128-1.587-2.8-2.801c-0.672-1.213-1.008-2.631-1.008-4.256
	c0-1.623,0.327-3.042,0.98-4.255c0.672-1.213,1.605-2.147,2.8-2.8c1.195-0.653,2.567-0.98,4.116-0.98
	c1.512,0,2.856,0.317,4.032,0.952c1.176,0.635,2.091,1.54,2.744,2.716C40.128,318.996,40.464,320.368,40.464,321.936z
	 M35.564,320.676c0-0.821-0.28-1.475-0.84-1.96c-0.56-0.485-1.26-0.728-2.1-0.728c-0.803,0-1.484,0.233-2.044,0.7
	c-0.542,0.467-0.877,1.129-1.008,1.988H35.564z M52.51,314.208c1.83,0,3.286,0.597,4.368,1.792c1.101,1.176,1.652,2.8,1.652,4.872
	V330h-4.76v-8.484c0-1.044-0.271-1.856-0.812-2.436c-0.542-0.579-1.27-0.868-2.184-0.868s-1.643,0.289-2.184,0.868
	c-0.541,0.579-0.812,1.391-0.812,2.436V330H42.99v-15.624h4.788v2.072c0.485-0.691,1.139-1.232,1.96-1.624
	C50.559,314.413,51.483,314.208,52.51,314.208z M70.565,325.939V330h-2.436c-1.736,0-3.089-0.42-4.06-1.26
	c-0.971-0.859-1.456-2.249-1.456-4.172v-6.216h-1.904v-3.976h1.904v-3.808h4.788v3.808h3.136v3.976h-3.136v6.272
	c0,0.467,0.112,0.803,0.336,1.008c0.224,0.205,0.597,0.308,1.12,0.308H70.565z M87.96,321.936c0,0.448-0.028,0.916-0.084,1.4H77.04
	c0.075,0.971,0.383,1.717,0.924,2.24c0.56,0.504,1.242,0.756,2.044,0.756c1.194,0,2.025-0.504,2.492-1.512h5.096
	c-0.261,1.027-0.737,1.951-1.428,2.771c-0.672,0.821-1.521,1.465-2.548,1.932c-1.027,0.468-2.175,0.701-3.444,0.701
	c-1.531,0-2.894-0.328-4.088-0.98c-1.194-0.653-2.128-1.587-2.8-2.801c-0.672-1.213-1.008-2.631-1.008-4.256
	c0-1.623,0.327-3.042,0.98-4.255c0.672-1.213,1.605-2.147,2.8-2.8c1.195-0.653,2.567-0.98,4.116-0.98
	c1.512,0,2.856,0.317,4.032,0.952c1.176,0.635,2.091,1.54,2.744,2.716C87.624,318.996,87.96,320.368,87.96,321.936z M83.06,320.676
	c0-0.821-0.28-1.475-0.84-1.96c-0.56-0.485-1.26-0.728-2.1-0.728c-0.803,0-1.484,0.233-2.044,0.7
	c-0.542,0.467-0.877,1.129-1.008,1.988H83.06z M95.274,316.98c0.56-0.859,1.26-1.531,2.1-2.016c0.84-0.504,1.773-0.756,2.8-0.756
	v5.068h-1.316c-1.195,0-2.091,0.261-2.688,0.784c-0.597,0.504-0.896,1.4-0.896,2.688V330h-4.788v-15.624h4.788V316.98z
	 M117.104,325.939V330h-2.436c-1.736,0-3.089-0.42-4.06-1.26c-0.971-0.859-1.456-2.249-1.456-4.172v-6.216h-1.904v-3.976h1.904
	v-3.808h4.788v3.808h3.136v3.976h-3.136v6.272c0,0.467,0.112,0.803,0.336,1.008s0.597,0.308,1.12,0.308H117.104z M129.375,314.208
	c1.792,0,3.229,0.597,4.312,1.792c1.083,1.176,1.624,2.8,1.624,4.872V330h-4.76v-8.484c0-1.044-0.271-1.856-0.812-2.436
	c-0.541-0.579-1.269-0.868-2.184-0.868s-1.643,0.289-2.184,0.868s-0.812,1.391-0.812,2.436V330h-4.788v-20.72h4.788v7.196
	c0.485-0.691,1.148-1.241,1.988-1.652C127.387,314.413,128.33,314.208,129.375,314.208z M153.366,321.936
	c0,0.448-0.028,0.916-0.084,1.4h-10.836c0.075,0.971,0.383,1.717,0.924,2.24c0.56,0.504,1.242,0.756,2.044,0.756
	c1.195,0,2.026-0.504,2.492-1.512h5.096c-0.261,1.027-0.737,1.951-1.428,2.771c-0.672,0.821-1.521,1.465-2.548,1.932
	c-1.026,0.468-2.174,0.701-3.444,0.701c-1.53,0-2.893-0.328-4.088-0.98c-1.194-0.653-2.128-1.587-2.8-2.801
	c-0.672-1.213-1.008-2.631-1.008-4.256c0-1.623,0.327-3.042,0.98-4.255c0.672-1.213,1.606-2.147,2.8-2.8
	c1.195-0.653,2.567-0.98,4.116-0.98c1.512,0,2.856,0.317,4.032,0.952c1.176,0.635,2.091,1.54,2.744,2.716
	C153.03,318.996,153.366,320.368,153.366,321.936z M148.466,320.676c0-0.821-0.28-1.475-0.84-1.96c-0.56-0.485-1.26-0.728-2.1-0.728
	c-0.802,0-1.484,0.233-2.044,0.7c-0.541,0.467-0.877,1.129-1.008,1.988H148.466z M160.874,322.188c0-1.623,0.327-3.042,0.98-4.255
	c0.672-1.213,1.596-2.147,2.772-2.8c1.195-0.653,2.557-0.98,4.088-0.98c1.96,0,3.593,0.513,4.9,1.54
	c1.325,1.027,2.193,2.473,2.604,4.34h-5.096c-0.429-1.195-1.26-1.792-2.492-1.792c-0.877,0-1.577,0.345-2.1,1.036
	c-0.523,0.672-0.784,1.643-0.784,2.912c0,1.27,0.261,2.25,0.784,2.94c0.523,0.672,1.223,1.008,2.1,1.008
	c1.232,0,2.063-0.597,2.492-1.792h5.096c-0.411,1.829-1.279,3.268-2.604,4.313c-1.325,1.045-2.959,1.568-4.9,1.568
	c-1.531,0-2.893-0.328-4.088-0.98c-1.176-0.653-2.1-1.587-2.772-2.801C161.201,325.23,160.874,323.813,160.874,322.188z
	 M185.891,330.225c-1.531,0-2.912-0.328-4.144-0.98c-1.213-0.653-2.175-1.587-2.884-2.801c-0.691-1.213-1.036-2.631-1.036-4.256
	c0-1.604,0.355-3.015,1.064-4.228c0.709-1.232,1.679-2.175,2.912-2.828c1.232-0.653,2.613-0.98,4.145-0.98s2.912,0.327,4.144,0.98
	c1.232,0.653,2.203,1.596,2.912,2.828c0.709,1.213,1.063,2.623,1.063,4.228c0,1.605-0.363,3.024-1.092,4.256
	c-0.709,1.214-1.688,2.147-2.939,2.801C188.803,329.896,187.422,330.225,185.891,330.225z M185.891,326.08
	c0.916,0,1.689-0.336,2.324-1.008c0.653-0.672,0.98-1.633,0.98-2.885c0-1.25-0.317-2.211-0.952-2.883
	c-0.616-0.672-1.382-1.008-2.296-1.008c-0.934,0-1.709,0.336-2.324,1.008c-0.616,0.653-0.924,1.615-0.924,2.883
	c0,1.252,0.299,2.213,0.896,2.885C184.211,325.744,184.977,326.08,185.891,326.08z M201.395,316.98
	c0.561-0.859,1.26-1.531,2.101-2.016c0.84-0.504,1.772-0.756,2.8-0.756v5.068h-1.316c-1.194,0-2.09,0.261-2.688,0.784
	c-0.598,0.504-0.896,1.4-0.896,2.688V330h-4.787v-15.624h4.787V316.98z M213.372,316.98c0.56-0.859,1.26-1.531,2.101-2.016
	c0.84-0.504,1.772-0.756,2.799-0.756v5.068h-1.315c-1.194,0-2.091,0.261-2.688,0.784c-0.598,0.504-0.896,1.4-0.896,2.688V330h-4.788
	v-15.624h4.788V316.98z M235.288,321.936c0,0.448-0.028,0.916-0.084,1.4h-10.836c0.075,0.971,0.383,1.717,0.924,2.24
	c0.56,0.504,1.242,0.756,2.044,0.756c1.195,0,2.025-0.504,2.492-1.512h5.096c-0.261,1.027-0.736,1.951-1.428,2.771
	c-0.672,0.821-1.521,1.465-2.548,1.932c-1.026,0.468-2.175,0.701-3.444,0.701c-1.529,0-2.893-0.328-4.088-0.98
	c-1.193-0.653-2.128-1.587-2.8-2.801c-0.673-1.213-1.009-2.631-1.009-4.256c0-1.623,0.328-3.042,0.98-4.255
	c0.672-1.213,1.605-2.147,2.801-2.8c1.194-0.653,2.566-0.98,4.115-0.98c1.512,0,2.855,0.317,4.032,0.952
	c1.176,0.635,2.091,1.54,2.743,2.716C234.952,318.996,235.288,320.368,235.288,321.936z M230.389,320.676
	c0-0.821-0.281-1.475-0.841-1.96c-0.56-0.485-1.26-0.728-2.1-0.728c-0.802,0-1.484,0.233-2.044,0.7
	c-0.541,0.467-0.877,1.129-1.008,1.988H230.389z M236.861,322.188c0-1.623,0.328-3.042,0.98-4.255
	c0.672-1.213,1.596-2.147,2.771-2.8c1.195-0.653,2.558-0.98,4.089-0.98c1.96,0,3.593,0.513,4.899,1.54
	c1.325,1.027,2.193,2.473,2.604,4.34h-5.097c-0.428-1.195-1.26-1.792-2.491-1.792c-0.877,0-1.577,0.345-2.101,1.036
	c-0.522,0.672-0.783,1.643-0.783,2.912c0,1.27,0.261,2.25,0.783,2.94c0.523,0.672,1.224,1.008,2.101,1.008
	c1.231,0,2.063-0.597,2.491-1.792h5.097c-0.411,1.829-1.279,3.268-2.604,4.313c-1.324,1.045-2.959,1.568-4.899,1.568
	c-1.531,0-2.894-0.328-4.089-0.98c-1.176-0.653-2.1-1.587-2.771-2.801C237.189,325.23,236.861,323.813,236.861,322.188z
	 M263.475,325.939V330h-2.436c-1.736,0-3.089-0.42-4.061-1.26c-0.97-0.859-1.455-2.249-1.455-4.172v-6.216h-1.904v-3.976h1.904
	v-3.808h4.787v3.808h3.137v3.976h-3.137v6.272c0,0.467,0.112,0.803,0.336,1.008c0.225,0.205,0.599,0.308,1.121,0.308H263.475z
	 M32.092,370.225c-1.362,0-2.576-0.233-3.64-0.701c-1.064-0.467-1.904-1.101-2.52-1.903c-0.616-0.821-0.961-1.736-1.036-2.744h4.732
	c0.056,0.541,0.308,0.979,0.756,1.315c0.448,0.336,0.999,0.504,1.652,0.504c0.597,0,1.055-0.111,1.372-0.336
	c0.336-0.242,0.504-0.551,0.504-0.924c0-0.447-0.233-0.774-0.7-0.979c-0.467-0.224-1.223-0.467-2.268-0.728
	c-1.12-0.262-2.053-0.533-2.8-0.813c-0.747-0.299-1.391-0.756-1.932-1.372c-0.541-0.635-0.812-1.483-0.812-2.548
	c0-0.896,0.243-1.708,0.728-2.436c0.504-0.748,1.232-1.336,2.184-1.765c0.971-0.429,2.119-0.644,3.444-0.644
	c1.96,0,3.5,0.484,4.62,1.455c1.139,0.972,1.792,2.26,1.96,3.865h-4.424c-0.075-0.541-0.317-0.972-0.728-1.289
	c-0.392-0.316-0.915-0.476-1.568-0.476c-0.56,0-0.99,0.112-1.288,0.336c-0.299,0.205-0.448,0.495-0.448,0.868
	c0,0.447,0.233,0.783,0.7,1.008c0.485,0.225,1.232,0.448,2.24,0.672c1.158,0.299,2.1,0.598,2.828,0.896
	c0.728,0.279,1.363,0.746,1.904,1.4c0.56,0.635,0.85,1.492,0.868,2.575c0,0.915-0.261,1.736-0.784,2.464
	c-0.504,0.709-1.242,1.27-2.212,1.68C34.472,370.02,33.361,370.225,32.092,370.225z M46.137,356.588
	c0.467-0.729,1.111-1.316,1.932-1.764c0.821-0.448,1.783-0.672,2.884-0.672c1.288,0,2.455,0.326,3.5,0.979s1.867,1.587,2.464,2.8
	c0.616,1.213,0.924,2.623,0.924,4.229s-0.308,3.023-0.924,4.256c-0.598,1.213-1.419,2.156-2.464,2.828
	c-1.045,0.652-2.212,0.98-3.5,0.98c-1.083,0-2.044-0.225-2.884-0.673c-0.821-0.448-1.465-1.026-1.932-1.735v9.632h-4.788v-23.072
	h4.788V356.588z M52.969,362.16c0-1.195-0.336-2.128-1.008-2.801c-0.653-0.69-1.465-1.035-2.436-1.035
	c-0.952,0-1.764,0.345-2.436,1.035c-0.653,0.691-0.98,1.634-0.98,2.828c0,1.195,0.327,2.138,0.98,2.828
	c0.672,0.691,1.484,1.036,2.436,1.036s1.764-0.345,2.436-1.036C52.633,364.307,52.969,363.355,52.969,362.16z M75.081,361.936
	c0,0.448-0.028,0.916-0.084,1.4H64.161c0.075,0.971,0.383,1.717,0.924,2.24c0.56,0.504,1.242,0.756,2.044,0.756
	c1.194,0,2.025-0.504,2.492-1.512h5.096c-0.261,1.027-0.737,1.951-1.428,2.771c-0.672,0.821-1.521,1.465-2.548,1.932
	c-1.027,0.468-2.175,0.701-3.444,0.701c-1.531,0-2.894-0.328-4.088-0.98c-1.194-0.653-2.128-1.587-2.8-2.801
	c-0.672-1.213-1.008-2.631-1.008-4.256c0-1.623,0.327-3.043,0.98-4.256c0.672-1.213,1.605-2.146,2.8-2.8s2.567-0.979,4.116-0.979
	c1.512,0,2.856,0.316,4.032,0.951c1.176,0.636,2.091,1.541,2.744,2.717C74.745,358.996,75.081,360.368,75.081,361.936z
	 M70.181,360.676c0-0.82-0.28-1.475-0.84-1.96s-1.26-0.728-2.1-0.728c-0.803,0-1.484,0.232-2.044,0.699
	c-0.542,0.467-0.877,1.129-1.008,1.988H70.181z M82.395,349.279V370h-4.788v-20.721H82.395z M90.653,349.279V370h-4.788v-20.721
	H90.653z M96.531,352.752c-0.84,0-1.531-0.243-2.072-0.729c-0.522-0.504-0.784-1.119-0.784-1.848c0-0.746,0.261-1.363,0.784-1.848
	c0.542-0.504,1.232-0.756,2.072-0.756c0.821,0,1.493,0.252,2.016,0.756c0.541,0.484,0.812,1.102,0.812,1.848
	c0,0.729-0.271,1.344-0.812,1.848C98.024,352.509,97.352,352.752,96.531,352.752z M98.911,354.376V370h-4.788v-15.624H98.911z
	 M111.901,354.208c1.829,0,3.285,0.597,4.368,1.792c1.101,1.176,1.652,2.8,1.652,4.872V370h-4.76v-8.484
	c0-1.045-0.271-1.856-0.812-2.436c-0.542-0.579-1.27-0.868-2.184-0.868c-0.915,0-1.643,0.289-2.184,0.868
	c-0.542,0.579-0.812,1.391-0.812,2.436V370h-4.788v-15.624h4.788v2.072c0.485-0.691,1.138-1.232,1.96-1.624
	C109.95,354.413,110.874,354.208,111.901,354.208z M127.184,354.152c1.101,0,2.062,0.224,2.884,0.672
	c0.84,0.447,1.484,1.035,1.932,1.764v-2.212h4.788v15.597c0,1.437-0.29,2.734-0.868,3.892c-0.56,1.176-1.428,2.108-2.604,2.8
	c-1.158,0.691-2.604,1.036-4.34,1.036c-2.315,0-4.191-0.552-5.628-1.652c-1.438-1.083-2.259-2.557-2.464-4.424h4.732
	c0.149,0.597,0.504,1.063,1.064,1.399c0.56,0.355,1.25,0.533,2.072,0.533c0.989,0,1.773-0.289,2.352-0.869
	c0.597-0.56,0.896-1.465,0.896-2.715v-2.213c-0.467,0.729-1.111,1.325-1.932,1.792c-0.822,0.448-1.783,0.673-2.884,0.673
	c-1.288,0-2.455-0.328-3.5-0.98c-1.046-0.672-1.876-1.615-2.492-2.828c-0.598-1.232-0.896-2.65-0.896-4.256s0.298-3.016,0.896-4.229
	c0.616-1.213,1.446-2.146,2.492-2.8C124.729,354.479,125.896,354.152,127.184,354.152z M132,362.188
	c0-1.194-0.336-2.137-1.008-2.828c-0.654-0.69-1.456-1.035-2.408-1.035s-1.764,0.345-2.436,1.035
	c-0.654,0.673-0.98,1.605-0.98,2.801s0.326,2.146,0.98,2.855c0.672,0.691,1.484,1.036,2.436,1.036s1.754-0.345,2.408-1.036
	C131.664,364.325,132,363.383,132,362.188z"/>
<path fill="#91A6FF" d="M59.621,456.538h-0.587v-5.862c0-8.098-6.718-14.676-14.988-14.676c-8.271,0-14.989,6.587-14.989,14.676
	v5.862H28.47c-2.438,0-4.47,1.904-4.47,4.28v6.875c0,2.385,2.032,4.307,4.47,4.307h4.794c0.596,0,1.12-0.454,1.12-1.04v-13.409
	c0-0.576-0.524-1.013-1.12-1.013h-2.041v-5.862c0-6.936,5.751-12.579,12.822-12.579c7.07,0,12.821,5.644,12.821,12.579v5.862h-2.041
	c-0.596,0-1.12,0.437-1.12,1.013v13.409c0,0.577,0.523,1.04,1.12,1.04h4.794c2.438,0,4.379-1.922,4.379-4.307v-6.875
	C64,458.442,62.059,456.538,59.621,456.538L59.621,456.538z"/>
<path fill="#91A6FF" d="M89.508,444.428v-2.436h1.332c0.948,0,1.368,0.456,1.368,1.224c0,0.744-0.42,1.212-1.368,1.212H89.508z
	 M93.936,443.216c0-1.452-1.008-2.592-3.024-2.592h-3.084V449h1.68v-3.216h1.404C93.072,445.784,93.936,444.488,93.936,443.216z
	 M95.129,449h1.68v-8.88h-1.68V449z M101.325,443.624c0.864,0,1.56,0.552,1.584,1.428h-3.157
	C99.885,444.14,100.521,443.624,101.325,443.624z M104.481,446.912h-1.812c-0.216,0.444-0.612,0.804-1.332,0.804
	c-0.84,0-1.512-0.552-1.596-1.536h4.86c0.036-0.216,0.048-0.432,0.048-0.647c0-1.98-1.356-3.288-3.276-3.288
	c-1.968,0-3.336,1.332-3.336,3.432c0,2.088,1.404,3.433,3.336,3.433C103.017,449.108,104.121,448.136,104.481,446.912z
	 M105.443,445.652c0,2.075,1.344,3.456,3.024,3.456c1.056,0,1.812-0.504,2.208-1.08V449h1.692v-6.648h-1.692v0.948
	c-0.396-0.552-1.128-1.056-2.196-1.056C106.787,442.244,105.443,443.576,105.443,445.652z M110.675,445.676
	c0,1.26-0.84,1.956-1.764,1.956c-0.9,0-1.752-0.72-1.752-1.979c0-1.261,0.852-1.933,1.752-1.933
	C109.835,443.72,110.675,444.416,110.675,445.676z M119.168,447.104c-0.048-2.437-3.732-1.681-3.732-2.893
	c0-0.384,0.324-0.636,0.948-0.636c0.66,0,1.068,0.348,1.116,0.864h1.608c-0.096-1.32-1.068-2.196-2.676-2.196
	c-1.644,0-2.628,0.888-2.628,1.992c0,2.436,3.756,1.68,3.756,2.868c0,0.384-0.36,0.684-1.02,0.684c-0.672,0-1.14-0.384-1.2-0.888
	h-1.692c0.072,1.235,1.236,2.208,2.904,2.208C118.172,449.108,119.168,448.244,119.168,447.104z M123.403,443.624
	c0.864,0,1.56,0.552,1.584,1.428h-3.156C121.963,444.14,122.599,443.624,123.403,443.624z M126.559,446.912h-1.812
	c-0.216,0.444-0.612,0.804-1.332,0.804c-0.84,0-1.512-0.552-1.596-1.536h4.86c0.036-0.216,0.048-0.432,0.048-0.647
	c0-1.98-1.356-3.288-3.276-3.288c-1.968,0-3.336,1.332-3.336,3.432c0,2.088,1.404,3.433,3.336,3.433
	C125.095,449.108,126.199,448.136,126.559,446.912z M137.088,442.352h-1.692v3.66c0,1.068-0.576,1.645-1.488,1.645
	c-0.888,0-1.476-0.576-1.476-1.645v-3.66h-1.68v3.9c0,1.824,1.116,2.832,2.664,2.832c0.828,0,1.56-0.36,1.98-0.924V449h1.692
	V442.352z M143.906,447.104c-0.048-2.437-3.732-1.681-3.732-2.893c0-0.384,0.324-0.636,0.948-0.636c0.66,0,1.068,0.348,1.116,0.864
	h1.608c-0.096-1.32-1.068-2.196-2.676-2.196c-1.644,0-2.628,0.888-2.628,1.992c0,2.436,3.756,1.68,3.756,2.868
	c0,0.384-0.36,0.684-1.02,0.684c-0.672,0-1.14-0.384-1.2-0.888h-1.692c0.072,1.235,1.236,2.208,2.904,2.208
	C142.91,449.108,143.906,448.244,143.906,447.104z M148.141,443.624c0.864,0,1.56,0.552,1.584,1.428h-3.156
	C146.701,444.14,147.337,443.624,148.141,443.624z M151.297,446.912h-1.812c-0.216,0.444-0.612,0.804-1.332,0.804
	c-0.84,0-1.512-0.552-1.596-1.536h4.86c0.036-0.216,0.048-0.432,0.048-0.647c0-1.98-1.356-3.288-3.276-3.288
	c-1.968,0-3.336,1.332-3.336,3.432c0,2.088,1.404,3.433,3.336,3.433C149.833,449.108,150.937,448.136,151.297,446.912z M155.551,449
	h1.68v-3.672c0-1.068,0.588-1.645,1.5-1.645c0.888,0,1.476,0.576,1.476,1.645V449h1.68v-3.9c0-1.836-1.092-2.844-2.592-2.844
	c-0.888,0-1.632,0.36-2.064,0.924v-3.06h-1.68V449z M166.34,443.624c0.864,0,1.56,0.552,1.584,1.428h-3.156
	C164.9,444.14,165.536,443.624,166.34,443.624z M169.496,446.912h-1.812c-0.216,0.444-0.612,0.804-1.332,0.804
	c-0.84,0-1.512-0.552-1.596-1.536h4.86c0.036-0.216,0.048-0.432,0.048-0.647c0-1.98-1.356-3.288-3.276-3.288
	c-1.968,0-3.336,1.332-3.336,3.432c0,2.088,1.404,3.433,3.336,3.433C168.032,449.108,169.136,448.136,169.496,446.912z
	 M170.458,445.652c0,2.075,1.345,3.456,3.025,3.456c1.056,0,1.812-0.504,2.208-1.08V449h1.692v-6.648h-1.692v0.948
	c-0.396-0.552-1.128-1.056-2.196-1.056C171.803,442.244,170.458,443.576,170.458,445.652z M175.691,445.676
	c0,1.26-0.84,1.956-1.764,1.956c-0.9,0-1.752-0.72-1.752-1.979c0-1.261,0.852-1.933,1.752-1.933
	C174.851,443.72,175.691,444.416,175.691,445.676z M178.591,445.652c0,2.075,1.344,3.456,3.036,3.456
	c1.044,0,1.788-0.48,2.184-1.093V449h1.705v-8.88h-1.705v3.156c-0.455-0.624-1.295-1.032-2.172-1.032
	C179.935,442.244,178.591,443.576,178.591,445.652z M183.823,445.676c0,1.26-0.841,1.956-1.765,1.956
	c-0.899,0-1.751-0.72-1.751-1.979c0-1.261,0.852-1.933,1.751-1.933C182.982,443.72,183.823,444.416,183.823,445.676z
	 M188.836,443.312v-0.96h-1.68v9.816h1.68v-4.116c0.408,0.54,1.152,1.057,2.196,1.057c1.704,0,3.036-1.381,3.036-3.456
	c0-2.076-1.332-3.408-3.036-3.408C190,442.244,189.232,442.748,188.836,443.312z M192.352,445.652c0,1.26-0.852,1.979-1.764,1.979
	c-0.9,0-1.752-0.696-1.752-1.956s0.852-1.956,1.752-1.956C191.5,443.72,192.352,444.392,192.352,445.652z M195.289,449h1.68v-3.672
	c0-1.068,0.588-1.645,1.5-1.645c0.889,0,1.477,0.576,1.477,1.645V449h1.68v-3.9c0-1.836-1.092-2.844-2.592-2.844
	c-0.889,0-1.633,0.36-2.064,0.924v-3.06h-1.68V449z M209.643,445.676c0-2.1-1.5-3.432-3.42-3.432s-3.42,1.332-3.42,3.432
	c0,2.088,1.452,3.433,3.372,3.433C208.107,449.108,209.643,447.764,209.643,445.676z M204.507,445.676
	c0-1.332,0.804-1.968,1.692-1.968c0.888,0,1.716,0.636,1.716,1.968c0,1.32-0.853,1.968-1.74,1.968
	C205.275,447.644,204.507,446.996,204.507,445.676z M215.531,449h1.68v-3.9c0-1.836-1.104-2.844-2.652-2.844
	c-0.852,0-1.572,0.36-2.004,0.924v-0.828h-1.68V449h1.68v-3.672c0-1.068,0.588-1.645,1.5-1.645c0.889,0,1.477,0.576,1.477,1.645V449
	z M221.664,443.624c0.863,0,1.561,0.552,1.584,1.428h-3.156C220.225,444.14,220.859,443.624,221.664,443.624z M224.82,446.912
	h-1.813c-0.216,0.444-0.611,0.804-1.332,0.804c-0.84,0-1.512-0.552-1.596-1.536h4.859c0.037-0.216,0.049-0.432,0.049-0.647
	c0-1.98-1.356-3.288-3.276-3.288c-1.968,0-3.336,1.332-3.336,3.432c0,2.088,1.403,3.433,3.336,3.433
	C223.355,449.108,224.46,448.136,224.82,446.912z M88.008,467h1.704v-5.268h1.164v-1.381h-1.164v-0.275
	c0-0.744,0.276-1.008,1.092-0.984v-1.416c-1.872-0.048-2.796,0.708-2.796,2.34v0.336h-0.756v1.381h0.756V467z M98.385,463.676
	c0-2.1-1.5-3.432-3.42-3.432s-3.42,1.332-3.42,3.432c0,2.088,1.452,3.433,3.372,3.433C96.849,467.108,98.385,465.764,98.385,463.676
	z M93.249,463.676c0-1.332,0.804-1.968,1.692-1.968c0.888,0,1.716,0.636,1.716,1.968c0,1.32-0.852,1.968-1.74,1.968
	C94.017,465.644,93.249,464.996,93.249,463.676z M101.297,463.688c0-1.284,0.6-1.669,1.596-1.669h0.444v-1.764
	c-0.924,0-1.62,0.444-2.04,1.128v-1.032h-1.68V467h1.68V463.688z M107.592,464.936c0,1.524,0.852,2.064,2.124,2.064h1.056v-1.416
	h-0.78c-0.528,0-0.708-0.192-0.708-0.636v-3.216h1.488v-1.381h-1.488v-1.644h-1.692v1.644H106.8v1.381h0.792V464.936z M111.98,467
	h1.68v-3.672c0-1.068,0.588-1.645,1.5-1.645c0.888,0,1.476,0.576,1.476,1.645V467h1.68v-3.9c0-1.836-1.092-2.844-2.592-2.844
	c-0.888,0-1.632,0.36-2.064,0.924v-3.06h-1.68V467z M122.77,461.624c0.864,0,1.56,0.552,1.584,1.428h-3.156
	C121.33,462.14,121.966,461.624,122.77,461.624z M125.926,464.912h-1.812c-0.216,0.444-0.612,0.804-1.332,0.804
	c-0.84,0-1.512-0.552-1.596-1.536h4.86c0.036-0.216,0.048-0.432,0.048-0.647c0-1.98-1.356-3.288-3.276-3.288
	c-1.968,0-3.336,1.332-3.336,3.432c0,2.088,1.404,3.433,3.336,3.433C124.462,467.108,125.566,466.136,125.926,464.912z
	 M131.86,461.324v-3.204h-1.68V467h1.68v-0.948c0.408,0.576,1.152,1.057,2.196,1.057c1.704,0,3.036-1.381,3.036-3.456
	c0-2.076-1.332-3.408-3.036-3.408C133.048,460.244,132.268,460.712,131.86,461.324z M135.376,463.652
	c0,1.26-0.852,1.979-1.764,1.979c-0.9,0-1.752-0.696-1.752-1.956s0.852-1.956,1.752-1.956
	C134.524,461.72,135.376,462.392,135.376,463.652z M141.168,461.624c0.864,0,1.56,0.552,1.584,1.428h-3.156
	C139.728,462.14,140.364,461.624,141.168,461.624z M144.324,464.912h-1.812c-0.216,0.444-0.612,0.804-1.332,0.804
	c-0.84,0-1.512-0.552-1.596-1.536h4.86c0.036-0.216,0.048-0.432,0.048-0.647c0-1.98-1.356-3.288-3.276-3.288
	c-1.968,0-3.336,1.332-3.336,3.432c0,2.088,1.404,3.433,3.336,3.433C142.86,467.108,143.964,466.136,144.324,464.912z
	 M150.879,465.104c-0.048-2.437-3.732-1.681-3.732-2.893c0-0.384,0.324-0.636,0.948-0.636c0.66,0,1.068,0.348,1.116,0.864h1.608
	c-0.096-1.32-1.068-2.196-2.676-2.196c-1.644,0-2.628,0.888-2.628,1.992c0,2.436,3.756,1.68,3.756,2.868
	c0,0.384-0.36,0.684-1.02,0.684c-0.672,0-1.14-0.384-1.2-0.888h-1.692c0.072,1.235,1.236,2.208,2.904,2.208
	C149.883,467.108,150.879,466.244,150.879,465.104z M152.522,464.936c0,1.524,0.852,2.064,2.124,2.064h1.056v-1.416h-0.78
	c-0.528,0-0.708-0.192-0.708-0.636v-3.216h1.488v-1.381h-1.488v-1.644h-1.692v1.644h-0.792v1.381h0.792V464.936z M162.625,461.624
	c0.864,0,1.56,0.552,1.584,1.428h-3.156C161.185,462.14,161.821,461.624,162.625,461.624z M165.781,464.912h-1.813
	c-0.216,0.444-0.612,0.804-1.332,0.804c-0.84,0-1.512-0.552-1.596-1.536h4.86c0.036-0.216,0.048-0.432,0.048-0.647
	c0-1.98-1.356-3.288-3.276-3.288c-1.968,0-3.336,1.332-3.336,3.432c0,2.088,1.404,3.433,3.336,3.433
	C164.317,467.108,165.421,466.136,165.781,464.912z M170.848,467h1.896l-2.208-3.336l2.184-3.313h-1.8l-1.224,2.053l-1.356-2.053
	h-1.896l2.196,3.313L166.468,467h1.8l1.212-2.064L170.848,467z M175.336,461.312v-0.96h-1.68v9.816h1.68v-4.116
	c0.408,0.54,1.152,1.057,2.196,1.057c1.704,0,3.036-1.381,3.036-3.456c0-2.076-1.333-3.408-3.036-3.408
	C176.5,460.244,175.732,460.748,175.336,461.312z M178.852,463.652c0,1.26-0.852,1.979-1.764,1.979c-0.9,0-1.752-0.696-1.752-1.956
	s0.852-1.956,1.752-1.956C178,461.72,178.852,462.392,178.852,463.652z M184.645,461.624c0.864,0,1.561,0.552,1.584,1.428h-3.155
	C183.205,462.14,183.841,461.624,184.645,461.624z M187.801,464.912h-1.813c-0.215,0.444-0.611,0.804-1.331,0.804
	c-0.841,0-1.513-0.552-1.597-1.536h4.86c0.036-0.216,0.048-0.432,0.048-0.647c0-1.98-1.355-3.288-3.275-3.288
	c-1.969,0-3.336,1.332-3.336,3.432c0,2.088,1.404,3.433,3.336,3.433C186.337,467.108,187.441,466.136,187.801,464.912z
	 M190.875,463.688c0-1.284,0.6-1.669,1.596-1.669h0.444v-1.764c-0.924,0-1.62,0.444-2.04,1.128v-1.032h-1.68V467h1.68V463.688z
	 M194.047,467h1.68v-6.648h-1.68V467z M194.898,459.56c0.588,0,1.033-0.432,1.033-0.983s-0.445-0.984-1.033-0.984
	c-0.6,0-1.031,0.433-1.031,0.984S194.299,459.56,194.898,459.56z M200.243,461.624c0.864,0,1.56,0.552,1.584,1.428h-3.156
	C198.803,462.14,199.439,461.624,200.243,461.624z M203.398,464.912h-1.812c-0.216,0.444-0.612,0.804-1.332,0.804
	c-0.84,0-1.512-0.552-1.596-1.536h4.86c0.035-0.216,0.047-0.432,0.047-0.647c0-1.98-1.355-3.288-3.275-3.288
	c-1.968,0-3.336,1.332-3.336,3.432c0,2.088,1.404,3.433,3.336,3.433C201.936,467.108,203.039,466.136,203.398,464.912z M209.449,467
	h1.68v-3.9c0-1.836-1.104-2.844-2.652-2.844c-0.852,0-1.572,0.36-2.004,0.924v-0.828h-1.68V467h1.68v-3.672
	c0-1.068,0.588-1.645,1.5-1.645c0.889,0,1.477,0.576,1.477,1.645V467z M212.294,463.676c0,2.088,1.368,3.433,3.288,3.433
	c1.656,0,2.771-0.937,3.132-2.353h-1.812c-0.204,0.601-0.637,0.912-1.332,0.912c-0.937,0-1.561-0.696-1.561-1.992
	s0.624-2.004,1.561-2.004c0.695,0,1.14,0.36,1.332,0.924h1.812c-0.36-1.487-1.476-2.352-3.132-2.352
	C213.662,460.244,212.294,461.588,212.294,463.676z M222.801,461.624c0.864,0,1.561,0.552,1.584,1.428h-3.156
	C221.361,462.14,221.997,461.624,222.801,461.624z M225.957,464.912h-1.813c-0.215,0.444-0.611,0.804-1.332,0.804
	c-0.84,0-1.512-0.552-1.596-1.536h4.86c0.036-0.216,0.048-0.432,0.048-0.647c0-1.98-1.355-3.288-3.275-3.288
	c-1.969,0-3.336,1.332-3.336,3.432c0,2.088,1.403,3.433,3.336,3.433C224.493,467.108,225.598,466.136,225.957,464.912z"/>
</svg>
