<svg width="40" height="36" viewBox="0 0 40 36" fill="none" xmlns="http://www.w3.org/2000/svg">
<path d="M35.6208 20.5377H35.0339V14.676C35.0339 6.57806 28.316 0 20.0452 0C11.7744 0 5.05652 6.58676 5.05652 14.676V20.5377H4.46961C2.03168 20.5377 0 22.4421 0 24.8183V31.6933C0 34.0781 2.03159 36 4.46961 36H9.26423C9.86018 36 10.3838 35.5457 10.3838 34.9604V21.5511C10.3838 20.9746 9.86013 20.5377 9.26423 20.5377H7.22355V14.676C7.22355 7.73984 12.9753 2.09658 20.0452 2.09658C27.115 2.09658 32.8668 7.73984 32.8668 14.676V20.5377H30.8261C30.2301 20.5377 29.7065 20.9745 29.7065 21.5511V34.9604C29.7065 35.537 30.2302 36 30.8261 36H35.6207C38.0586 36 40 34.0782 40 31.6933V24.8183C40 22.4421 38.0586 20.5377 35.6207 20.5377H35.6208Z" fill="#91A6FF"/>
</svg>
