<svg width="238" height="20" viewBox="0 0 238 20" fill="none" xmlns="http://www.w3.org/2000/svg">
<path d="M0.516 10.688C0.516 10.016 0.652 9.428 0.924 8.924C1.196 8.412 1.568 8.016 2.04 7.736C2.52 7.456 3.052 7.316 3.636 7.316C4.212 7.316 4.712 7.44 5.136 7.688C5.56 7.936 5.876 8.248 6.084 8.624V7.424H7.188V14H6.084V12.776C5.868 13.16 5.544 13.48 5.112 13.736C4.688 13.984 4.192 14.108 3.624 14.108C3.04 14.108 2.512 13.964 2.04 13.676C1.568 13.388 1.196 12.984 0.924 12.464C0.652 11.944 0.516 11.352 0.516 10.688ZM6.084 10.7C6.084 10.204 5.984 9.772 5.784 9.404C5.584 9.036 5.312 8.756 4.968 8.564C4.632 8.364 4.26 8.264 3.852 8.264C3.444 8.264 3.072 8.36 2.736 8.552C2.4 8.744 2.132 9.024 1.932 9.392C1.732 9.76 1.632 10.192 1.632 10.688C1.632 11.192 1.732 11.632 1.932 12.008C2.132 12.376 2.4 12.66 2.736 12.86C3.072 13.052 3.444 13.148 3.852 13.148C4.26 13.148 4.632 13.052 4.968 12.86C5.312 12.66 5.584 12.376 5.784 12.008C5.984 11.632 6.084 11.196 6.084 10.7ZM11.4814 12.992L13.5214 7.424H14.6854L12.1054 14H10.8334L8.25338 7.424H9.42938L11.4814 12.992ZM21.7599 10.46C21.7599 10.668 21.7479 10.888 21.7239 11.12H16.4679C16.5079 11.768 16.7279 12.276 17.1279 12.644C17.5359 13.004 18.0279 13.184 18.6039 13.184C19.0759 13.184 19.4679 13.076 19.7799 12.86C20.0999 12.636 20.3239 12.34 20.4519 11.972H21.6279C21.4519 12.604 21.0999 13.12 20.5719 13.52C20.0439 13.912 19.3879 14.108 18.6039 14.108C17.9799 14.108 17.4199 13.968 16.9239 13.688C16.4359 13.408 16.0519 13.012 15.7719 12.5C15.4919 11.98 15.3519 11.38 15.3519 10.7C15.3519 10.02 15.4879 9.424 15.7599 8.912C16.0319 8.4 16.4119 8.008 16.8999 7.736C17.3959 7.456 17.9639 7.316 18.6039 7.316C19.2279 7.316 19.7799 7.452 20.2599 7.724C20.7399 7.996 21.1079 8.372 21.3639 8.852C21.6279 9.324 21.7599 9.86 21.7599 10.46ZM20.6319 10.232C20.6319 9.816 20.5399 9.46 20.3559 9.164C20.1719 8.86 19.9199 8.632 19.5999 8.48C19.2879 8.32 18.9399 8.24 18.5559 8.24C18.0039 8.24 17.5319 8.416 17.1399 8.768C16.7559 9.12 16.5359 9.608 16.4799 10.232H20.6319ZM24.2933 8.492C24.4853 8.116 24.7573 7.824 25.1093 7.616C25.4693 7.408 25.9053 7.304 26.4173 7.304V8.432H26.1293C24.9053 8.432 24.2933 9.096 24.2933 10.424V14H23.2013V7.424H24.2933V8.492ZM27.2699 10.688C27.2699 10.016 27.4059 9.428 27.6779 8.924C27.9499 8.412 28.3219 8.016 28.7939 7.736C29.2739 7.456 29.8059 7.316 30.3899 7.316C30.9659 7.316 31.4659 7.44 31.8899 7.688C32.3139 7.936 32.6299 8.248 32.8379 8.624V7.424H33.9419V14H32.8379V12.776C32.6219 13.16 32.2979 13.48 31.8659 13.736C31.4419 13.984 30.9459 14.108 30.3779 14.108C29.7939 14.108 29.2659 13.964 28.7939 13.676C28.3219 13.388 27.9499 12.984 27.6779 12.464C27.4059 11.944 27.2699 11.352 27.2699 10.688ZM32.8379 10.7C32.8379 10.204 32.7379 9.772 32.5379 9.404C32.3379 9.036 32.0659 8.756 31.7219 8.564C31.3859 8.364 31.0139 8.264 30.6059 8.264C30.1979 8.264 29.8259 8.36 29.4899 8.552C29.1539 8.744 28.8859 9.024 28.6859 9.392C28.4859 9.76 28.3859 10.192 28.3859 10.688C28.3859 11.192 28.4859 11.632 28.6859 12.008C28.8859 12.376 29.1539 12.66 29.4899 12.86C29.8259 13.052 30.1979 13.148 30.6059 13.148C31.0139 13.148 31.3859 13.052 31.7219 12.86C32.0659 12.66 32.3379 12.376 32.5379 12.008C32.7379 11.632 32.8379 11.196 32.8379 10.7ZM38.4993 7.316C39.0673 7.316 39.5633 7.44 39.9873 7.688C40.4193 7.936 40.7393 8.248 40.9473 8.624V7.424H42.0513V14.144C42.0513 14.744 41.9233 15.276 41.6673 15.74C41.4113 16.212 41.0433 16.58 40.5633 16.844C40.0913 17.108 39.5393 17.24 38.9073 17.24C38.0433 17.24 37.3233 17.036 36.7473 16.628C36.1713 16.22 35.8313 15.664 35.7273 14.96H36.8073C36.9273 15.36 37.1753 15.68 37.5513 15.92C37.9273 16.168 38.3793 16.292 38.9073 16.292C39.5073 16.292 39.9953 16.104 40.3713 15.728C40.7553 15.352 40.9473 14.824 40.9473 14.144V12.764C40.7313 13.148 40.4113 13.468 39.9873 13.724C39.5633 13.98 39.0673 14.108 38.4993 14.108C37.9153 14.108 37.3833 13.964 36.9033 13.676C36.4313 13.388 36.0593 12.984 35.7873 12.464C35.5153 11.944 35.3793 11.352 35.3793 10.688C35.3793 10.016 35.5153 9.428 35.7873 8.924C36.0593 8.412 36.4313 8.016 36.9033 7.736C37.3833 7.456 37.9153 7.316 38.4993 7.316ZM40.9473 10.7C40.9473 10.204 40.8473 9.772 40.6473 9.404C40.4473 9.036 40.1753 8.756 39.8313 8.564C39.4953 8.364 39.1233 8.264 38.7153 8.264C38.3073 8.264 37.9353 8.36 37.5993 8.552C37.2633 8.744 36.9953 9.024 36.7953 9.392C36.5953 9.76 36.4953 10.192 36.4953 10.688C36.4953 11.192 36.5953 11.632 36.7953 12.008C36.9953 12.376 37.2633 12.66 37.5993 12.86C37.9353 13.052 38.3073 13.148 38.7153 13.148C39.1233 13.148 39.4953 13.052 39.8313 12.86C40.1753 12.66 40.4473 12.376 40.6473 12.008C40.8473 11.632 40.9473 11.196 40.9473 10.7ZM49.8967 10.46C49.8967 10.668 49.8847 10.888 49.8607 11.12H44.6047C44.6447 11.768 44.8647 12.276 45.2647 12.644C45.6727 13.004 46.1647 13.184 46.7407 13.184C47.2127 13.184 47.6047 13.076 47.9167 12.86C48.2367 12.636 48.4607 12.34 48.5887 11.972H49.7647C49.5887 12.604 49.2367 13.12 48.7087 13.52C48.1807 13.912 47.5247 14.108 46.7407 14.108C46.1167 14.108 45.5567 13.968 45.0607 13.688C44.5727 13.408 44.1887 13.012 43.9087 12.5C43.6287 11.98 43.4887 11.38 43.4887 10.7C43.4887 10.02 43.6247 9.424 43.8967 8.912C44.1687 8.4 44.5487 8.008 45.0367 7.736C45.5327 7.456 46.1007 7.316 46.7407 7.316C47.3647 7.316 47.9167 7.452 48.3967 7.724C48.8767 7.996 49.2447 8.372 49.5007 8.852C49.7647 9.324 49.8967 9.86 49.8967 10.46ZM48.7687 10.232C48.7687 9.816 48.6767 9.46 48.4927 9.164C48.3087 8.86 48.0567 8.632 47.7367 8.48C47.4247 8.32 47.0767 8.24 46.6927 8.24C46.1407 8.24 45.6687 8.416 45.2767 8.768C44.8927 9.12 44.6727 9.608 44.6167 10.232H48.7687ZM55.1013 6.356C54.8933 6.356 54.7173 6.284 54.5733 6.14C54.4293 5.996 54.3573 5.82 54.3573 5.612C54.3573 5.404 54.4293 5.228 54.5733 5.084C54.7173 4.94 54.8933 4.868 55.1013 4.868C55.3013 4.868 55.4693 4.94 55.6053 5.084C55.7493 5.228 55.8213 5.404 55.8213 5.612C55.8213 5.82 55.7493 5.996 55.6053 6.14C55.4693 6.284 55.3013 6.356 55.1013 6.356ZM55.6293 7.424V14H54.5373V7.424H55.6293ZM60.6944 7.304C61.4944 7.304 62.1424 7.548 62.6384 8.036C63.1344 8.516 63.3824 9.212 63.3824 10.124V14H62.3024V10.28C62.3024 9.624 62.1384 9.124 61.8104 8.78C61.4824 8.428 61.0344 8.252 60.4664 8.252C59.8904 8.252 59.4304 8.432 59.0864 8.792C58.7504 9.152 58.5824 9.676 58.5824 10.364V14H57.4904V7.424H58.5824V8.36C58.7984 8.024 59.0904 7.764 59.4584 7.58C59.8344 7.396 60.2464 7.304 60.6944 7.304ZM67.9574 10.688C67.9574 10.016 68.0934 9.428 68.3654 8.924C68.6374 8.412 69.0094 8.016 69.4814 7.736C69.9614 7.456 70.4934 7.316 71.0774 7.316C71.6534 7.316 72.1534 7.44 72.5774 7.688C73.0014 7.936 73.3174 8.248 73.5254 8.624V7.424H74.6294V14H73.5254V12.776C73.3094 13.16 72.9854 13.48 72.5534 13.736C72.1294 13.984 71.6334 14.108 71.0654 14.108C70.4814 14.108 69.9534 13.964 69.4814 13.676C69.0094 13.388 68.6374 12.984 68.3654 12.464C68.0934 11.944 67.9574 11.352 67.9574 10.688ZM73.5254 10.7C73.5254 10.204 73.4254 9.772 73.2254 9.404C73.0254 9.036 72.7534 8.756 72.4094 8.564C72.0734 8.364 71.7014 8.264 71.2934 8.264C70.8854 8.264 70.5134 8.36 70.1774 8.552C69.8414 8.744 69.5734 9.024 69.3734 9.392C69.1734 9.76 69.0734 10.192 69.0734 10.688C69.0734 11.192 69.1734 11.632 69.3734 12.008C69.5734 12.376 69.8414 12.66 70.1774 12.86C70.5134 13.052 70.8854 13.148 71.2934 13.148C71.7014 13.148 72.0734 13.052 72.4094 12.86C72.7534 12.66 73.0254 12.376 73.2254 12.008C73.4254 11.632 73.5254 11.196 73.5254 10.7ZM84.3828 7.304C84.8948 7.304 85.3508 7.412 85.7508 7.628C86.1508 7.836 86.4668 8.152 86.6988 8.576C86.9308 9 87.0468 9.516 87.0468 10.124V14H85.9668V10.28C85.9668 9.624 85.8028 9.124 85.4748 8.78C85.1548 8.428 84.7188 8.252 84.1668 8.252C83.5988 8.252 83.1468 8.436 82.8108 8.804C82.4748 9.164 82.3068 9.688 82.3068 10.376V14H81.2268V10.28C81.2268 9.624 81.0628 9.124 80.7348 8.78C80.4148 8.428 79.9788 8.252 79.4268 8.252C78.8588 8.252 78.4068 8.436 78.0708 8.804C77.7348 9.164 77.5668 9.688 77.5668 10.376V14H76.4748V7.424H77.5668V8.372C77.7828 8.028 78.0708 7.764 78.4308 7.58C78.7988 7.396 79.2028 7.304 79.6428 7.304C80.1948 7.304 80.6828 7.428 81.1068 7.676C81.5308 7.924 81.8468 8.288 82.0548 8.768C82.2388 8.304 82.5428 7.944 82.9668 7.688C83.3908 7.432 83.8628 7.304 84.3828 7.304ZM91.7061 14.108C91.0901 14.108 90.5301 13.968 90.0261 13.688C89.5301 13.408 89.1381 13.012 88.8501 12.5C88.5701 11.98 88.4301 11.38 88.4301 10.7C88.4301 10.028 88.5741 9.436 88.8621 8.924C89.1581 8.404 89.5581 8.008 90.0621 7.736C90.5661 7.456 91.1301 7.316 91.7541 7.316C92.3781 7.316 92.9421 7.456 93.4461 7.736C93.9501 8.008 94.3461 8.4 94.6341 8.912C94.9301 9.424 95.0781 10.02 95.0781 10.7C95.0781 11.38 94.9261 11.98 94.6221 12.5C94.3261 13.012 93.9221 13.408 93.4101 13.688C92.8981 13.968 92.3301 14.108 91.7061 14.108ZM91.7061 13.148C92.0981 13.148 92.4661 13.056 92.8101 12.872C93.1541 12.688 93.4301 12.412 93.6381 12.044C93.8541 11.676 93.9621 11.228 93.9621 10.7C93.9621 10.172 93.8581 9.724 93.6501 9.356C93.4421 8.988 93.1701 8.716 92.8341 8.54C92.4981 8.356 92.1341 8.264 91.7421 8.264C91.3421 8.264 90.9741 8.356 90.6381 8.54C90.3101 8.716 90.0461 8.988 89.8461 9.356C89.6461 9.724 89.5461 10.172 89.5461 10.7C89.5461 11.236 89.6421 11.688 89.8341 12.056C90.0341 12.424 90.2981 12.7 90.6261 12.884C90.9541 13.06 91.3141 13.148 91.7061 13.148ZM102.346 7.424V14H101.254V13.028C101.046 13.364 100.754 13.628 100.378 13.82C100.01 14.004 99.6018 14.096 99.1538 14.096C98.6418 14.096 98.1818 13.992 97.7738 13.784C97.3658 13.568 97.0418 13.248 96.8018 12.824C96.5698 12.4 96.4538 11.884 96.4538 11.276V7.424H97.5338V11.132C97.5338 11.78 97.6978 12.28 98.0258 12.632C98.3538 12.976 98.8018 13.148 99.3698 13.148C99.9538 13.148 100.414 12.968 100.75 12.608C101.086 12.248 101.254 11.724 101.254 11.036V7.424H102.346ZM107.394 7.304C108.194 7.304 108.842 7.548 109.338 8.036C109.834 8.516 110.082 9.212 110.082 10.124V14H109.002V10.28C109.002 9.624 108.838 9.124 108.51 8.78C108.182 8.428 107.734 8.252 107.166 8.252C106.59 8.252 106.13 8.432 105.786 8.792C105.45 9.152 105.282 9.676 105.282 10.364V14H104.19V7.424H105.282V8.36C105.498 8.024 105.79 7.764 106.158 7.58C106.534 7.396 106.946 7.304 107.394 7.304ZM113.197 8.324V12.2C113.197 12.52 113.265 12.748 113.401 12.884C113.537 13.012 113.773 13.076 114.109 13.076H114.913V14H113.929C113.321 14 112.865 13.86 112.561 13.58C112.257 13.3 112.105 12.84 112.105 12.2V8.324H111.253V7.424H112.105V5.768H113.197V7.424H114.913V8.324H113.197ZM117.365 12.488L116.021 15.716H115.288L116.165 12.488H117.365ZM122.379 6.356C122.171 6.356 121.995 6.284 121.851 6.14C121.707 5.996 121.635 5.82 121.635 5.612C121.635 5.404 121.707 5.228 121.851 5.084C121.995 4.94 122.171 4.868 122.379 4.868C122.579 4.868 122.747 4.94 122.883 5.084C123.027 5.228 123.099 5.404 123.099 5.612C123.099 5.82 123.027 5.996 122.883 6.14C122.747 6.284 122.579 6.356 122.379 6.356ZM122.907 7.424V14H121.815V7.424H122.907ZM127.972 7.304C128.772 7.304 129.42 7.548 129.916 8.036C130.412 8.516 130.66 9.212 130.66 10.124V14H129.58V10.28C129.58 9.624 129.416 9.124 129.088 8.78C128.76 8.428 128.312 8.252 127.744 8.252C127.168 8.252 126.708 8.432 126.364 8.792C126.028 9.152 125.86 9.676 125.86 10.364V14H124.768V7.424H125.86V8.36C126.076 8.024 126.368 7.764 126.736 7.58C127.112 7.396 127.524 7.304 127.972 7.304ZM133.776 8.324V12.2C133.776 12.52 133.844 12.748 133.98 12.884C134.116 13.012 134.352 13.076 134.688 13.076H135.492V14H134.508C133.9 14 133.444 13.86 133.14 13.58C132.836 13.3 132.684 12.84 132.684 12.2V8.324H131.832V7.424H132.684V5.768H133.776V7.424H135.492V8.324H133.776ZM142.815 10.46C142.815 10.668 142.803 10.888 142.779 11.12H137.523C137.563 11.768 137.783 12.276 138.183 12.644C138.591 13.004 139.083 13.184 139.659 13.184C140.131 13.184 140.523 13.076 140.835 12.86C141.155 12.636 141.379 12.34 141.507 11.972H142.683C142.507 12.604 142.155 13.12 141.627 13.52C141.099 13.912 140.443 14.108 139.659 14.108C139.035 14.108 138.475 13.968 137.979 13.688C137.491 13.408 137.107 13.012 136.827 12.5C136.547 11.98 136.407 11.38 136.407 10.7C136.407 10.02 136.543 9.424 136.815 8.912C137.087 8.4 137.467 8.008 137.955 7.736C138.451 7.456 139.019 7.316 139.659 7.316C140.283 7.316 140.835 7.452 141.315 7.724C141.795 7.996 142.163 8.372 142.419 8.852C142.683 9.324 142.815 9.86 142.815 10.46ZM141.687 10.232C141.687 9.816 141.595 9.46 141.411 9.164C141.227 8.86 140.975 8.632 140.655 8.48C140.343 8.32 139.995 8.24 139.611 8.24C139.059 8.24 138.587 8.416 138.195 8.768C137.811 9.12 137.591 9.608 137.535 10.232H141.687ZM147.46 7.304C148.26 7.304 148.908 7.548 149.404 8.036C149.9 8.516 150.148 9.212 150.148 10.124V14H149.068V10.28C149.068 9.624 148.904 9.124 148.576 8.78C148.248 8.428 147.8 8.252 147.232 8.252C146.656 8.252 146.196 8.432 145.852 8.792C145.516 9.152 145.348 9.676 145.348 10.364V14H144.256V7.424H145.348V8.36C145.564 8.024 145.856 7.764 146.224 7.58C146.6 7.396 147.012 7.304 147.46 7.304ZM154.26 14.108C153.756 14.108 153.304 14.024 152.904 13.856C152.504 13.68 152.188 13.44 151.956 13.136C151.724 12.824 151.596 12.468 151.572 12.068H152.7C152.732 12.396 152.884 12.664 153.156 12.872C153.436 13.08 153.8 13.184 154.248 13.184C154.664 13.184 154.992 13.092 155.232 12.908C155.472 12.724 155.592 12.492 155.592 12.212C155.592 11.924 155.464 11.712 155.208 11.576C154.952 11.432 154.556 11.292 154.02 11.156C153.532 11.028 153.132 10.9 152.82 10.772C152.516 10.636 152.252 10.44 152.028 10.184C151.812 9.92 151.704 9.576 151.704 9.152C151.704 8.816 151.804 8.508 152.004 8.228C152.204 7.948 152.488 7.728 152.856 7.568C153.224 7.4 153.644 7.316 154.116 7.316C154.844 7.316 155.432 7.5 155.88 7.868C156.328 8.236 156.568 8.74 156.6 9.38H155.508C155.484 9.036 155.344 8.76 155.088 8.552C154.84 8.344 154.504 8.24 154.08 8.24C153.688 8.24 153.376 8.324 153.144 8.492C152.912 8.66 152.796 8.88 152.796 9.152C152.796 9.368 152.864 9.548 153 9.692C153.144 9.828 153.32 9.94 153.528 10.028C153.744 10.108 154.04 10.2 154.416 10.304C154.888 10.432 155.272 10.56 155.568 10.688C155.864 10.808 156.116 10.992 156.324 11.24C156.54 11.488 156.652 11.812 156.66 12.212C156.66 12.572 156.56 12.896 156.36 13.184C156.16 13.472 155.876 13.7 155.508 13.868C155.148 14.028 154.732 14.108 154.26 14.108ZM158.765 6.356C158.557 6.356 158.381 6.284 158.237 6.14C158.093 5.996 158.021 5.82 158.021 5.612C158.021 5.404 158.093 5.228 158.237 5.084C158.381 4.94 158.557 4.868 158.765 4.868C158.965 4.868 159.133 4.94 159.269 5.084C159.413 5.228 159.485 5.404 159.485 5.612C159.485 5.82 159.413 5.996 159.269 6.14C159.133 6.284 158.965 6.356 158.765 6.356ZM159.293 7.424V14H158.201V7.424H159.293ZM162.486 8.324V12.2C162.486 12.52 162.554 12.748 162.69 12.884C162.826 13.012 163.062 13.076 163.398 13.076H164.202V14H163.218C162.61 14 162.154 13.86 161.85 13.58C161.546 13.3 161.394 12.84 161.394 12.2V8.324H160.542V7.424H161.394V5.768H162.486V7.424H164.202V8.324H162.486ZM171.19 7.424L167.23 17.096H166.102L167.398 13.928L164.746 7.424H165.958L168.022 12.752L170.062 7.424H171.19ZM173.415 12.488L172.071 15.716H171.339L172.215 12.488H173.415ZM180.733 14.108C180.117 14.108 179.557 13.968 179.053 13.688C178.557 13.408 178.165 13.012 177.877 12.5C177.597 11.98 177.457 11.38 177.457 10.7C177.457 10.028 177.601 9.436 177.889 8.924C178.185 8.404 178.585 8.008 179.089 7.736C179.593 7.456 180.157 7.316 180.781 7.316C181.405 7.316 181.969 7.456 182.473 7.736C182.977 8.008 183.373 8.4 183.661 8.912C183.957 9.424 184.105 10.02 184.105 10.7C184.105 11.38 183.953 11.98 183.649 12.5C183.353 13.012 182.949 13.408 182.437 13.688C181.925 13.968 181.357 14.108 180.733 14.108ZM180.733 13.148C181.125 13.148 181.493 13.056 181.837 12.872C182.181 12.688 182.457 12.412 182.665 12.044C182.881 11.676 182.989 11.228 182.989 10.7C182.989 10.172 182.885 9.724 182.677 9.356C182.469 8.988 182.197 8.716 181.861 8.54C181.525 8.356 181.161 8.264 180.769 8.264C180.369 8.264 180.001 8.356 179.665 8.54C179.337 8.716 179.073 8.988 178.873 9.356C178.673 9.724 178.573 10.172 178.573 10.7C178.573 11.236 178.669 11.688 178.861 12.056C179.061 12.424 179.325 12.7 179.653 12.884C179.981 13.06 180.341 13.148 180.733 13.148ZM186.633 8.492C186.825 8.116 187.097 7.824 187.449 7.616C187.809 7.408 188.245 7.304 188.757 7.304V8.432H188.469C187.245 8.432 186.633 9.096 186.633 10.424V14H185.541V7.424H186.633V8.492ZM192.809 10.688C192.809 10.016 192.945 9.428 193.217 8.924C193.489 8.412 193.861 8.016 194.333 7.736C194.813 7.456 195.349 7.316 195.941 7.316C196.453 7.316 196.929 7.436 197.369 7.676C197.809 7.908 198.145 8.216 198.377 8.6V5.12H199.481V14H198.377V12.764C198.161 13.156 197.841 13.48 197.417 13.736C196.993 13.984 196.497 14.108 195.929 14.108C195.345 14.108 194.813 13.964 194.333 13.676C193.861 13.388 193.489 12.984 193.217 12.464C192.945 11.944 192.809 11.352 192.809 10.688ZM198.377 10.7C198.377 10.204 198.277 9.772 198.077 9.404C197.877 9.036 197.605 8.756 197.261 8.564C196.925 8.364 196.553 8.264 196.145 8.264C195.737 8.264 195.365 8.36 195.029 8.552C194.693 8.744 194.425 9.024 194.225 9.392C194.025 9.76 193.925 10.192 193.925 10.688C193.925 11.192 194.025 11.632 194.225 12.008C194.425 12.376 194.693 12.66 195.029 12.86C195.365 13.052 195.737 13.148 196.145 13.148C196.553 13.148 196.925 13.052 197.261 12.86C197.605 12.66 197.877 12.376 198.077 12.008C198.277 11.632 198.377 11.196 198.377 10.7ZM207.326 10.46C207.326 10.668 207.314 10.888 207.29 11.12H202.034C202.074 11.768 202.294 12.276 202.694 12.644C203.102 13.004 203.594 13.184 204.17 13.184C204.642 13.184 205.034 13.076 205.346 12.86C205.666 12.636 205.89 12.34 206.018 11.972H207.194C207.018 12.604 206.666 13.12 206.138 13.52C205.61 13.912 204.954 14.108 204.17 14.108C203.546 14.108 202.986 13.968 202.49 13.688C202.002 13.408 201.618 13.012 201.338 12.5C201.058 11.98 200.918 11.38 200.918 10.7C200.918 10.02 201.054 9.424 201.326 8.912C201.598 8.4 201.978 8.008 202.466 7.736C202.962 7.456 203.53 7.316 204.17 7.316C204.794 7.316 205.346 7.452 205.826 7.724C206.306 7.996 206.674 8.372 206.93 8.852C207.194 9.324 207.326 9.86 207.326 10.46ZM206.198 10.232C206.198 9.816 206.106 9.46 205.922 9.164C205.738 8.86 205.486 8.632 205.166 8.48C204.854 8.32 204.506 8.24 204.122 8.24C203.57 8.24 203.098 8.416 202.706 8.768C202.322 9.12 202.102 9.608 202.046 10.232H206.198ZM211.48 7.316C212.048 7.316 212.544 7.44 212.968 7.688C213.4 7.936 213.72 8.248 213.928 8.624V7.424H215.032V14.144C215.032 14.744 214.904 15.276 214.648 15.74C214.392 16.212 214.024 16.58 213.544 16.844C213.072 17.108 212.52 17.24 211.888 17.24C211.024 17.24 210.304 17.036 209.728 16.628C209.152 16.22 208.812 15.664 208.708 14.96H209.788C209.908 15.36 210.156 15.68 210.532 15.92C210.908 16.168 211.36 16.292 211.888 16.292C212.488 16.292 212.976 16.104 213.352 15.728C213.736 15.352 213.928 14.824 213.928 14.144V12.764C213.712 13.148 213.392 13.468 212.968 13.724C212.544 13.98 212.048 14.108 211.48 14.108C210.896 14.108 210.364 13.964 209.884 13.676C209.412 13.388 209.04 12.984 208.768 12.464C208.496 11.944 208.36 11.352 208.36 10.688C208.36 10.016 208.496 9.428 208.768 8.924C209.04 8.412 209.412 8.016 209.884 7.736C210.364 7.456 210.896 7.316 211.48 7.316ZM213.928 10.7C213.928 10.204 213.828 9.772 213.628 9.404C213.428 9.036 213.156 8.756 212.812 8.564C212.476 8.364 212.104 8.264 211.696 8.264C211.288 8.264 210.916 8.36 210.58 8.552C210.244 8.744 209.976 9.024 209.776 9.392C209.576 9.76 209.476 10.192 209.476 10.688C209.476 11.192 209.576 11.632 209.776 12.008C209.976 12.376 210.244 12.66 210.58 12.86C210.916 13.052 211.288 13.148 211.696 13.148C212.104 13.148 212.476 13.052 212.812 12.86C213.156 12.66 213.428 12.376 213.628 12.008C213.828 11.632 213.928 11.196 213.928 10.7ZM217.969 8.492C218.161 8.116 218.433 7.824 218.785 7.616C219.145 7.408 219.581 7.304 220.093 7.304V8.432H219.805C218.581 8.432 217.969 9.096 217.969 10.424V14H216.877V7.424H217.969V8.492ZM227.354 10.46C227.354 10.668 227.342 10.888 227.318 11.12H222.062C222.102 11.768 222.322 12.276 222.722 12.644C223.13 13.004 223.622 13.184 224.198 13.184C224.67 13.184 225.062 13.076 225.374 12.86C225.694 12.636 225.918 12.34 226.046 11.972H227.222C227.046 12.604 226.694 13.12 226.166 13.52C225.638 13.912 224.982 14.108 224.198 14.108C223.574 14.108 223.014 13.968 222.518 13.688C222.03 13.408 221.646 13.012 221.366 12.5C221.086 11.98 220.946 11.38 220.946 10.7C220.946 10.02 221.082 9.424 221.354 8.912C221.626 8.4 222.006 8.008 222.494 7.736C222.99 7.456 223.558 7.316 224.198 7.316C224.822 7.316 225.374 7.452 225.854 7.724C226.334 7.996 226.702 8.372 226.958 8.852C227.222 9.324 227.354 9.86 227.354 10.46ZM226.226 10.232C226.226 9.816 226.134 9.46 225.95 9.164C225.766 8.86 225.514 8.632 225.194 8.48C224.882 8.32 224.534 8.24 224.15 8.24C223.598 8.24 223.126 8.416 222.734 8.768C222.35 9.12 222.13 9.608 222.074 10.232H226.226ZM234.795 10.46C234.795 10.668 234.783 10.888 234.759 11.12H229.503C229.543 11.768 229.763 12.276 230.163 12.644C230.571 13.004 231.063 13.184 231.639 13.184C232.111 13.184 232.503 13.076 232.815 12.86C233.135 12.636 233.359 12.34 233.487 11.972H234.663C234.487 12.604 234.135 13.12 233.607 13.52C233.079 13.912 232.423 14.108 231.639 14.108C231.015 14.108 230.455 13.968 229.959 13.688C229.471 13.408 229.087 13.012 228.807 12.5C228.527 11.98 228.387 11.38 228.387 10.7C228.387 10.02 228.523 9.424 228.795 8.912C229.067 8.4 229.447 8.008 229.935 7.736C230.431 7.456 230.999 7.316 231.639 7.316C232.263 7.316 232.815 7.452 233.295 7.724C233.775 7.996 234.143 8.372 234.399 8.852C234.663 9.324 234.795 9.86 234.795 10.46ZM233.667 10.232C233.667 9.816 233.575 9.46 233.391 9.164C233.207 8.86 232.955 8.632 232.635 8.48C232.323 8.32 231.975 8.24 231.591 8.24C231.039 8.24 230.567 8.416 230.175 8.768C229.791 9.12 229.571 9.608 229.515 10.232H233.667Z" fill="#333333"/>
<path d="M236.585 14.072C236.377 14.072 236.201 14 236.057 13.856C235.913 13.712 235.841 13.536 235.841 13.328C235.841 13.12 235.913 12.944 236.057 12.8C236.201 12.656 236.377 12.584 236.585 12.584C236.785 12.584 236.953 12.656 237.089 12.8C237.233 12.944 237.305 13.12 237.305 13.328C237.305 13.536 237.233 13.712 237.089 13.856C236.953 14 236.785 14.072 236.585 14.072Z" fill="black"/>
</svg>
