<svg width="27" height="24" viewBox="0 0 27 24" fill="none" xmlns="http://www.w3.org/2000/svg">
<path d="M3.70177 9.03727C3.51884 8.85197 3.41589 8.60208 3.41479 8.34133V1.98811C3.41479 1.72448 3.51907 1.47171 3.70464 1.2853C3.89021 1.09866 4.14185 0.993921 4.40452 0.993921H12.2036C12.4661 0.993921 12.7179 1.09867 12.9035 1.2853C13.0891 1.47171 13.1933 1.72448 13.1933 1.98811V8.34133C13.1922 8.60208 13.0891 8.85197 12.9064 9.03727L12.2036 9.75321V9.75298C11.8877 10.0759 11.5318 10.3564 11.1445 10.5881C10.0964 11.2416 8.85706 11.515 7.6329 11.363C6.40857 11.211 5.27282 10.6429 4.41429 9.75298L3.70177 9.03727ZM15.8653 10.0812C15.6388 9.94736 15.3808 9.87679 15.1181 9.87679C14.8552 9.87679 14.5974 9.94736 14.3707 10.0812L11.3225 11.8907V11.8905C10.4063 12.4278 9.36445 12.7108 8.30379 12.7108C7.24291 12.7108 6.20126 12.4278 5.28511 11.8905L2.23662 10.091C1.93507 9.91298 1.58029 9.84751 1.23519 9.90654C0.890323 9.96557 0.577042 10.1451 0.351044 10.4136C0.12504 10.6819 0.000661706 11.0219 0 11.3736V22.5087C0.00220925 23.0129 0.254503 23.4827 0.672905 23.7612C0.91415 23.9192 1.19649 24.0022 1.4846 24C1.68961 24.0015 1.89242 23.9573 2.07844 23.8706L4.66169 22.7273H4.66147C6.93808 21.7237 9.52462 21.7022 11.8175 22.6676L14.5393 23.8806C15.0003 24.0728 15.5259 24.0244 15.9446 23.7514C16.359 23.4749 16.608 23.0082 16.6078 22.5087V11.3737C16.608 11.1116 16.5396 10.8544 16.4092 10.6273C16.2789 10.4005 16.0913 10.2121 15.8655 10.0812L15.8653 10.0812ZM23.0609 0H15.2618C14.9994 0 14.7478 0.104749 14.562 0.29138C14.3764 0.477789 14.2721 0.73056 14.2721 0.994193V7.34741C14.2732 7.60816 14.3764 7.85805 14.5591 8.04335L15.2718 8.75928V8.75906C16.1327 9.64827 17.27 10.2155 18.4957 10.3675C19.7212 10.5193 20.9617 10.2466 22.0119 9.59413C22.399 9.36245 22.7549 9.08194 23.0708 8.75906L23.7736 8.04313V8.04335C23.9528 7.85649 24.0524 7.60683 24.0508 7.34741V0.994193C24.0508 0.730554 23.9466 0.477789 23.7608 0.29138C23.5752 0.104743 23.3236 0 23.0611 0H23.0609ZM26.4854 9.51477H26.4852C26.3348 9.42755 26.1642 9.38161 25.9904 9.38161C25.8167 9.38161 25.6459 9.42755 25.4955 9.51477L22.4472 11.3243C20.8323 12.2746 18.8875 12.4777 17.1126 11.8809V20.6798C19.1038 20.2369 21.1838 20.4424 23.051 21.2666L25.6144 22.4197C25.7377 22.4798 25.8733 22.5105 26.0103 22.5093C26.2727 22.5093 26.5246 22.4046 26.7101 22.218C26.8957 22.0316 27 21.7788 27 21.5152V10.3801C26.9987 10.2028 26.9503 10.0293 26.8599 9.87725C26.7694 9.72524 26.6401 9.60008 26.4853 9.51508L26.4854 9.51477Z" fill="#139487"/>
</svg>
