<svg width="348" height="206" viewBox="0 0 348 206" fill="none" xmlns="http://www.w3.org/2000/svg">
<path d="M18.7266 69.8594V57.8916L18.875 55.9619H20.4521V69.8594H18.7266ZM11.9819 61.0923V60.8975C11.9819 60.1305 12.0716 59.4347 12.251 58.8101C12.4303 58.1792 12.6932 57.638 13.0396 57.1865C13.3859 56.735 13.8034 56.3887 14.292 56.1475C14.7868 55.9001 15.3496 55.7764 15.9805 55.7764C16.6113 55.7764 17.1649 55.8877 17.6411 56.1104C18.1235 56.3268 18.5317 56.6453 18.8657 57.0659C19.2059 57.4803 19.4749 57.9813 19.6729 58.5688C19.8708 59.1564 20.0068 59.8213 20.0811 60.5635V61.417C20.013 62.153 19.88 62.8148 19.6821 63.4023C19.4842 63.9899 19.2152 64.4909 18.875 64.9053C18.541 65.3197 18.1297 65.6382 17.6411 65.8608C17.1587 66.0773 16.599 66.1855 15.9619 66.1855C15.3434 66.1855 14.7868 66.0588 14.292 65.8052C13.8034 65.5516 13.3859 65.196 13.0396 64.7383C12.6994 64.2806 12.4365 63.7425 12.251 63.124C12.0716 62.4993 11.9819 61.8221 11.9819 61.0923ZM13.7075 60.8975V61.0923C13.7075 61.5933 13.7601 62.0664 13.8652 62.5117C13.9704 62.9508 14.1312 63.3405 14.3477 63.6807C14.5703 64.0208 14.8486 64.2899 15.1826 64.4878C15.5228 64.6795 15.9248 64.7754 16.3887 64.7754C16.9577 64.7754 17.4308 64.6517 17.8081 64.4043C18.1916 64.1569 18.4977 63.8322 18.7266 63.4302C18.9554 63.022 19.1317 62.5859 19.2554 62.1221V59.8862C19.1873 59.5461 19.0791 59.2152 18.9307 58.8936C18.7884 58.5719 18.6029 58.2843 18.374 58.0308C18.1452 57.771 17.8669 57.5669 17.5391 57.4185C17.2174 57.2638 16.8402 57.1865 16.4072 57.1865C15.9372 57.1865 15.5321 57.2855 15.1919 57.4834C14.8517 57.6813 14.5703 57.9535 14.3477 58.2998C14.1312 58.64 13.9704 59.0327 13.8652 59.478C13.7601 59.9233 13.7075 60.3965 13.7075 60.8975Z" fill="#354044"/>
<path d="M35.5596 107.284V102.116C35.5596 101.72 35.4792 101.377 35.3184 101.086C35.1637 100.79 34.9287 100.561 34.6133 100.4C34.2979 100.239 33.9082 100.159 33.4443 100.159C33.0114 100.159 32.631 100.233 32.3032 100.381C31.9816 100.53 31.728 100.725 31.5425 100.966C31.3631 101.207 31.2734 101.467 31.2734 101.745H29.5571C29.5571 101.386 29.6499 101.031 29.8354 100.678C30.021 100.326 30.2869 100.007 30.6333 99.7227C30.9858 99.432 31.4064 99.2031 31.895 99.0361C32.3898 98.863 32.9403 98.7764 33.5464 98.7764C34.2762 98.7764 34.9194 98.9001 35.4761 99.1475C36.0389 99.3949 36.478 99.769 36.7935 100.27C37.1151 100.765 37.2759 101.386 37.2759 102.135V106.811C37.2759 107.145 37.3037 107.5 37.3594 107.877C37.4212 108.255 37.5109 108.579 37.6284 108.852V109H35.8379C35.7513 108.802 35.6833 108.539 35.6338 108.211C35.5843 107.877 35.5596 107.568 35.5596 107.284ZM35.8564 102.914L35.875 104.12H34.1401C33.6515 104.12 33.2155 104.16 32.832 104.241C32.4486 104.315 32.127 104.429 31.8672 104.584C31.6074 104.739 31.4095 104.933 31.2734 105.168C31.1374 105.397 31.0693 105.666 31.0693 105.976C31.0693 106.291 31.1405 106.579 31.2827 106.838C31.425 107.098 31.6383 107.305 31.9229 107.46C32.2135 107.608 32.5692 107.683 32.9897 107.683C33.5155 107.683 33.9793 107.571 34.3813 107.349C34.7834 107.126 35.1019 106.854 35.3369 106.532C35.5781 106.211 35.708 105.898 35.7266 105.595L36.4595 106.421C36.4162 106.681 36.2987 106.968 36.1069 107.284C35.9152 107.599 35.6585 107.902 35.3369 108.193C35.0215 108.477 34.6442 108.715 34.2051 108.907C33.7721 109.093 33.2835 109.186 32.7393 109.186C32.0589 109.186 31.4621 109.053 30.9487 108.787C30.4416 108.521 30.0457 108.165 29.7612 107.72C29.4829 107.268 29.3438 106.764 29.3438 106.208C29.3438 105.669 29.4489 105.196 29.6592 104.788C29.8695 104.374 30.1725 104.03 30.5684 103.758C30.9642 103.48 31.4404 103.27 31.9971 103.127C32.5537 102.985 33.1753 102.914 33.8618 102.914H35.8564Z" fill="#354044"/>
<path d="M73.5728 150.59V152H66.2715V150.59H73.5728ZM73.3037 143.177L66.6611 152H65.6128V150.738L72.209 141.962H73.3037V143.177ZM72.543 141.962V143.381H65.687V141.962H72.543Z" fill="#354044"/>
<path d="M48.2065 64.2188L50.7856 55.9619H51.9175L51.6948 57.604L49.0693 66H47.9653L48.2065 64.2188ZM46.4717 55.9619L48.6704 64.3115L48.8281 66H47.6685L44.7554 55.9619H46.4717ZM54.3853 64.2466L56.4819 55.9619H58.189L55.2759 66H54.1255L54.3853 64.2466ZM52.168 55.9619L54.6914 64.0796L54.979 66H53.8843L51.1846 57.5854L50.9619 55.9619H52.168Z" fill="#354044"/>
<path d="M70.7451 106.337C70.7451 106.09 70.6895 105.861 70.5781 105.651C70.473 105.434 70.2534 105.24 69.9194 105.066C69.5916 104.887 69.0968 104.732 68.4351 104.603C67.8784 104.485 67.3743 104.346 66.9229 104.185C66.4775 104.024 66.0972 103.829 65.7817 103.601C65.4725 103.372 65.2344 103.103 65.0674 102.793C64.9004 102.484 64.8169 102.122 64.8169 101.708C64.8169 101.312 64.9035 100.938 65.0767 100.585C65.256 100.233 65.5065 99.9206 65.8281 99.6484C66.1559 99.3763 66.5487 99.1629 67.0063 99.0083C67.464 98.8537 67.9743 98.7764 68.5371 98.7764C69.3411 98.7764 70.0277 98.9186 70.5967 99.2031C71.1657 99.4876 71.6017 99.868 71.9048 100.344C72.2078 100.814 72.3594 101.337 72.3594 101.912H70.6431C70.6431 101.634 70.5596 101.365 70.3926 101.105C70.2318 100.839 69.9937 100.619 69.6782 100.446C69.369 100.273 68.9886 100.187 68.5371 100.187C68.0609 100.187 67.6743 100.261 67.3774 100.409C67.0868 100.551 66.8734 100.734 66.7373 100.957C66.6074 101.179 66.5425 101.414 66.5425 101.662C66.5425 101.847 66.5734 102.014 66.6353 102.163C66.7033 102.305 66.8208 102.438 66.9878 102.562C67.1548 102.679 67.3898 102.79 67.6929 102.896C67.9959 103.001 68.3825 103.106 68.8525 103.211C69.6751 103.396 70.3524 103.619 70.8843 103.879C71.4162 104.139 71.812 104.457 72.0718 104.834C72.3315 105.212 72.4614 105.669 72.4614 106.208C72.4614 106.647 72.3687 107.049 72.1831 107.414C72.0037 107.778 71.7409 108.094 71.3945 108.36C71.0544 108.62 70.6462 108.824 70.1699 108.972C69.6999 109.114 69.1711 109.186 68.5835 109.186C67.6991 109.186 66.9507 109.028 66.3384 108.712C65.7261 108.397 65.2622 107.989 64.9468 107.488C64.6313 106.987 64.4736 106.458 64.4736 105.901H66.1992C66.224 106.371 66.36 106.746 66.6074 107.024C66.8548 107.296 67.1579 107.491 67.5166 107.608C67.8753 107.72 68.231 107.775 68.5835 107.775C69.0535 107.775 69.4463 107.714 69.7617 107.59C70.0833 107.466 70.3276 107.296 70.4946 107.08C70.6616 106.863 70.7451 106.616 70.7451 106.337Z" fill="#354044"/>
<path d="M102.255 141.962L104.454 145.617L106.68 141.962H108.693L105.409 146.916L108.795 152H106.81L104.491 148.233L102.171 152H100.177L103.554 146.916L100.279 141.962H102.255Z" fill="#354044"/>
<path d="M86.936 66.1855C86.2371 66.1855 85.6032 66.068 85.0342 65.833C84.4714 65.5918 83.9858 65.2547 83.5776 64.8218C83.1756 64.3888 82.8664 63.8755 82.6499 63.2817C82.4334 62.688 82.3252 62.0386 82.3252 61.3335V60.9438C82.3252 60.1274 82.4458 59.4007 82.687 58.7637C82.9282 58.1204 83.256 57.5762 83.6704 57.1309C84.0848 56.6855 84.5549 56.3485 85.0806 56.1196C85.6063 55.8908 86.1506 55.7764 86.7134 55.7764C87.4308 55.7764 88.0493 55.9001 88.5688 56.1475C89.0946 56.3949 89.5244 56.7412 89.8584 57.1865C90.1924 57.6257 90.4398 58.1452 90.6006 58.7451C90.7614 59.3389 90.8418 59.9883 90.8418 60.6934V61.4634H83.3457V60.0625H89.1255V59.9326C89.1007 59.4873 89.008 59.0544 88.8472 58.6338C88.6925 58.2132 88.4451 57.8669 88.105 57.5947C87.7648 57.3226 87.3009 57.1865 86.7134 57.1865C86.3237 57.1865 85.965 57.27 85.6372 57.437C85.3094 57.5978 85.028 57.839 84.793 58.1606C84.5579 58.4823 84.3755 58.875 84.2456 59.3389C84.1157 59.8027 84.0508 60.3377 84.0508 60.9438V61.3335C84.0508 61.8097 84.1157 62.2581 84.2456 62.6787C84.3817 63.0931 84.5765 63.458 84.8301 63.7734C85.0898 64.0889 85.4022 64.3363 85.7671 64.5156C86.1382 64.695 86.5588 64.7847 87.0288 64.7847C87.6349 64.7847 88.1483 64.661 88.5688 64.4136C88.9894 64.1662 89.3574 63.8353 89.6729 63.4209L90.7119 64.2466C90.4954 64.5744 90.2202 64.8867 89.8862 65.1836C89.5522 65.4805 89.141 65.7217 88.6523 65.9072C88.1699 66.0928 87.5978 66.1855 86.936 66.1855Z" fill="#354044"/>
<path d="M105.773 107.052V94.75H107.499V109H105.921L105.773 107.052ZM99.019 104.092V103.897C99.019 103.131 99.1118 102.435 99.2974 101.81C99.4891 101.179 99.7581 100.638 100.104 100.187C100.457 99.735 100.875 99.3887 101.357 99.1475C101.846 98.9001 102.39 98.7764 102.99 98.7764C103.621 98.7764 104.171 98.8877 104.641 99.1104C105.117 99.3268 105.519 99.6453 105.847 100.066C106.181 100.48 106.444 100.981 106.636 101.569C106.827 102.156 106.96 102.821 107.035 103.563V104.417C106.967 105.153 106.834 105.815 106.636 106.402C106.444 106.99 106.181 107.491 105.847 107.905C105.519 108.32 105.117 108.638 104.641 108.861C104.165 109.077 103.608 109.186 102.971 109.186C102.384 109.186 101.846 109.059 101.357 108.805C100.875 108.552 100.457 108.196 100.104 107.738C99.7581 107.281 99.4891 106.743 99.2974 106.124C99.1118 105.499 99.019 104.822 99.019 104.092ZM100.745 103.897V104.092C100.745 104.593 100.794 105.063 100.893 105.502C100.998 105.942 101.159 106.328 101.375 106.662C101.592 106.996 101.867 107.259 102.201 107.451C102.535 107.636 102.934 107.729 103.398 107.729C103.967 107.729 104.434 107.608 104.799 107.367C105.17 107.126 105.467 106.807 105.689 106.412C105.912 106.016 106.085 105.586 106.209 105.122V102.886C106.135 102.546 106.027 102.218 105.884 101.903C105.748 101.581 105.569 101.297 105.346 101.049C105.13 100.796 104.861 100.595 104.539 100.446C104.224 100.298 103.849 100.224 103.417 100.224C102.946 100.224 102.541 100.323 102.201 100.521C101.867 100.712 101.592 100.978 101.375 101.318C101.159 101.652 100.998 102.042 100.893 102.487C100.794 102.926 100.745 103.396 100.745 103.897Z" fill="#354044"/>
<path d="M139.853 150.775C140.261 150.775 140.638 150.692 140.984 150.525C141.331 150.358 141.615 150.129 141.838 149.838C142.061 149.542 142.187 149.204 142.218 148.827H143.851C143.82 149.421 143.619 149.974 143.248 150.488C142.883 150.995 142.404 151.406 141.81 151.722C141.216 152.031 140.564 152.186 139.853 152.186C139.098 152.186 138.439 152.053 137.876 151.787C137.32 151.521 136.856 151.156 136.485 150.692C136.12 150.228 135.845 149.696 135.659 149.096C135.48 148.49 135.39 147.85 135.39 147.176V146.786C135.39 146.112 135.48 145.475 135.659 144.875C135.845 144.269 136.12 143.734 136.485 143.27C136.856 142.806 137.32 142.441 137.876 142.175C138.439 141.909 139.098 141.776 139.853 141.776C140.638 141.776 141.325 141.937 141.912 142.259C142.5 142.574 142.96 143.007 143.294 143.558C143.635 144.102 143.82 144.72 143.851 145.413H142.218C142.187 144.999 142.07 144.625 141.866 144.291C141.668 143.957 141.396 143.691 141.049 143.493C140.709 143.289 140.31 143.187 139.853 143.187C139.327 143.187 138.885 143.292 138.526 143.502C138.173 143.706 137.892 143.984 137.682 144.337C137.478 144.683 137.329 145.07 137.236 145.497C137.15 145.917 137.106 146.347 137.106 146.786V147.176C137.106 147.615 137.15 148.048 137.236 148.475C137.323 148.901 137.468 149.288 137.672 149.634C137.883 149.981 138.164 150.259 138.517 150.469C138.875 150.673 139.321 150.775 139.853 150.775Z" fill="#354044"/>
<path d="M121.305 57.5391V66H119.589V55.9619H121.259L121.305 57.5391ZM124.441 55.9062L124.432 57.502C124.289 57.471 124.153 57.4525 124.023 57.4463C123.9 57.4339 123.757 57.4277 123.597 57.4277C123.201 57.4277 122.851 57.4896 122.548 57.6133C122.245 57.737 121.989 57.9102 121.778 58.1328C121.568 58.3555 121.401 58.6214 121.277 58.9307C121.16 59.2337 121.083 59.5677 121.045 59.9326L120.563 60.2109C120.563 59.6048 120.622 59.0358 120.739 58.5039C120.863 57.972 121.052 57.502 121.305 57.0938C121.559 56.6794 121.88 56.3577 122.27 56.1289C122.666 55.8939 123.136 55.7764 123.68 55.7764C123.804 55.7764 123.946 55.7918 124.107 55.8228C124.268 55.8475 124.379 55.8753 124.441 55.9062Z" fill="#354044"/>
<path d="M139.066 109H137.35V97.9043C137.35 97.1807 137.479 96.5715 137.739 96.0767C138.005 95.5757 138.386 95.1984 138.88 94.9448C139.375 94.6851 139.963 94.5552 140.643 94.5552C140.841 94.5552 141.039 94.5675 141.237 94.5923C141.441 94.617 141.639 94.6541 141.831 94.7036L141.738 96.1045C141.608 96.0736 141.459 96.0519 141.292 96.0396C141.132 96.0272 140.971 96.021 140.81 96.021C140.445 96.021 140.13 96.0952 139.864 96.2437C139.604 96.3859 139.406 96.5962 139.27 96.8745C139.134 97.1528 139.066 97.4961 139.066 97.9043V109ZM141.2 98.9619V100.279H135.763V98.9619H141.2Z" fill="#354044"/>
<path d="M174.259 150.451L177.005 141.962H178.758L175.149 152H173.999L174.259 150.451ZM171.967 141.962L174.797 150.497L174.992 152H173.841L170.205 141.962H171.967Z" fill="#354044"/>
<path d="M158.903 55.9619V57.2793H153.476V55.9619H158.903ZM155.312 53.522H157.029V63.5137C157.029 63.8538 157.081 64.1105 157.187 64.2837C157.292 64.4569 157.428 64.5713 157.595 64.627C157.762 64.6826 157.941 64.7104 158.133 64.7104C158.275 64.7104 158.424 64.6981 158.578 64.6733C158.739 64.6424 158.86 64.6177 158.94 64.5991L158.949 66C158.813 66.0433 158.634 66.0835 158.411 66.1206C158.195 66.1639 157.932 66.1855 157.623 66.1855C157.202 66.1855 156.815 66.1021 156.463 65.9351C156.11 65.7681 155.829 65.4897 155.619 65.1001C155.415 64.7043 155.312 64.1724 155.312 63.5044V53.522Z" fill="#354044"/>
<path d="M175.977 98.9619H177.536V108.787C177.536 109.671 177.356 110.426 176.998 111.05C176.639 111.675 176.138 112.148 175.495 112.47C174.858 112.798 174.122 112.961 173.287 112.961C172.94 112.961 172.532 112.906 172.062 112.794C171.598 112.689 171.14 112.507 170.689 112.247C170.244 111.993 169.869 111.65 169.566 111.217L170.466 110.197C170.887 110.704 171.326 111.056 171.784 111.254C172.248 111.452 172.705 111.551 173.157 111.551C173.701 111.551 174.171 111.449 174.567 111.245C174.963 111.041 175.269 110.738 175.485 110.336C175.708 109.94 175.819 109.451 175.819 108.87V101.17L175.977 98.9619ZM169.065 104.092V103.897C169.065 103.131 169.155 102.435 169.334 101.81C169.52 101.179 169.783 100.638 170.123 100.187C170.469 99.735 170.887 99.3887 171.375 99.1475C171.864 98.9001 172.415 98.7764 173.027 98.7764C173.658 98.7764 174.208 98.8877 174.678 99.1104C175.154 99.3268 175.556 99.6453 175.884 100.066C176.218 100.48 176.481 100.981 176.673 101.569C176.865 102.156 176.998 102.821 177.072 103.563V104.417C177.004 105.153 176.871 105.815 176.673 106.402C176.481 106.99 176.218 107.491 175.884 107.905C175.556 108.32 175.154 108.638 174.678 108.861C174.202 109.077 173.645 109.186 173.008 109.186C172.408 109.186 171.864 109.059 171.375 108.805C170.893 108.552 170.479 108.196 170.132 107.738C169.786 107.281 169.52 106.743 169.334 106.124C169.155 105.499 169.065 104.822 169.065 104.092ZM170.782 103.897V104.092C170.782 104.593 170.831 105.063 170.93 105.502C171.035 105.942 171.193 106.328 171.403 106.662C171.62 106.996 171.895 107.259 172.229 107.451C172.563 107.636 172.962 107.729 173.426 107.729C173.995 107.729 174.465 107.608 174.836 107.367C175.207 107.126 175.501 106.807 175.717 106.412C175.94 106.016 176.113 105.586 176.237 105.122V102.886C176.169 102.546 176.064 102.218 175.921 101.903C175.785 101.581 175.606 101.297 175.383 101.049C175.167 100.796 174.898 100.595 174.576 100.446C174.255 100.298 173.877 100.224 173.444 100.224C172.974 100.224 172.569 100.323 172.229 100.521C171.895 100.712 171.62 100.978 171.403 101.318C171.193 101.652 171.035 102.042 170.93 102.487C170.831 102.926 170.782 103.396 170.782 103.897Z" fill="#354044"/>
<path d="M205.464 137.75H207.19V150.052L207.042 152H205.464V137.75ZM213.972 146.897V147.092C213.972 147.822 213.885 148.499 213.712 149.124C213.539 149.743 213.285 150.281 212.951 150.738C212.617 151.196 212.209 151.552 211.727 151.805C211.244 152.059 210.691 152.186 210.066 152.186C209.429 152.186 208.869 152.077 208.387 151.861C207.91 151.638 207.508 151.32 207.181 150.905C206.853 150.491 206.59 149.99 206.392 149.402C206.2 148.815 206.067 148.153 205.993 147.417V146.563C206.067 145.821 206.2 145.156 206.392 144.569C206.59 143.981 206.853 143.48 207.181 143.066C207.508 142.645 207.91 142.327 208.387 142.11C208.863 141.888 209.417 141.776 210.047 141.776C210.678 141.776 211.238 141.9 211.727 142.147C212.215 142.389 212.623 142.735 212.951 143.187C213.285 143.638 213.539 144.179 213.712 144.81C213.885 145.435 213.972 146.131 213.972 146.897ZM212.246 147.092V146.897C212.246 146.396 212.2 145.926 212.107 145.487C212.014 145.042 211.866 144.652 211.662 144.318C211.458 143.978 211.188 143.712 210.854 143.521C210.521 143.323 210.109 143.224 209.621 143.224C209.188 143.224 208.81 143.298 208.489 143.446C208.173 143.595 207.904 143.796 207.682 144.049C207.459 144.297 207.277 144.581 207.134 144.903C206.998 145.218 206.896 145.546 206.828 145.886V148.122C206.927 148.555 207.088 148.972 207.311 149.375C207.539 149.77 207.842 150.095 208.22 150.349C208.603 150.602 209.076 150.729 209.639 150.729C210.103 150.729 210.499 150.636 210.827 150.451C211.161 150.259 211.43 149.996 211.634 149.662C211.844 149.328 211.999 148.942 212.098 148.502C212.197 148.063 212.246 147.593 212.246 147.092Z" fill="#354044"/>
<path d="M191.129 64.9609L193.921 55.9619H195.758L191.732 67.5493C191.639 67.7967 191.515 68.0627 191.361 68.3472C191.212 68.6379 191.021 68.9131 190.786 69.1729C190.551 69.4326 190.266 69.6429 189.932 69.8037C189.604 69.9707 189.212 70.0542 188.754 70.0542C188.618 70.0542 188.445 70.0356 188.234 69.9985C188.024 69.9614 187.876 69.9305 187.789 69.9058L187.78 68.5142C187.829 68.5203 187.907 68.5265 188.012 68.5327C188.123 68.5451 188.2 68.5513 188.244 68.5513C188.633 68.5513 188.964 68.4987 189.236 68.3936C189.508 68.2946 189.737 68.1245 189.923 67.8833C190.115 67.6483 190.278 67.3236 190.415 66.9092L191.129 64.9609ZM189.079 55.9619L191.686 63.7549L192.131 65.564L190.897 66.1948L187.205 55.9619H189.079Z" fill="#354044"/>
<path d="M206.292 94.75V109H204.576V94.75H206.292ZM205.884 103.601L205.169 103.573C205.176 102.886 205.278 102.252 205.476 101.671C205.674 101.083 205.952 100.573 206.311 100.14C206.669 99.7072 207.096 99.3732 207.591 99.1382C208.092 98.897 208.645 98.7764 209.251 98.7764C209.746 98.7764 210.192 98.8444 210.587 98.9805C210.983 99.1104 211.32 99.3206 211.599 99.6113C211.883 99.902 212.1 100.279 212.248 100.743C212.396 101.201 212.471 101.761 212.471 102.422V109H210.745V102.404C210.745 101.878 210.668 101.458 210.513 101.142C210.359 100.82 210.133 100.589 209.836 100.446C209.539 100.298 209.174 100.224 208.741 100.224C208.314 100.224 207.925 100.313 207.572 100.493C207.226 100.672 206.926 100.919 206.672 101.235C206.425 101.55 206.23 101.912 206.088 102.32C205.952 102.722 205.884 103.149 205.884 103.601Z" fill="#354044"/>
<path d="M242.273 144.105V152H240.557V141.962H242.181L242.273 144.105ZM241.865 146.601L241.151 146.573C241.157 145.886 241.259 145.252 241.457 144.671C241.655 144.083 241.933 143.573 242.292 143.14C242.651 142.707 243.077 142.373 243.572 142.138C244.073 141.897 244.627 141.776 245.233 141.776C245.728 141.776 246.173 141.844 246.569 141.98C246.965 142.11 247.302 142.321 247.58 142.611C247.865 142.902 248.081 143.279 248.229 143.743C248.378 144.201 248.452 144.761 248.452 145.422V152H246.727V145.404C246.727 144.878 246.649 144.458 246.495 144.142C246.34 143.82 246.114 143.589 245.817 143.446C245.521 143.298 245.156 143.224 244.723 143.224C244.296 143.224 243.906 143.313 243.554 143.493C243.207 143.672 242.907 143.919 242.654 144.235C242.406 144.55 242.212 144.912 242.069 145.32C241.933 145.722 241.865 146.149 241.865 146.601Z" fill="#354044"/>
<path d="M228.708 63.6807V55.9619H230.434V66H228.792L228.708 63.6807ZM229.033 61.5654L229.747 61.5469C229.747 62.2148 229.676 62.8333 229.534 63.4023C229.398 63.9652 229.175 64.4538 228.866 64.8682C228.556 65.2826 228.151 65.6073 227.65 65.8423C227.149 66.0711 226.54 66.1855 225.823 66.1855C225.334 66.1855 224.886 66.1144 224.478 65.9722C224.076 65.8299 223.729 65.6104 223.438 65.3135C223.148 65.0166 222.922 64.63 222.761 64.1538C222.607 63.6776 222.529 63.1055 222.529 62.4375V55.9619H224.246V62.4561C224.246 62.9076 224.295 63.2817 224.394 63.5786C224.499 63.8693 224.638 64.1012 224.812 64.2744C224.991 64.4414 225.189 64.5589 225.405 64.627C225.628 64.695 225.857 64.729 226.092 64.729C226.822 64.729 227.4 64.5898 227.827 64.3115C228.253 64.027 228.56 63.6466 228.745 63.1704C228.937 62.688 229.033 62.153 229.033 61.5654Z" fill="#354044"/>
<path d="M242.582 98.9619H244.307V110.197C244.307 110.809 244.208 111.329 244.01 111.755C243.819 112.182 243.528 112.504 243.138 112.72C242.755 112.943 242.269 113.054 241.682 113.054C241.527 113.054 241.348 113.039 241.144 113.008C240.933 112.977 240.757 112.94 240.615 112.896L240.624 111.514C240.742 111.539 240.875 111.557 241.023 111.57C241.171 111.588 241.301 111.598 241.413 111.598C241.666 111.598 241.88 111.551 242.053 111.458C242.226 111.366 242.356 111.217 242.442 111.013C242.535 110.809 242.582 110.537 242.582 110.197V98.9619ZM242.405 96.2993C242.405 96.021 242.492 95.786 242.665 95.5942C242.838 95.4025 243.089 95.3066 243.417 95.3066C243.75 95.3066 244.004 95.4025 244.177 95.5942C244.35 95.786 244.437 96.021 244.437 96.2993C244.437 96.5653 244.35 96.7941 244.177 96.9858C244.004 97.1714 243.75 97.2642 243.417 97.2642C243.089 97.2642 242.838 97.1714 242.665 96.9858C242.492 96.7941 242.405 96.5653 242.405 96.2993Z" fill="#354044"/>
<path d="M274.184 143.957V152H272.458V141.962H274.091L274.184 143.957ZM273.832 146.601L273.034 146.573C273.04 145.886 273.13 145.252 273.303 144.671C273.476 144.083 273.733 143.573 274.073 143.14C274.413 142.707 274.837 142.373 275.344 142.138C275.851 141.897 276.438 141.776 277.106 141.776C277.576 141.776 278.009 141.844 278.405 141.98C278.801 142.11 279.144 142.318 279.435 142.602C279.726 142.887 279.951 143.251 280.112 143.697C280.273 144.142 280.354 144.68 280.354 145.311V152H278.637V145.395C278.637 144.869 278.548 144.448 278.368 144.133C278.195 143.817 277.948 143.589 277.626 143.446C277.304 143.298 276.927 143.224 276.494 143.224C275.987 143.224 275.563 143.313 275.223 143.493C274.883 143.672 274.611 143.919 274.407 144.235C274.203 144.55 274.054 144.912 273.961 145.32C273.875 145.722 273.832 146.149 273.832 146.601ZM280.335 145.654L279.185 146.007C279.191 145.456 279.28 144.928 279.454 144.42C279.633 143.913 279.89 143.462 280.224 143.066C280.564 142.67 280.981 142.358 281.476 142.129C281.971 141.894 282.537 141.776 283.174 141.776C283.712 141.776 284.188 141.847 284.603 141.99C285.023 142.132 285.376 142.352 285.66 142.648C285.951 142.939 286.17 143.313 286.319 143.771C286.467 144.229 286.542 144.773 286.542 145.404V152H284.816V145.385C284.816 144.822 284.726 144.386 284.547 144.077C284.374 143.762 284.126 143.542 283.805 143.418C283.489 143.289 283.112 143.224 282.673 143.224C282.296 143.224 281.962 143.289 281.671 143.418C281.38 143.548 281.136 143.728 280.938 143.957C280.74 144.179 280.589 144.436 280.483 144.727C280.384 145.017 280.335 145.326 280.335 145.654Z" fill="#354044"/>
<path d="M262.363 55.9619V66H260.637V55.9619H262.363ZM260.507 53.2993C260.507 53.021 260.591 52.786 260.758 52.5942C260.931 52.4025 261.185 52.3066 261.519 52.3066C261.846 52.3066 262.097 52.4025 262.27 52.5942C262.449 52.786 262.539 53.021 262.539 53.2993C262.539 53.5653 262.449 53.7941 262.27 53.9858C262.097 54.1714 261.846 54.2642 261.519 54.2642C261.185 54.2642 260.931 54.1714 260.758 53.9858C260.591 53.7941 260.507 53.5653 260.507 53.2993Z" fill="#354044"/>
<path d="M276.719 94.75V109H274.993V94.75H276.719ZM282.851 98.9619L278.472 103.647L276.023 106.189L275.884 104.361L277.637 102.265L280.754 98.9619H282.851ZM281.283 109L277.702 104.213L278.593 102.682L283.306 109H281.283Z" fill="#354044"/>
<path d="M291.936 61.0923V60.8789C291.936 60.1553 292.041 59.4842 292.251 58.8657C292.461 58.241 292.764 57.6999 293.16 57.2422C293.556 56.7783 294.035 56.4196 294.598 56.166C295.161 55.9062 295.792 55.7764 296.491 55.7764C297.196 55.7764 297.83 55.9062 298.393 56.166C298.962 56.4196 299.444 56.7783 299.84 57.2422C300.242 57.6999 300.548 58.241 300.758 58.8657C300.969 59.4842 301.074 60.1553 301.074 60.8789V61.0923C301.074 61.8159 300.969 62.487 300.758 63.1055C300.548 63.724 300.242 64.2651 299.84 64.729C299.444 65.1867 298.965 65.5454 298.402 65.8052C297.845 66.0588 297.214 66.1855 296.509 66.1855C295.804 66.1855 295.17 66.0588 294.607 65.8052C294.045 65.5454 293.562 65.1867 293.16 64.729C292.764 64.2651 292.461 63.724 292.251 63.1055C292.041 62.487 291.936 61.8159 291.936 61.0923ZM293.652 60.8789V61.0923C293.652 61.5933 293.711 62.0664 293.828 62.5117C293.946 62.9508 294.122 63.3405 294.357 63.6807C294.598 64.0208 294.898 64.2899 295.257 64.4878C295.616 64.6795 296.033 64.7754 296.509 64.7754C296.979 64.7754 297.391 64.6795 297.743 64.4878C298.102 64.2899 298.399 64.0208 298.634 63.6807C298.869 63.3405 299.045 62.9508 299.163 62.5117C299.286 62.0664 299.348 61.5933 299.348 61.0923V60.8789C299.348 60.3841 299.286 59.9172 299.163 59.478C299.045 59.0327 298.866 58.64 298.625 58.2998C298.389 57.9535 298.093 57.6813 297.734 57.4834C297.381 57.2855 296.967 57.1865 296.491 57.1865C296.021 57.1865 295.606 57.2855 295.248 57.4834C294.895 57.6813 294.598 57.9535 294.357 58.2998C294.122 58.64 293.946 59.0327 293.828 59.478C293.711 59.9172 293.652 60.3841 293.652 60.8789Z" fill="#354044"/>
<path d="M314.363 94.75V109H312.637V94.75H314.363Z" fill="#354044"/>
<path d="M329.19 57.8916V69.8594H327.464V55.9619H329.042L329.19 57.8916ZM335.953 60.8975V61.0923C335.953 61.8221 335.867 62.4993 335.693 63.124C335.52 63.7425 335.267 64.2806 334.933 64.7383C334.605 65.196 334.2 65.5516 333.717 65.8052C333.235 66.0588 332.681 66.1855 332.057 66.1855C331.42 66.1855 330.857 66.0804 330.368 65.8701C329.88 65.6598 329.465 65.3537 329.125 64.9517C328.785 64.5496 328.513 64.0672 328.309 63.5044C328.111 62.9416 327.975 62.3076 327.9 61.6025V60.5635C327.975 59.8213 328.114 59.1564 328.318 58.5688C328.522 57.9813 328.791 57.4803 329.125 57.0659C329.465 56.6453 329.876 56.3268 330.359 56.1104C330.841 55.8877 331.398 55.7764 332.029 55.7764C332.66 55.7764 333.219 55.9001 333.708 56.1475C334.197 56.3887 334.608 56.735 334.942 57.1865C335.276 57.638 335.526 58.1792 335.693 58.8101C335.867 59.4347 335.953 60.1305 335.953 60.8975ZM334.228 61.0923V60.8975C334.228 60.3965 334.175 59.9264 334.07 59.4873C333.965 59.042 333.801 58.6523 333.578 58.3184C333.362 57.9782 333.083 57.7122 332.743 57.5205C332.403 57.3226 331.998 57.2236 331.528 57.2236C331.095 57.2236 330.718 57.2979 330.396 57.4463C330.081 57.5947 329.812 57.7957 329.589 58.0493C329.366 58.2967 329.184 58.5812 329.042 58.9028C328.905 59.2183 328.803 59.5461 328.735 59.8862V62.2891C328.859 62.722 329.032 63.1302 329.255 63.5137C329.478 63.891 329.774 64.1971 330.146 64.4321C330.517 64.661 330.984 64.7754 331.546 64.7754C332.01 64.7754 332.409 64.6795 332.743 64.4878C333.083 64.2899 333.362 64.0208 333.578 63.6807C333.801 63.3405 333.965 62.9508 334.07 62.5117C334.175 62.0664 334.228 61.5933 334.228 61.0923Z" fill="#354044"/>
<path fill-rule="evenodd" clip-rule="evenodd" d="M27 139L35.6602 148H30V153H24V148H18.3397L27 139ZM30 160.5V159H24V160.5H30Z" fill="#7F8A8E"/>
<rect x="314" y="139" width="14" height="13" fill="#7F8A8E"/>
<path d="M308 145.5L314 139.005V151.995L308 145.5Z" fill="#7F8A8E"/>
<line x1="317.53" y1="142.47" x2="323.53" y2="148.47" stroke="#EBEFF2" stroke-width="1.5"/>
<line y1="-0.75" x2="8.48528" y2="-0.75" transform="matrix(-0.707107 0.707107 0.707107 0.707107 324 143)" stroke="#EBEFF2" stroke-width="1.5"/>
<rect x="123" y="172" width="129" height="34" rx="3" fill="#C8CDD1"/>
<path d="M274.831 198.091C274.831 197.8 274.921 197.556 275.1 197.358C275.286 197.154 275.552 197.052 275.898 197.052C276.244 197.052 276.507 197.154 276.687 197.358C276.872 197.556 276.965 197.8 276.965 198.091C276.965 198.375 276.872 198.617 276.687 198.814C276.507 199.012 276.244 199.111 275.898 199.111C275.552 199.111 275.286 199.012 275.1 198.814C274.921 198.617 274.831 198.375 274.831 198.091Z" fill="#354044"/>
<path d="M63.9927 196.959V198.341C63.9927 198.904 63.8504 199.498 63.5659 200.123C63.2814 200.753 62.8825 201.279 62.3691 201.7L61.395 201.022C61.5929 200.75 61.7599 200.472 61.896 200.188C62.0321 199.909 62.1341 199.618 62.2021 199.315C62.2764 199.019 62.3135 198.703 62.3135 198.369V196.959H63.9927Z" fill="#354044"/>
<path d="M14.9058 190.277H13.4902C13.4945 189.883 13.5283 189.553 13.5918 189.287C13.6553 189.016 13.7611 188.77 13.9092 188.55C14.0615 188.33 14.2625 188.097 14.5122 187.852C14.7069 187.666 14.8825 187.49 15.0391 187.325C15.1956 187.156 15.3205 186.978 15.4136 186.792C15.5067 186.602 15.5532 186.384 15.5532 186.138C15.5532 185.872 15.5088 185.645 15.4199 185.459C15.3311 185.273 15.1999 185.131 15.0264 185.034C14.8571 184.936 14.6455 184.888 14.3916 184.888C14.18 184.888 13.9811 184.93 13.7949 185.015C13.6087 185.095 13.4585 185.222 13.3442 185.396C13.23 185.565 13.1686 185.789 13.1602 186.068H11.6304C11.6388 185.535 11.7658 185.087 12.0112 184.723C12.2567 184.359 12.5868 184.086 13.0015 183.904C13.4162 183.722 13.8796 183.631 14.3916 183.631C14.9587 183.631 15.4432 183.728 15.8452 183.923C16.2472 184.113 16.554 184.393 16.7656 184.761C16.9814 185.125 17.0894 185.565 17.0894 186.081C17.0894 186.453 17.0153 186.792 16.8672 187.097C16.7191 187.397 16.5265 187.679 16.2896 187.941C16.0526 188.199 15.7965 188.457 15.5215 188.715C15.2845 188.931 15.1237 189.166 15.0391 189.42C14.9544 189.67 14.91 189.955 14.9058 190.277ZM13.3633 192.257C13.3633 192.029 13.4416 191.836 13.5981 191.68C13.7547 191.519 13.9684 191.438 14.2393 191.438C14.5101 191.438 14.7238 191.519 14.8804 191.68C15.0369 191.836 15.1152 192.029 15.1152 192.257C15.1152 192.486 15.0369 192.681 14.8804 192.841C14.7238 192.998 14.5101 193.076 14.2393 193.076C13.9684 193.076 13.7547 192.998 13.5981 192.841C13.4416 192.681 13.3633 192.486 13.3633 192.257ZM22.4531 183.726V193H20.9233V185.542L18.6572 186.31V185.046L22.269 183.726H22.4531ZM31.8604 191.781V193H25.665V191.953L28.6738 188.671C29.0039 188.299 29.2642 187.977 29.4546 187.706C29.645 187.435 29.7783 187.192 29.8545 186.976C29.9349 186.756 29.9751 186.542 29.9751 186.335C29.9751 186.043 29.9201 185.787 29.8101 185.567C29.7043 185.343 29.5477 185.167 29.3403 185.04C29.133 184.909 28.8812 184.843 28.585 184.843C28.2422 184.843 27.9544 184.917 27.7217 185.065C27.4889 185.214 27.3133 185.419 27.1948 185.681C27.0763 185.939 27.0171 186.236 27.0171 186.57H25.4873C25.4873 186.032 25.61 185.542 25.8555 185.097C26.1009 184.649 26.4564 184.293 26.9219 184.031C27.3874 183.764 27.9481 183.631 28.604 183.631C29.2218 183.631 29.7466 183.735 30.1782 183.942C30.6099 184.149 30.9378 184.443 31.1621 184.824C31.3906 185.205 31.5049 185.656 31.5049 186.176C31.5049 186.464 31.4583 186.75 31.3652 187.033C31.2721 187.317 31.1388 187.6 30.9653 187.884C30.7961 188.163 30.5951 188.444 30.3623 188.728C30.1296 189.007 29.8735 189.291 29.5942 189.579L27.5947 191.781H31.8604ZM34.8501 187.687H35.7642C36.1196 187.687 36.4137 187.626 36.6465 187.503C36.8835 187.38 37.0591 187.211 37.1733 186.995C37.2876 186.779 37.3447 186.532 37.3447 186.252C37.3447 185.96 37.2918 185.711 37.186 185.503C37.0845 185.292 36.9279 185.129 36.7163 185.015C36.509 184.9 36.2445 184.843 35.9229 184.843C35.652 184.843 35.4066 184.898 35.1865 185.008C34.9707 185.114 34.7993 185.266 34.6724 185.465C34.5454 185.66 34.4819 185.893 34.4819 186.164H32.9458C32.9458 185.673 33.0749 185.237 33.333 184.856C33.5911 184.475 33.9424 184.177 34.3867 183.961C34.8353 183.741 35.3389 183.631 35.8975 183.631C36.4941 183.631 37.0146 183.73 37.459 183.929C37.9076 184.124 38.2567 184.416 38.5063 184.805C38.756 185.194 38.8809 185.677 38.8809 186.252C38.8809 186.515 38.8195 186.781 38.6968 187.052C38.5741 187.323 38.3921 187.571 38.1509 187.795C37.9097 188.015 37.6092 188.195 37.2495 188.334C36.8898 188.47 36.473 188.538 35.999 188.538H34.8501V187.687ZM34.8501 188.88V188.042H35.999C36.5407 188.042 37.002 188.106 37.3828 188.233C37.7679 188.36 38.0811 188.535 38.3223 188.76C38.5635 188.98 38.7391 189.232 38.8491 189.515C38.9634 189.799 39.0205 190.099 39.0205 190.417C39.0205 190.848 38.9422 191.233 38.7856 191.572C38.6333 191.906 38.4154 192.19 38.1318 192.422C37.8483 192.655 37.5161 192.831 37.1353 192.949C36.7586 193.068 36.3481 193.127 35.9038 193.127C35.506 193.127 35.1252 193.072 34.7612 192.962C34.3973 192.852 34.0715 192.689 33.7837 192.473C33.4959 192.253 33.2674 191.98 33.0981 191.654C32.9331 191.324 32.8506 190.943 32.8506 190.512H34.3804C34.3804 190.787 34.4438 191.03 34.5708 191.242C34.702 191.449 34.884 191.612 35.1167 191.73C35.3537 191.849 35.6245 191.908 35.9292 191.908C36.2508 191.908 36.528 191.851 36.7607 191.737C36.9935 191.623 37.1712 191.453 37.2939 191.229C37.4209 191.005 37.4844 190.734 37.4844 190.417C37.4844 190.057 37.4146 189.765 37.2749 189.541C37.1353 189.316 36.9364 189.151 36.6782 189.045C36.4201 188.935 36.1154 188.88 35.7642 188.88H34.8501Z" fill="#7F8A8E"/>
<circle cx="99.5" cy="188.5" r="6.75" stroke="#7F8A8E" stroke-width="1.5"/>
<circle cx="97" cy="187" r="1" fill="#7F8A8E"/>
<circle cx="102" cy="187" r="1" fill="#7F8A8E"/>
<path d="M96 190C96 190 97.1667 192 99.5 192C101.833 192 103 190 103 190" stroke="#7F8A8E"/>
<circle cx="319.5" cy="191.5" r="12.5" fill="#4FB6B2"/>
<path d="M325.5 189.5V192.5H314" stroke="#EBEFF2" stroke-width="1.5"/>
<path d="M316.5 189L314 192.5L317 196" stroke="#EBEFF2" stroke-width="1.5"/>
</svg>
