<svg width="56" height="56" viewBox="0 0 56 56" fill="none" xmlns="http://www.w3.org/2000/svg">
<path d="M55.9787 28.0054C55.5636 37.6605 50.9972 45.7222 44.165 50.6789C40.0712 53.6367 35.2734 55.4305 30.2677 55.8748C29.3866 55.9591 28.492 55.9999 27.5895 55.9999C27.102 55.9999 26.6173 55.9863 26.1379 55.9618C20.0025 55.6395 14.1501 53.2407 9.51412 49.1481C9.50722 49.1424 9.50093 49.1361 9.49537 49.129H9.48198C9.29718 48.9686 9.11507 48.8028 8.94634 48.6342L8.7053 48.4058C8.63299 48.3378 8.56335 48.2726 8.49372 48.2019C8.06342 47.7832 7.64561 47.349 7.24031 46.8995L7.00462 46.6276C6.76626 46.3557 6.53593 46.0838 6.31096 45.8119C6.27347 45.7657 6.23597 45.7167 6.1958 45.6705L5.86638 45.2491L5.64944 44.9772C5.51285 44.795 5.38162 44.6101 5.24503 44.4334L5.22628 44.4062L5.12183 44.2594C4.95042 44.0147 4.78169 43.7673 4.61832 43.5171C4.48709 43.3159 4.3505 43.112 4.23266 42.9081L4.21659 42.8863C4.09071 42.6824 3.96751 42.4757 3.84699 42.2691C3.78807 42.1685 3.72915 42.0679 3.67291 41.9673L3.48543 41.6301C3.25242 41.2087 3.03281 40.7791 2.82123 40.3441C2.7757 40.2571 2.73553 40.1701 2.69267 40.0722L2.52395 39.697C2.47842 39.5991 2.43289 39.5012 2.39004 39.4006C2.28558 39.1613 2.18113 38.9193 2.08204 38.6746C2.03651 38.5632 1.99098 38.449 1.94813 38.3348C1.81689 38.0058 1.69637 37.6713 1.57585 37.3369L1.49551 37.0976C1.32946 36.6028 1.17144 36.0998 1.03217 35.5886C1.00003 35.4798 0.970574 35.3711 0.943792 35.2596L0.87148 34.9877L0.791133 34.6642C0.756316 34.5201 0.724177 34.3759 0.692038 34.2318C0.659899 34.0877 0.619726 33.9056 0.584909 33.7424L0.512597 33.3754L0.448319 33.0165C0.335834 32.4002 0.24656 31.7748 0.180497 31.1404C0.180497 31.0806 0.164427 31.018 0.159071 30.9555C0.116219 30.5313 0.0814022 30.1017 0.0546199 29.6694C0.0546199 29.5688 0.0546199 29.4737 0.0546199 29.3731C0.0224811 29.093 0.00373355 28.7803 0.00373355 28.4758C-0.24802 12.8553 12.2647 -0.0379814 27.6511 8.40712e-05H27.9993H28.4572L28.8938 0.0218358H28.95C33.0404 0.217702 37.0354 1.3429 40.6405 3.3145C41.0351 3.52839 41.4225 3.75316 41.8028 3.9888C43.1714 4.82658 44.4774 5.76534 45.7104 6.79749C46.9714 7.85419 48.1515 9.00673 49.2403 10.2451C50.1292 11.2632 50.9489 12.3415 51.6935 13.4726C54.5164 17.7087 56.2117 22.6844 55.9787 28.0054Z" fill="#DDAB0A"/>
<path d="M44.1636 50.6736C40.0695 53.6338 35.2707 55.4296 30.2636 55.875C29.3825 55.9593 28.4879 56.0001 27.5854 56.0001C27.0979 56.0001 26.6132 55.9865 26.1338 55.962C19.9984 55.6397 14.146 53.2409 9.51 49.1483C9.5031 49.1426 9.49681 49.1363 9.49125 49.1292H9.47786C9.29306 48.9688 9.11095 48.803 8.94222 48.6344L8.70118 48.406C8.62886 48.338 8.55923 48.2728 8.4896 48.2021C8.05929 47.7834 7.64149 47.3492 7.23619 46.8997L7.0005 46.6278C6.76214 46.3559 6.53181 46.084 6.30684 45.8121C6.26935 45.7659 6.23185 45.7169 6.19168 45.6707L5.86225 45.2493L5.64532 44.9774C5.50873 44.7952 5.3775 44.6103 5.24091 44.4336C13.8835 46.1819 32.674 49.8552 44.1636 50.6736Z" fill="#C69712"/>
<path d="M32.3501 51.7447C29.5463 52.6841 26.6119 53.1597 23.6593 53.1531C23.204 53.1531 22.7487 53.1368 22.2987 53.1151C17.7926 52.8848 13.412 51.5298 9.54502 49.1698C9.52012 49.1551 9.49679 49.1378 9.47538 49.1182C6.64803 46.6231 4.34997 43.5704 2.72089 40.1456C2.56823 39.8139 2.41289 39.4903 2.28166 39.1532C1.0412 36.2578 0.294068 33.1695 0.0721208 30.0202C0.0373039 29.509 0.0131998 28.9951 0.00516514 28.4758C-0.0872916 21.9995 2.02831 15.6898 5.99358 10.6157C9.95884 5.54164 15.5299 2.01513 21.7631 0.633613C22.1059 0.557482 22.4514 0.486789 22.7996 0.424253C24.4008 0.137748 26.0239 -0.00419296 27.6498 9.42777e-05H27.998C32.4019 0.0641323 36.6996 1.38311 40.4009 3.80664C42.1599 4.95439 43.7573 6.3392 45.1494 7.92316C46.3336 9.25982 47.3609 10.7316 48.2106 12.3088C48.7131 13.2498 49.1515 14.2246 49.5229 15.2263C49.7015 15.7302 49.8747 16.2387 50.0425 16.7516C50.8365 19.3182 51.2614 21.9876 51.304 24.6774C51.5075 37.2173 43.4835 47.998 32.3501 51.7447Z" fill="#F8C705"/>
<path d="M45.738 18.0876C44.4706 14.3778 42.0998 11.159 38.9532 8.87573C35.8065 6.59247 32.0392 5.3574 28.1715 5.34106H28.0509C24.4205 5.34099 20.8426 6.22145 17.6152 7.90913C14.3877 9.59681 11.6042 12.0429 9.49626 15.0436C7.38835 18.0444 6.01711 21.5129 5.49674 25.1605C4.97636 28.8081 5.32191 32.5291 6.5046 36.0137C7.38525 38.6129 8.81695 40.9844 10.6987 42.9607C12.4339 44.7854 14.5111 46.2393 16.8081 47.2367C19.1051 48.2341 21.5755 48.7549 24.0738 48.7684H24.1943C27.8252 48.7679 31.4035 47.8867 34.6311 46.1982C37.8587 44.5097 40.6423 42.0628 42.75 39.0612C44.8576 36.0596 46.2284 32.5903 46.7481 28.9421C47.2679 25.2939 46.9215 21.5724 45.738 18.0876ZM8.03655 34.8445C6.96395 31.6821 6.65078 28.3053 7.12309 24.9952C7.5954 21.6851 8.83955 18.5373 10.752 15.8138C12.6644 13.0904 15.1899 10.8699 18.1182 9.33729C21.0465 7.80466 24.293 7.00414 27.5876 7.00235H27.6974C29.9187 7.01239 32.1154 7.47478 34.1575 8.36214C36.1996 9.24949 38.0455 10.5438 39.5861 12.1684C41.473 14.0046 42.9024 16.2702 43.7561 18.7782C44.8286 21.9408 45.1417 25.3177 44.6694 28.6279C44.197 31.9382 42.9529 35.086 41.0405 37.8097C39.1281 40.5333 36.6028 42.754 33.6745 44.287C30.7462 45.8199 27.4997 46.6209 24.205 46.6231H24.0952C21.8741 46.612 19.6777 46.1491 17.6358 45.2618C15.5938 44.3745 13.7478 43.0808 12.2066 41.4571C10.3184 39.6209 8.88887 37.354 8.03655 34.8445Z" fill="#DDAB0A"/>
<path d="M39.5847 12.1737C36.5111 9.1791 32.4221 7.4972 28.1621 7.4753H28.055C24.7598 7.47527 21.5123 8.2746 18.583 9.80671C15.6537 11.3388 13.1274 13.5594 11.2146 16.2834C9.30181 19.0073 8.05783 22.1559 7.58632 25.4668C7.1148 28.7777 7.4294 32.155 8.5039 35.3175C9.28325 37.6129 10.5464 39.708 12.2052 41.4569C10.319 39.6201 8.89134 37.3533 8.04057 34.8444C6.96797 31.6819 6.65479 28.3052 7.12711 24.995C7.59942 21.6849 8.84356 18.5371 10.756 15.8137C12.6685 13.0902 15.1939 10.8698 18.1222 9.33714C21.0506 7.8045 24.2971 7.00399 27.5916 7.0022H27.7014C29.9222 7.01367 32.1181 7.47726 34.1592 8.36554C36.2004 9.25382 38.0453 10.5487 39.5847 12.1737Z" fill="#C69712"/>
<g style="mix-blend-mode:screen" opacity="0.5">
<path d="M21.7639 0.633545L20.3578 3.4368L3.45554 36.8393L2.28248 39.1531C1.04202 36.2577 0.294885 33.1695 0.072937 30.0201L13.1427 4.1682C15.797 2.4998 18.7127 1.30437 21.7639 0.633545Z" fill="#F8C705"/>
</g>
<path d="M23.4218 33.8309C24.4149 34.116 25.2539 34.1148 25.939 33.8275C26.6283 33.5304 27.1572 32.9618 27.5256 32.1217C27.6713 31.7896 27.7393 31.4751 27.7298 31.1781C27.7246 30.8714 27.6627 30.5743 27.5443 30.2866C27.4258 29.999 27.2578 29.7182 27.0402 29.4443C26.8269 29.1606 26.5807 28.8854 26.3016 28.6188L23.4218 33.8309ZM28.8538 18.3776C28.3281 18.222 27.856 18.1432 27.4375 18.1413C27.0234 18.1297 26.6574 18.1808 26.3396 18.2947C26.0315 18.4129 25.7661 18.5797 25.5436 18.7952C25.335 19.0052 25.1664 19.2568 25.0379 19.5498C24.8922 19.882 24.815 20.2041 24.8063 20.5161C24.8115 20.8228 24.8712 21.1249 24.9854 21.4223C25.0995 21.7197 25.2611 22.0151 25.4702 22.3086C25.6835 22.5923 25.9324 22.8745 26.2169 23.1553L28.8538 18.3776ZM28.2756 25.0339C28.6822 25.3816 29.0823 25.7439 29.476 26.1208C29.8741 26.488 30.2419 26.8708 30.5796 27.2692C30.9173 27.6677 31.2109 28.0872 31.4603 28.5276C31.7097 28.9681 31.8891 29.4354 31.9984 29.9297C32.1218 30.4185 32.1563 30.9374 32.1019 31.4863C32.0475 32.0353 31.8853 32.6175 31.6154 33.2329C31.217 34.1414 30.6845 34.9307 30.0179 35.6009C29.3653 36.2657 28.6054 36.7768 27.7383 37.1339C26.8755 37.4814 25.9308 37.6571 24.904 37.6613C23.8773 37.6654 22.7928 37.4561 21.6505 37.0334L20.6016 38.9471C20.4707 39.1923 20.2631 39.3735 19.9788 39.4908C19.6944 39.6081 19.3967 39.5964 19.0857 39.4558L17.6131 38.7902L19.246 35.8237C18.7263 35.4951 18.2285 35.1297 17.7528 34.7273C17.291 34.3196 16.8615 33.8914 16.4643 33.4427C16.0714 32.9842 15.7184 32.5144 15.4053 32.0334C15.0964 31.5427 14.842 31.0473 14.642 30.5472L16.6845 29.2758C16.86 29.1678 17.0615 29.1067 17.289 29.0925C17.5208 29.0685 17.7339 29.1005 17.9283 29.1883C18.1519 29.2894 18.3552 29.4632 18.5382 29.7098C18.7212 29.9564 18.9157 30.2433 19.1216 30.5704C19.3415 30.8922 19.5933 31.2343 19.877 31.5966C20.1704 31.9633 20.5414 32.3124 20.9899 32.644L24.2108 26.8135C23.7999 26.4756 23.3955 26.1231 22.9975 25.7559C22.6135 25.3833 22.2548 24.9929 21.9214 24.5847C21.5879 24.1765 21.2987 23.7473 21.0535 23.297C20.8224 22.8414 20.6586 22.3519 20.5621 21.8283C20.4656 21.3048 20.4531 20.749 20.5247 20.161C20.6005 19.5632 20.7883 18.9224 21.0882 18.2386C21.4224 17.4767 21.8965 16.8072 22.5105 16.2303C23.1289 15.6437 23.849 15.1966 24.671 14.8893C25.5026 14.5863 26.4205 14.4452 27.4247 14.466C28.4331 14.477 29.4993 14.7014 30.6234 15.1393L31.5485 13.4681C31.6793 13.2229 31.8848 13.0465 32.1648 12.939C32.4589 12.8262 32.7566 12.8378 33.0579 12.974L34.5451 13.6462L33.0231 16.3995C33.9915 17.0596 34.7577 17.7688 35.322 18.5272C35.8862 19.2855 36.3199 20.0493 36.6232 20.8184L34.9891 21.8356C34.7545 21.9987 34.5359 22.0989 34.3332 22.136C34.1349 22.1634 33.9288 22.1288 33.7149 22.0321C33.5692 21.9662 33.4113 21.8481 33.2415 21.6777C33.0856 21.5019 32.9119 21.3005 32.7203 21.0734C32.533 20.8366 32.3166 20.5866 32.071 20.3234C31.835 20.0646 31.5711 19.8166 31.2792 19.5793L28.2756 25.0339Z" fill="white"/>
<g style="mix-blend-mode:screen" opacity="0.5">
<path d="M50.0433 16.7521L45.4528 25.8307L36.944 42.6611L32.3509 51.7452C30.8361 52.2538 29.2804 52.6268 27.7015 52.86L31.2394 45.8613L44.6788 19.278L48.2113 12.3093C48.7138 13.2503 49.1523 14.2251 49.5237 15.2268C49.7201 15.7307 49.8933 16.2391 50.0433 16.7521Z" fill="#F8C705"/>
</g>
</svg>
