<svg width="76" height="36" viewBox="0 0 76 36" fill="none" xmlns="http://www.w3.org/2000/svg">
<path d="M25.312 22.896H16.96V31.44H9.184V22.896H0.832V15.552H9.184V6.96H16.96V15.552H25.312V22.896ZM29.4366 8.592V0.959999H42.7326V36H34.1886V8.592H29.4366ZM48.3475 18C48.3475 12.496 49.4035 8.16 51.5155 4.992C53.6595 1.824 57.0995 0.239997 61.8355 0.239997C66.5715 0.239997 69.9955 1.824 72.1075 4.992C74.2515 8.16 75.3235 12.496 75.3235 18C75.3235 23.568 74.2515 27.936 72.1075 31.104C69.9955 34.272 66.5715 35.856 61.8355 35.856C57.0995 35.856 53.6595 34.272 51.5155 31.104C49.4035 27.936 48.3475 23.568 48.3475 18ZM67.2595 18C67.2595 14.768 66.9075 12.288 66.2035 10.56C65.4995 8.8 64.0435 7.92 61.8355 7.92C59.6275 7.92 58.1715 8.8 57.4675 10.56C56.7635 12.288 56.4115 14.768 56.4115 18C56.4115 20.176 56.5395 21.984 56.7955 23.424C57.0515 24.832 57.5635 25.984 58.3315 26.88C59.1315 27.744 60.2995 28.176 61.8355 28.176C63.3715 28.176 64.5235 27.744 65.2915 26.88C66.0915 25.984 66.6195 24.832 66.8755 23.424C67.1315 21.984 67.2595 20.176 67.2595 18Z" fill="#333333"/>
</svg>
