<svg width="74" height="26" viewBox="0 0 74 26" fill="none" xmlns="http://www.w3.org/2000/svg">
<path d="M5.168 19.119C4.37467 19.119 3.66067 18.983 3.026 18.711C2.39133 18.4277 1.89267 18.031 1.53 17.521C1.16733 17.011 0.986 16.416 0.986 15.736H3.06C3.10533 16.246 3.30367 16.6653 3.655 16.994C4.01767 17.3227 4.522 17.487 5.168 17.487C5.83667 17.487 6.358 17.3283 6.732 17.011C7.106 16.6823 7.293 16.263 7.293 15.753C7.293 15.3563 7.174 15.0333 6.936 14.784C6.70933 14.5347 6.42033 14.342 6.069 14.206C5.729 14.07 5.253 13.9227 4.641 13.764C3.87033 13.56 3.24133 13.356 2.754 13.152C2.278 12.9367 1.87 12.608 1.53 12.166C1.19 11.724 1.02 11.1347 1.02 10.398C1.02 9.718 1.19 9.123 1.53 8.613C1.87 8.103 2.346 7.712 2.958 7.44C3.57 7.168 4.27833 7.032 5.083 7.032C6.22767 7.032 7.16267 7.321 7.888 7.899C8.62467 8.46567 9.03267 9.24767 9.112 10.245H6.97C6.936 9.81433 6.732 9.446 6.358 9.14C5.984 8.834 5.491 8.681 4.879 8.681C4.32367 8.681 3.87033 8.82267 3.519 9.106C3.16767 9.38933 2.992 9.79733 2.992 10.33C2.992 10.6927 3.09967 10.993 3.315 11.231C3.54167 11.4577 3.825 11.639 4.165 11.775C4.505 11.911 4.96967 12.0583 5.559 12.217C6.341 12.4323 6.97567 12.6477 7.463 12.863C7.96167 13.0783 8.381 13.4127 8.721 13.866C9.07233 14.308 9.248 14.903 9.248 15.651C9.248 16.2517 9.08367 16.8183 8.755 17.351C8.43767 17.8837 7.96733 18.3143 7.344 18.643C6.732 18.9603 6.00667 19.119 5.168 19.119ZM16.3798 9.48C17.0938 9.48 17.7284 9.633 18.2838 9.939C18.8504 10.245 19.2924 10.6983 19.6098 11.299C19.9384 11.8997 20.1028 12.625 20.1028 13.475V19H18.1818V13.764C18.1818 12.9253 17.9721 12.285 17.5528 11.843C17.1334 11.3897 16.5611 11.163 15.8358 11.163C15.1104 11.163 14.5324 11.3897 14.1018 11.843C13.6824 12.285 13.4728 12.9253 13.4728 13.764V19H11.5348V6.42H13.4728V10.721C13.8014 10.3243 14.2151 10.0183 14.7138 9.803C15.2238 9.58767 15.7791 9.48 16.3798 9.48ZM21.9288 14.274C21.9288 13.3333 22.1215 12.5003 22.5068 11.775C22.9035 11.0497 23.4361 10.4887 24.1048 10.092C24.7848 9.684 25.5328 9.48 26.3488 9.48C27.0855 9.48 27.7258 9.62733 28.2698 9.922C28.8251 10.2053 29.2671 10.5623 29.5958 10.993V9.633H31.5508V19H29.5958V17.606C29.2671 18.048 28.8195 18.4163 28.2528 18.711C27.6861 19.0057 27.0401 19.153 26.3148 19.153C25.5101 19.153 24.7735 18.949 24.1048 18.541C23.4361 18.1217 22.9035 17.5437 22.5068 16.807C22.1215 16.059 21.9288 15.2147 21.9288 14.274ZM29.5958 14.308C29.5958 13.662 29.4598 13.101 29.1878 12.625C28.9271 12.149 28.5815 11.7863 28.1508 11.537C27.7201 11.2877 27.2555 11.163 26.7568 11.163C26.2581 11.163 25.7935 11.2877 25.3628 11.537C24.9321 11.775 24.5808 12.132 24.3088 12.608C24.0481 13.0727 23.9178 13.628 23.9178 14.274C23.9178 14.92 24.0481 15.4867 24.3088 15.974C24.5808 16.4613 24.9321 16.8353 25.3628 17.096C25.8048 17.3453 26.2695 17.47 26.7568 17.47C27.2555 17.47 27.7201 17.3453 28.1508 17.096C28.5815 16.8467 28.9271 16.484 29.1878 16.008C29.4598 15.5207 29.5958 14.954 29.5958 14.308ZM36.0343 10.993C36.3176 10.517 36.6916 10.1487 37.1563 9.888C37.6323 9.616 38.1933 9.48 38.8393 9.48V11.486H38.3463C37.587 11.486 37.009 11.6787 36.6123 12.064C36.227 12.4493 36.0343 13.118 36.0343 14.07V19H34.0963V9.633H36.0343V10.993ZM49.2057 14.087C49.2057 14.4383 49.183 14.7557 49.1377 15.039H41.9807C42.0374 15.787 42.315 16.3877 42.8137 16.841C43.3124 17.2943 43.9244 17.521 44.6497 17.521C45.6924 17.521 46.429 17.0847 46.8597 16.212H48.9507C48.6674 17.0733 48.1517 17.7817 47.4037 18.337C46.667 18.881 45.749 19.153 44.6497 19.153C43.7544 19.153 42.9497 18.9547 42.2357 18.558C41.533 18.15 40.9777 17.5833 40.5697 16.858C40.173 16.1213 39.9747 15.2713 39.9747 14.308C39.9747 13.3447 40.1674 12.5003 40.5527 11.775C40.9494 11.0383 41.499 10.4717 42.2017 10.075C42.9157 9.67833 43.7317 9.48 44.6497 9.48C45.5337 9.48 46.3214 9.67267 47.0127 10.058C47.704 10.4433 48.2424 10.9873 48.6277 11.69C49.013 12.3813 49.2057 13.1803 49.2057 14.087ZM47.1827 13.475C47.1714 12.761 46.9164 12.1887 46.4177 11.758C45.919 11.3273 45.3014 11.112 44.5647 11.112C43.896 11.112 43.3237 11.3273 42.8477 11.758C42.3717 12.1773 42.0884 12.7497 41.9977 13.475H47.1827Z" fill="white"/>
<path d="M58.0053 20.6732V18.4845C58.005 18 58.0352 17.5161 58.0958 17.0361C58.335 15.0627 59.1323 13.2183 60.3781 11.7567C61.7809 10.0633 63.6838 8.95263 65.7597 8.61568C65.8869 8.59445 66.0043 8.57588 66.1462 8.56262C66.2862 8.5469 66.4158 8.47562 66.5102 8.36249C66.6045 8.24935 66.657 8.10236 66.6575 7.94979V5.60991C66.6584 5.49443 66.6893 5.38158 66.7466 5.28424C66.804 5.18691 66.8854 5.10902 66.9816 5.05949C67.0777 5.00996 67.1848 4.99077 67.2906 5.00413C67.3964 5.01749 67.4966 5.06286 67.5797 5.13504L73.7905 10.6186C73.856 10.6763 73.9087 10.7492 73.945 10.8318C73.9812 10.9144 74 11.0047 74 11.0962C74 11.1876 73.9812 11.278 73.945 11.3606C73.9087 11.4432 73.856 11.516 73.7905 11.5737C71.726 13.4069 69.6638 15.2321 67.5895 17.0705C67.5064 17.1443 67.4058 17.191 67.2992 17.2052C67.1927 17.2195 67.0846 17.2006 66.9875 17.1509C66.8904 17.1012 66.8084 17.0226 66.7508 16.9243C66.6933 16.8261 66.6626 16.7121 66.6624 16.5957V14.3778C66.6625 14.2913 66.6458 14.2058 66.6134 14.1267C66.581 14.0477 66.5335 13.977 66.4742 13.9191C66.4149 13.8613 66.345 13.8177 66.2691 13.7911C66.1932 13.7646 66.113 13.7557 66.0337 13.765C65.944 13.7756 65.8535 13.7889 65.7622 13.8048C63.8666 14.1163 62.1178 15.094 60.7842 16.5877C60.0637 17.3747 59.4861 18.3016 59.0817 19.3202L58.4946 20.7846C58.4809 20.855 58.4421 20.9166 58.3866 20.9559C58.3311 20.9952 58.2635 21.009 58.1986 20.9942C58.1337 20.9794 58.0769 20.9373 58.0407 20.8771C58.0044 20.8169 57.9917 20.7436 58.0053 20.6732Z" fill="white"/>
</svg>
