<svg width="14" height="14" viewBox="0 0 14 14" fill="none" xmlns="http://www.w3.org/2000/svg">
<path d="M0.00466953 13.7141V11.799C0.00435764 11.375 0.0308179 10.9516 0.0838646 10.5315C0.293112 8.80485 0.990803 7.19097 2.08086 5.91214C3.3083 4.43037 4.97332 3.45855 6.78976 3.16372C6.90106 3.14515 7.0038 3.1289 7.12794 3.11729C7.25038 3.10354 7.36381 3.04117 7.44639 2.94218C7.52898 2.84318 7.57489 2.71456 7.57529 2.58107V0.533675C7.57613 0.432629 7.60317 0.333879 7.65332 0.248711C7.70346 0.163543 7.77469 0.0953934 7.85886 0.052052C7.94303 0.00871068 8.03674 -0.00807403 8.12929 0.00361637C8.22184 0.0153068 8.30949 0.0550006 8.38222 0.118161L13.8167 4.9163C13.874 4.9668 13.9201 5.03051 13.9518 5.10278C13.9836 5.17506 14 5.2541 14 5.33414C14 5.41418 13.9836 5.49321 13.9518 5.56549C13.9201 5.63777 13.874 5.70148 13.8167 5.75197C12.0102 7.356 10.2058 8.95306 8.39078 10.5617C8.31811 10.6263 8.23005 10.6671 8.13682 10.6796C8.04359 10.692 7.94901 10.6756 7.86408 10.632C7.77914 10.5885 7.70732 10.5198 7.65696 10.4338C7.6066 10.3478 7.57977 10.2481 7.57957 10.1462V8.2056C7.57968 8.12991 7.56507 8.05505 7.5367 7.98589C7.50834 7.91674 7.46685 7.85485 7.41495 7.80425C7.36305 7.75366 7.30189 7.71549 7.23547 7.69225C7.16906 7.66901 7.09887 7.66122 7.02949 7.66937C6.951 7.67866 6.87181 7.69026 6.7919 7.70419C5.13332 7.97676 3.60308 8.83223 2.43617 10.1392C1.8057 10.8278 1.30033 11.6389 0.946449 12.5302L0.432751 13.8116C0.42083 13.8731 0.386846 13.927 0.338276 13.9614C0.289707 13.9958 0.230529 14.0079 0.173762 13.9949C0.116995 13.982 0.0672881 13.9452 0.0355772 13.8925C0.00386624 13.8398 -0.00725157 13.7756 0.00466953 13.7141Z" fill="#333333"/>
</svg>
