<svg width="95" height="15" viewBox="0 0 95 15" fill="none" xmlns="http://www.w3.org/2000/svg">
<path d="M7.42 8.34C7.42 4.728 2.156 6.296 2.156 3.776C2.156 2.726 2.982 2.18 4.032 2.208C5.222 2.222 5.838 2.964 5.922 3.622H7.322C7.168 2.138 5.95 1.116 4.088 1.116C2.156 1.116 0.854 2.208 0.854 3.818C0.854 7.444 6.132 5.764 6.132 8.396C6.132 9.32 5.404 10.02 4.172 10.02C2.814 10.02 2.24 9.208 2.156 8.396H0.798C0.826 10.006 2.212 11.098 4.172 11.098C6.286 11.098 7.42 9.726 7.42 8.34ZM9.2948 11H10.5688V7.612L13.5788 11H15.3148L11.6888 7.15L15.3008 3.328H13.5228L10.5688 6.73V0.64H9.2948V11ZM16.4999 11H17.7739V3.328H16.4999V11ZM17.1579 2.082C17.6199 2.082 17.9979 1.704 17.9979 1.214C17.9979 0.724 17.6199 0.345999 17.1579 0.345999C16.6679 0.345999 16.2899 0.724 16.2899 1.214C16.2899 1.704 16.6679 2.082 17.1579 2.082ZM21.2192 4.742V3.328H19.9452V14.64H21.2192V9.586C21.6952 10.37 22.6892 11.126 24.0892 11.126C26.1472 11.126 27.7292 9.516 27.7292 7.136C27.7292 4.742 26.1472 3.202 24.0892 3.202C22.6892 3.202 21.6812 3.93 21.2192 4.742ZM26.4272 7.136C26.4272 8.942 25.2372 10.006 23.8232 10.006C22.4372 10.006 21.2192 8.956 21.2192 7.15C21.2192 5.372 22.4372 4.308 23.8232 4.308C25.2372 4.308 26.4272 5.33 26.4272 7.136ZM33.4185 8.9C33.4185 10.44 34.1885 11 35.5465 11H36.6945V9.922H35.7565C34.9725 9.922 34.6925 9.656 34.6925 8.9V4.378H36.6945V3.328H34.6925V1.396H33.4185V3.328H32.4245V4.378H33.4185V8.9ZM38.2382 11H39.5122V6.758C39.5122 5.106 40.4082 4.294 41.7102 4.294C42.9982 4.294 43.8522 5.092 43.8522 6.66V11H45.1122V6.478C45.1122 4.28 43.7542 3.188 42.0462 3.188C40.9682 3.188 40.0162 3.622 39.5122 4.434V0.64H38.2382V11ZM47.1932 11H48.4672V3.328H47.1932V11ZM47.8512 2.082C48.3132 2.082 48.6912 1.704 48.6912 1.214C48.6912 0.724 48.3132 0.345999 47.8512 0.345999C47.3612 0.345999 46.9832 0.724 46.9832 1.214C46.9832 1.704 47.3612 2.082 47.8512 2.082ZM56.1545 8.914C56.0985 6.17 51.6465 7.164 51.6465 5.344C51.6465 4.728 52.2065 4.28 53.1445 4.28C54.1665 4.28 54.7545 4.84 54.8105 5.61H56.0845C56.0005 4.112 54.8805 3.202 53.1865 3.202C51.4785 3.202 50.3725 4.168 50.3725 5.344C50.3725 8.2 54.9085 7.206 54.9085 8.914C54.9085 9.544 54.3485 10.048 53.3405 10.048C52.2625 10.048 51.6045 9.488 51.5345 8.746H50.2185C50.3025 10.146 51.5625 11.126 53.3545 11.126C55.0485 11.126 56.1545 10.174 56.1545 8.914ZM63.1834 11H64.4994L66.3474 4.91L68.1954 11H69.5114L71.9054 3.328H70.6454L68.9094 9.782L67.0474 3.328H65.7454L63.8414 9.768L62.0774 3.328H60.7754L63.1834 11ZM80.4498 7.15C80.4498 4.728 78.7558 3.202 76.5718 3.202C74.4018 3.202 72.6938 4.728 72.6938 7.15C72.6938 9.586 74.3458 11.126 76.5158 11.126C78.6998 11.126 80.4498 9.586 80.4498 7.15ZM73.9958 7.15C73.9958 5.218 75.2138 4.308 76.5578 4.308C77.8738 4.308 79.1478 5.218 79.1478 7.15C79.1478 9.096 77.8458 10.006 76.5158 10.006C75.1858 10.006 73.9958 9.096 73.9958 7.15ZM83.3989 6.828C83.3989 5.05 84.3229 4.504 85.5409 4.504H85.8769V3.188C84.6589 3.188 83.8329 3.72 83.3989 4.574V3.328H82.1249V11H83.3989V6.828ZM86.8715 7.136C86.8715 9.516 88.4535 11.126 90.5115 11.126C91.9115 11.126 92.9055 10.412 93.3675 9.558V11H94.6555V0.64H93.3675V4.7C92.8355 3.818 91.7295 3.202 90.5255 3.202C88.4535 3.202 86.8715 4.742 86.8715 7.136ZM93.3675 7.15C93.3675 8.956 92.1635 10.006 90.7635 10.006C89.3635 10.006 88.1735 8.942 88.1735 7.136C88.1735 5.33 89.3635 4.308 90.7635 4.308C92.1635 4.308 93.3675 5.372 93.3675 7.15Z" fill="#666666"/>
</svg>
