<svg width="67" height="15" viewBox="0 0 67 15" fill="none" xmlns="http://www.w3.org/2000/svg">
<path d="M7.42 8.34C7.42 4.728 2.156 6.296 2.156 3.776C2.156 2.726 2.982 2.18 4.032 2.208C5.222 2.222 5.838 2.964 5.922 3.622H7.322C7.168 2.138 5.95 1.116 4.088 1.116C2.156 1.116 0.854 2.208 0.854 3.818C0.854 7.444 6.132 5.764 6.132 8.396C6.132 9.32 5.404 10.02 4.172 10.02C2.814 10.02 2.24 9.208 2.156 8.396H0.798C0.826 10.006 2.212 11.098 4.172 11.098C6.286 11.098 7.42 9.726 7.42 8.34ZM9.2948 11H10.5688V7.612L13.5788 11H15.3148L11.6888 7.15L15.3008 3.328H13.5228L10.5688 6.73V0.64H9.2948V11ZM16.4999 11H17.7739V3.328H16.4999V11ZM17.1579 2.082C17.6199 2.082 17.9979 1.704 17.9979 1.214C17.9979 0.724 17.6199 0.345999 17.1579 0.345999C16.6679 0.345999 16.2899 0.724 16.2899 1.214C16.2899 1.704 16.6679 2.082 17.1579 2.082ZM21.2192 4.742V3.328H19.9452V14.64H21.2192V9.586C21.6952 10.37 22.6892 11.126 24.0892 11.126C26.1472 11.126 27.7292 9.516 27.7292 7.136C27.7292 4.742 26.1472 3.202 24.0892 3.202C22.6892 3.202 21.6812 3.93 21.2192 4.742ZM26.4272 7.136C26.4272 8.942 25.2372 10.006 23.8232 10.006C22.4372 10.006 21.2192 8.956 21.2192 7.15C21.2192 5.372 22.4372 4.308 23.8232 4.308C25.2372 4.308 26.4272 5.33 26.4272 7.136ZM34.6365 11H35.9525L37.8005 4.91L39.6485 11H40.9645L43.3585 3.328H42.0985L40.3625 9.782L38.5005 3.328H37.1985L35.2945 9.768L33.5305 3.328H32.2285L34.6365 11ZM51.9029 7.15C51.9029 4.728 50.2089 3.202 48.0249 3.202C45.8549 3.202 44.1469 4.728 44.1469 7.15C44.1469 9.586 45.7989 11.126 47.9689 11.126C50.1529 11.126 51.9029 9.586 51.9029 7.15ZM45.4489 7.15C45.4489 5.218 46.6669 4.308 48.0109 4.308C49.3269 4.308 50.6009 5.218 50.6009 7.15C50.6009 9.096 49.2989 10.006 47.9689 10.006C46.6389 10.006 45.4489 9.096 45.4489 7.15ZM54.852 6.828C54.852 5.05 55.776 4.504 56.994 4.504H57.33V3.188C56.112 3.188 55.286 3.72 54.852 4.574V3.328H53.578V11H54.852V6.828ZM58.3247 7.136C58.3247 9.516 59.9067 11.126 61.9647 11.126C63.3647 11.126 64.3587 10.412 64.8207 9.558V11H66.1087V0.64H64.8207V4.7C64.2887 3.818 63.1827 3.202 61.9787 3.202C59.9067 3.202 58.3247 4.742 58.3247 7.136ZM64.8207 7.15C64.8207 8.956 63.6167 10.006 62.2167 10.006C60.8167 10.006 59.6267 8.942 59.6267 7.136C59.6267 5.33 60.8167 4.308 62.2167 4.308C63.6167 4.308 64.8207 5.372 64.8207 7.15Z" fill="#666666"/>
</svg>
