<svg width="77" height="64" viewBox="0 0 77 64" fill="none" xmlns="http://www.w3.org/2000/svg">
<path d="M38.4015 63.9997C38.4016 63.9998 38.4015 64 38.4014 64C36.4385 63.9868 34.5176 63.4447 32.8509 62.4342L30.0898 60.7465C29.3009 60.2643 28.9065 60.0232 28.5423 59.7868C19.7095 54.0532 14.2631 44.3409 13.9774 33.8142C13.9656 33.3802 13.9656 32.9179 13.9656 31.9933V16.1124C13.9656 14.2385 14.9407 12.4996 16.5397 11.5223L32.8507 1.55256C32.8508 1.55252 32.8507 1.55241 32.8507 1.55241C32.8506 1.55241 32.8505 1.5523 32.8506 1.55226C34.9767 0.256691 37.5077 -0.252268 39.9854 0.117646C42.4633 0.487573 44.7227 1.71206 46.3538 3.56855C47.9848 5.42461 48.8791 7.79025 48.8738 10.2351V53.7509C48.8639 55.5675 48.3572 57.3489 47.4058 58.9108C46.4549 60.4732 45.0938 61.7597 43.4628 62.6376C41.9218 63.5034 40.1799 63.972 38.4016 63.9994C38.4014 63.9994 38.4014 63.9996 38.4015 63.9997ZM20.9467 31.9935C20.9467 41.4028 25.8517 50.1315 33.8887 55.0246L36.5511 56.6455C37.26 57.0776 38.1033 57.2469 38.9296 57.1238C39.7554 57.0006 40.5088 56.5925 41.0523 55.9734C41.5958 55.355 41.8939 54.566 41.8921 53.7514V10.2356C41.8939 9.42107 41.5958 8.63218 41.0523 8.0136C40.5088 7.39454 39.7555 6.98639 38.9296 6.86327C38.1033 6.74015 37.26 6.90945 36.5511 7.34152L33.8887 8.96247C25.8517 13.8555 20.9467 22.5842 20.9467 31.9935Z" fill="#282828"/>
<path d="M38.4015 63.9997C38.4016 63.9998 38.4015 64 38.4014 64C36.4385 63.9868 34.5176 63.4447 32.8509 62.4342L30.0898 60.7465C29.3009 60.2643 28.9065 60.0232 28.5423 59.7868C19.7095 54.0532 14.2631 44.3409 13.9774 33.8142C13.9656 33.3802 13.9656 32.9179 13.9656 31.9933V16.1124C13.9656 14.2385 14.9407 12.4996 16.5397 11.5223L32.8507 1.55256C32.8508 1.55252 32.8507 1.55241 32.8507 1.55241C32.8506 1.55241 32.8505 1.5523 32.8506 1.55226C34.9767 0.256691 37.5077 -0.252268 39.9854 0.117646C42.4633 0.487573 44.7227 1.71206 46.3538 3.56855C47.9848 5.42461 48.8791 7.79025 48.8738 10.2351V53.7509C48.8639 55.5675 48.3572 57.3489 47.4058 58.9108C46.4549 60.4732 45.0938 61.7597 43.4628 62.6376C41.9218 63.5034 40.1799 63.972 38.4016 63.9994C38.4014 63.9994 38.4014 63.9996 38.4015 63.9997ZM20.9467 31.9935C20.9467 41.4028 25.8517 50.1315 33.8887 55.0246L36.5511 56.6455C37.26 57.0776 38.1033 57.2469 38.9296 57.1238C39.7554 57.0006 40.5088 56.5925 41.0523 55.9734C41.5958 55.355 41.8939 54.566 41.8921 53.7514V10.2356C41.8939 9.42107 41.5958 8.63218 41.0523 8.0136C40.5088 7.39454 39.7555 6.98639 38.9296 6.86327C38.1033 6.74015 37.26 6.90945 36.5511 7.34152L33.8887 8.96247C25.8517 13.8555 20.9467 22.5842 20.9467 31.9935Z" fill="url(#paint0_linear_2_8838)"/>
<path d="M20.9455 41.9503C20.9455 47.7343 16.2567 52.4231 10.4728 52.4231C7.69568 52.4231 5.03186 51.3469 3.06762 49.431C1.10338 47.5157 0 44.9174 0 42.2081V21.7782C0 19.0689 1.10338 16.4706 3.06762 14.5553C5.03186 12.6395 7.69568 11.5632 10.4728 11.5632C16.2567 11.5632 20.9455 16.252 20.9455 22.036V41.9503ZM10.4728 18.3737C9.54704 18.3737 8.65932 18.7322 8.00477 19.3707C7.34964 20.0091 6.98205 20.8755 6.98205 21.7785V42.2084C6.98205 43.1114 7.34964 43.9778 8.00477 44.6162C8.65932 45.2547 9.54711 45.6132 10.4728 45.6132C12.401 45.6132 13.9641 44.0501 13.9641 42.1219V21.8656C13.9641 19.9373 12.401 18.374 10.4728 18.3737Z" fill="#282828"/>
<path d="M20.9455 41.9503C20.9455 47.7343 16.2567 52.4231 10.4728 52.4231C7.69568 52.4231 5.03186 51.3469 3.06762 49.431C1.10338 47.5157 0 44.9174 0 42.2081V21.7782C0 19.0689 1.10338 16.4706 3.06762 14.5553C5.03186 12.6395 7.69568 11.5632 10.4728 11.5632C16.2567 11.5632 20.9455 16.252 20.9455 22.036V41.9503ZM10.4728 18.3737C9.54704 18.3737 8.65932 18.7322 8.00477 19.3707C7.34964 20.0091 6.98205 20.8755 6.98205 21.7785V42.2084C6.98205 43.1114 7.34964 43.9778 8.00477 44.6162C8.65932 45.2547 9.54711 45.6132 10.4728 45.6132C12.401 45.6132 13.9641 44.0501 13.9641 42.1219V21.8656C13.9641 19.9373 12.401 18.374 10.4728 18.3737Z" fill="url(#paint1_linear_2_8838)"/>
<path d="M59.3469 21.7789C61.275 21.7789 62.8376 23.6595 62.8376 25.1837V38.8035C62.8376 40.6841 61.275 42.2083 59.3469 42.2083C57.4189 42.2083 55.8562 40.3277 55.8562 38.8035V25.1837C55.8562 23.3031 57.4189 21.7789 59.3469 21.7789Z" fill="#282828"/>
<path d="M59.3469 21.7789C61.275 21.7789 62.8376 23.6595 62.8376 25.1837V38.8035C62.8376 40.6841 61.275 42.2083 59.3469 42.2083C57.4189 42.2083 55.8562 40.3277 55.8562 38.8035V25.1837C55.8562 23.3031 57.4189 21.7789 59.3469 21.7789Z" fill="url(#paint2_linear_2_8838)"/>
<path d="M73.0906 14.4C75.0186 14.4 76.5813 15.8608 76.5813 18.8452V45.5122C76.5813 49.1943 75.0186 50 73.0906 50C71.1625 50 69.5999 48.4966 69.5999 45.5122V18.8452C69.5999 15.1631 71.1625 14.4 73.0906 14.4Z" fill="#282828"/>
<path d="M73.0906 14.4C75.0186 14.4 76.5813 15.8608 76.5813 18.8452V45.5122C76.5813 49.1943 75.0186 50 73.0906 50C71.1625 50 69.5999 48.4966 69.5999 45.5122V18.8452C69.5999 15.1631 71.1625 14.4 73.0906 14.4Z" fill="url(#paint3_linear_2_8838)"/>
<path d="M17.4562 44.1786C17.4562 47.1848 19.0218 49.9739 21.588 51.5396L34.7016 59.5403C34.7017 59.5404 34.7018 59.5403 34.7018 59.5402C34.7018 59.54 34.7019 59.54 34.7021 59.54C36.1192 60.4041 37.8069 60.7432 39.4584 60.497C41.1105 60.2501 42.6165 59.4338 43.7042 58.1963C44.7912 56.9587 45.3873 55.3815 45.3843 53.7517V10.236C45.3872 8.60624 44.7911 7.02891 43.7042 5.79144C42.6166 4.55389 41.1105 3.73765 39.4584 3.49074C37.8068 3.24448 36.1191 3.58365 34.7018 4.44782L31.9901 6.10215C22.9633 11.6092 17.4562 21.42 17.4562 31.9941V44.1786Z" fill="#282828"/>
<path d="M17.4562 44.1786C17.4562 47.1848 19.0218 49.9739 21.588 51.5396L34.7016 59.5403C34.7017 59.5404 34.7018 59.5403 34.7018 59.5402C34.7018 59.54 34.7019 59.54 34.7021 59.54C36.1192 60.4041 37.8069 60.7432 39.4584 60.497C41.1105 60.2501 42.6165 59.4338 43.7042 58.1963C44.7912 56.9587 45.3873 55.3815 45.3843 53.7517V10.236C45.3872 8.60624 44.7911 7.02891 43.7042 5.79144C42.6166 4.55389 41.1105 3.73765 39.4584 3.49074C37.8068 3.24448 36.1191 3.58365 34.7018 4.44782L31.9901 6.10215C22.9633 11.6092 17.4562 21.42 17.4562 31.9941V44.1786Z" fill="url(#paint4_linear_2_8838)"/>
<defs>
<linearGradient id="paint0_linear_2_8838" x1="13.9656" y1="32" x2="48.8738" y2="32" gradientUnits="userSpaceOnUse">
<stop stop-color="#12FFF7"/>
<stop offset="0.718873" stop-color="#91A6FF"/>
</linearGradient>
<linearGradient id="paint1_linear_2_8838" x1="0" y1="31.9932" x2="20.9455" y2="31.9932" gradientUnits="userSpaceOnUse">
<stop stop-color="#12FFF7"/>
<stop offset="0.718873" stop-color="#91A6FF"/>
</linearGradient>
<linearGradient id="paint2_linear_2_8838" x1="55.8562" y1="31.9936" x2="62.8376" y2="31.9936" gradientUnits="userSpaceOnUse">
<stop stop-color="#12FFF7"/>
<stop offset="0.718873" stop-color="#91A6FF"/>
</linearGradient>
<linearGradient id="paint3_linear_2_8838" x1="69.5999" y1="32.1787" x2="76.5813" y2="32.1787" gradientUnits="userSpaceOnUse">
<stop stop-color="#12FFF7"/>
<stop offset="0.718873" stop-color="#91A6FF"/>
</linearGradient>
<linearGradient id="paint4_linear_2_8838" x1="17.4562" y1="31.9939" x2="45.3843" y2="31.9939" gradientUnits="userSpaceOnUse">
<stop stop-color="#12FFF7"/>
<stop offset="0.718873" stop-color="#91A6FF"/>
</linearGradient>
</defs>
</svg>
