<svg width="336" height="48" viewBox="0 0 336 48" fill="none" xmlns="http://www.w3.org/2000/svg">
<g filter="url(#filter0_d_2_2098)">
<rect x="4" width="328" height="40" rx="20" fill="#91A6FF"/>
</g>
<path d="M148.355 22.97C148.355 19.28 142.985 20.45 142.985 18.35C142.985 17.495 143.6 17.09 144.425 17.12C145.325 17.135 145.88 17.675 145.925 18.365H148.235C148.1 16.475 146.63 15.38 144.485 15.38C142.325 15.38 140.795 16.52 140.795 18.41C140.78 22.205 146.18 20.84 146.18 23.105C146.18 23.855 145.595 24.38 144.605 24.38C143.63 24.38 143.075 23.825 143.015 22.985H140.765C140.795 24.965 142.475 26.105 144.65 26.105C147.035 26.105 148.355 24.62 148.355 22.97ZM158.021 17.69H155.906V22.265C155.906 23.6 155.186 24.32 154.046 24.32C152.936 24.32 152.201 23.6 152.201 22.265V17.69H150.101V22.565C150.101 24.845 151.496 26.105 153.431 26.105C154.466 26.105 155.381 25.655 155.906 24.95V26H158.021V17.69ZM162.193 18.905V14.9H160.093V26H162.193V24.815C162.703 25.535 163.633 26.135 164.938 26.135C167.068 26.135 168.733 24.41 168.733 21.815C168.733 19.22 167.068 17.555 164.938 17.555C163.678 17.555 162.703 18.14 162.193 18.905ZM166.588 21.815C166.588 23.39 165.523 24.29 164.383 24.29C163.258 24.29 162.193 23.42 162.193 21.845C162.193 20.27 163.258 19.4 164.383 19.4C165.523 19.4 166.588 20.24 166.588 21.815ZM181.884 26H183.984V21.125C183.984 18.83 182.574 17.57 180.579 17.57C179.364 17.57 178.269 18.215 177.729 19.16C177.159 18.125 176.094 17.57 174.804 17.57C173.769 17.57 172.884 18.005 172.359 18.695V17.69H170.259V26H172.359V21.41C172.359 20.09 173.094 19.4 174.234 19.4C175.344 19.4 176.079 20.09 176.079 21.41V26H178.179V21.41C178.179 20.09 178.914 19.4 180.039 19.4C181.149 19.4 181.884 20.09 181.884 21.41V26ZM185.976 26H188.076V17.69H185.976V26ZM187.041 16.7C187.776 16.7 188.331 16.16 188.331 15.47C188.331 14.78 187.776 14.24 187.041 14.24C186.291 14.24 185.751 14.78 185.751 15.47C185.751 16.16 186.291 16.7 187.041 16.7ZM190.481 23.42C190.481 25.325 191.546 26 193.136 26H194.456V24.23H193.481C192.821 24.23 192.596 23.99 192.596 23.435V19.415H194.456V17.69H192.596V15.635H190.481V17.69H189.491V19.415H190.481V23.42Z" fill="white"/>
<defs>
<filter id="filter0_d_2_2098" x="0" y="0" width="336" height="48" filterUnits="userSpaceOnUse" color-interpolation-filters="sRGB">
<feFlood flood-opacity="0" result="BackgroundImageFix"/>
<feColorMatrix in="SourceAlpha" type="matrix" values="0 0 0 0 0 0 0 0 0 0 0 0 0 0 0 0 0 0 127 0" result="hardAlpha"/>
<feOffset dy="4"/>
<feGaussianBlur stdDeviation="2"/>
<feComposite in2="hardAlpha" operator="out"/>
<feColorMatrix type="matrix" values="0 0 0 0 0 0 0 0 0 0 0 0 0 0 0 0 0 0 0.25 0"/>
<feBlend mode="normal" in2="BackgroundImageFix" result="effect1_dropShadow_2_2098"/>
<feBlend mode="normal" in="SourceGraphic" in2="effect1_dropShadow_2_2098" result="shape"/>
</filter>
</defs>
</svg>
