<svg width="160" height="14" viewBox="0 0 160 14" fill="none" xmlns="http://www.w3.org/2000/svg">
<path d="M0.442 1.901H2.925V10H4.108V1.901H6.578V0.939H0.442V1.901ZM7.5922 6.412C7.5922 8.622 9.0612 10.117 10.9592 10.117C12.2722 10.117 13.1952 9.441 13.6242 8.674V10H14.8202V2.876H13.6242V4.176C13.2082 3.435 12.2982 2.759 10.9722 2.759C9.0612 2.759 7.5922 4.189 7.5922 6.412ZM13.6242 6.425C13.6242 8.102 12.5062 9.077 11.2062 9.077C9.9062 9.077 8.8012 8.089 8.8012 6.412C8.8012 4.735 9.9062 3.786 11.2062 3.786C12.5062 3.786 13.6242 4.774 13.6242 6.425ZM18.0024 4.189V2.876H16.8194V13.38H18.0024V8.687C18.4444 9.415 19.3674 10.117 20.6674 10.117C22.5784 10.117 24.0474 8.622 24.0474 6.412C24.0474 4.189 22.5784 2.759 20.6674 2.759C19.3674 2.759 18.4314 3.435 18.0024 4.189ZM22.8384 6.412C22.8384 8.089 21.7334 9.077 20.4204 9.077C19.1334 9.077 18.0024 8.102 18.0024 6.425C18.0024 4.774 19.1334 3.786 20.4204 3.786C21.7334 3.786 22.8384 4.735 22.8384 6.412ZM39.3533 10H40.5233V5.801C40.5233 3.76 39.2623 2.746 37.6373 2.746C36.5453 2.746 35.5313 3.305 35.1153 4.332C34.6473 3.266 33.6723 2.746 32.5023 2.746C31.5663 2.746 30.7213 3.149 30.2533 3.903V2.876H29.0703V10H30.2533V6.074C30.2533 4.54 31.0723 3.773 32.2683 3.773C33.4383 3.773 34.2183 4.514 34.2183 5.97V10H35.3883V6.074C35.3883 4.54 36.2073 3.773 37.4033 3.773C38.5733 3.773 39.3533 4.514 39.3533 5.97V10ZM45.4929 3.76C46.7149 3.76 47.7549 4.527 47.7419 5.918H43.2439C43.3739 4.527 44.3359 3.76 45.4929 3.76ZM48.8209 7.803H47.5469C47.2869 8.57 46.6109 9.116 45.5449 9.116C44.3359 9.116 43.3219 8.323 43.2309 6.88H48.9249C48.9509 6.633 48.9639 6.425 48.9639 6.165C48.9639 4.215 47.6119 2.759 45.5449 2.759C43.4649 2.759 42.0219 4.176 42.0219 6.425C42.0219 8.687 43.5169 10.117 45.5449 10.117C47.3129 10.117 48.4569 9.103 48.8209 7.803ZM54.2512 8.05C54.2512 9.48 54.9662 10 56.2272 10H57.2932V8.999H56.4222C55.6942 8.999 55.4342 8.752 55.4342 8.05V3.851H57.2932V2.876H55.4342V1.082H54.2512V2.876H53.3282V3.851H54.2512V8.05ZM65.4866 6.425C65.4866 4.176 63.9136 2.759 61.8856 2.759C59.8706 2.759 58.2846 4.176 58.2846 6.425C58.2846 8.687 59.8186 10.117 61.8336 10.117C63.8616 10.117 65.4866 8.687 65.4866 6.425ZM59.4936 6.425C59.4936 4.631 60.6246 3.786 61.8726 3.786C63.0946 3.786 64.2776 4.631 64.2776 6.425C64.2776 8.232 63.0686 9.077 61.8336 9.077C60.5986 9.077 59.4936 8.232 59.4936 6.425ZM70.5078 10H71.6908V6.061C71.6908 4.527 72.5228 3.773 73.7318 3.773C74.9278 3.773 75.7208 4.514 75.7208 5.97V10H76.8908V5.801C76.8908 3.76 75.6298 2.746 74.0438 2.746C73.0428 2.746 72.1588 3.149 71.6908 3.903V0.38H70.5078V10ZM81.8523 3.76C83.0743 3.76 84.1143 4.527 84.1013 5.918H79.6033C79.7333 4.527 80.6953 3.76 81.8523 3.76ZM85.1803 7.803H83.9063C83.6463 8.57 82.9703 9.116 81.9043 9.116C80.6953 9.116 79.6813 8.323 79.5903 6.88H85.2843C85.3103 6.633 85.3233 6.425 85.3233 6.165C85.3233 4.215 83.9713 2.759 81.9043 2.759C79.8243 2.759 78.3813 4.176 78.3813 6.425C78.3813 8.687 79.8763 10.117 81.9043 10.117C83.6723 10.117 84.8163 9.103 85.1803 7.803ZM86.4428 6.412C86.4428 8.622 87.9118 10.117 89.8098 10.117C91.1228 10.117 92.0458 9.441 92.4748 8.674V10H93.6708V2.876H92.4748V4.176C92.0588 3.435 91.1488 2.759 89.8228 2.759C87.9118 2.759 86.4428 4.189 86.4428 6.412ZM92.4748 6.425C92.4748 8.102 91.3568 9.077 90.0568 9.077C88.7568 9.077 87.6518 8.089 87.6518 6.412C87.6518 4.735 88.7568 3.786 90.0568 3.786C91.3568 3.786 92.4748 4.774 92.4748 6.425ZM96.8529 6.126C96.8529 4.475 97.7109 3.968 98.8419 3.968H99.1539V2.746C98.0229 2.746 97.2559 3.24 96.8529 4.033V2.876H95.6699V10H96.8529V6.126ZM104.245 8.05C104.245 9.48 104.96 10 106.221 10H107.287V8.999H106.416C105.688 8.999 105.428 8.752 105.428 8.05V3.851H107.287V2.876H105.428V1.082H104.245V2.876H103.322V3.851H104.245V8.05ZM108.721 10H109.904V6.061C109.904 4.527 110.736 3.773 111.945 3.773C113.141 3.773 113.934 4.514 113.934 5.97V10H115.104V5.801C115.104 3.76 113.843 2.746 112.257 2.746C111.256 2.746 110.372 3.149 109.904 3.903V0.38H108.721V10ZM120.065 3.76C121.287 3.76 122.327 4.527 122.314 5.918H117.816C117.946 4.527 118.908 3.76 120.065 3.76ZM123.393 7.803H122.119C121.859 8.57 121.183 9.116 120.117 9.116C118.908 9.116 117.894 8.323 117.803 6.88H123.497C123.523 6.633 123.536 6.425 123.536 6.165C123.536 4.215 122.184 2.759 120.117 2.759C118.037 2.759 116.594 4.176 116.594 6.425C116.594 8.687 118.089 10.117 120.117 10.117C121.885 10.117 123.029 9.103 123.393 7.803ZM129.955 10H131.177L132.893 4.345L134.609 10H135.831L138.054 2.876H136.884L135.272 8.869L133.543 2.876H132.334L130.566 8.856L128.928 2.876H127.719L129.955 10ZM145.988 6.425C145.988 4.176 144.415 2.759 142.387 2.759C140.372 2.759 138.786 4.176 138.786 6.425C138.786 8.687 140.32 10.117 142.335 10.117C144.363 10.117 145.988 8.687 145.988 6.425ZM139.995 6.425C139.995 4.631 141.126 3.786 142.374 3.786C143.596 3.786 144.779 4.631 144.779 6.425C144.779 8.232 143.57 9.077 142.335 9.077C141.1 9.077 139.995 8.232 139.995 6.425ZM148.726 6.126C148.726 4.475 149.584 3.968 150.715 3.968H151.027V2.746C149.896 2.746 149.129 3.24 148.726 4.033V2.876H147.543V10H148.726V6.126ZM151.951 6.412C151.951 8.622 153.42 10.117 155.331 10.117C156.631 10.117 157.554 9.454 157.983 8.661V10H159.179V0.38H157.983V4.15C157.489 3.331 156.462 2.759 155.344 2.759C153.42 2.759 151.951 4.189 151.951 6.412ZM157.983 6.425C157.983 8.102 156.865 9.077 155.565 9.077C154.265 9.077 153.16 8.089 153.16 6.412C153.16 4.735 154.265 3.786 155.565 3.786C156.865 3.786 157.983 4.774 157.983 6.425Z" fill="#666666"/>
</svg>
