<svg width="93" height="17" viewBox="0 0 93 17" fill="none" xmlns="http://www.w3.org/2000/svg">
<path d="M8.384 0.879999V2.368H5.424V12H3.6V2.368H0.624V0.879999H8.384ZM9.62325 7.552C9.62325 6.66667 9.80458 5.88267 10.1673 5.2C10.5406 4.51733 11.0419 3.98933 11.6713 3.616C12.3113 3.232 13.0153 3.04 13.7833 3.04C14.4766 3.04 15.0793 3.17867 15.5913 3.456C16.1139 3.72267 16.5299 4.05867 16.8393 4.464V3.184H18.6793V12H16.8393V10.688C16.5299 11.104 16.1086 11.4507 15.5753 11.728C15.0419 12.0053 14.4339 12.144 13.7513 12.144C12.9939 12.144 12.3006 11.952 11.6713 11.568C11.0419 11.1733 10.5406 10.6293 10.1673 9.936C9.80458 9.232 9.62325 8.43733 9.62325 7.552ZM16.8393 7.584C16.8393 6.976 16.7113 6.448 16.4553 6C16.2099 5.552 15.8846 5.21067 15.4793 4.976C15.0739 4.74133 14.6366 4.624 14.1673 4.624C13.6979 4.624 13.2606 4.74133 12.8553 4.976C12.4499 5.2 12.1193 5.536 11.8633 5.984C11.6179 6.42133 11.4953 6.944 11.4953 7.552C11.4953 8.16 11.6179 8.69333 11.8633 9.152C12.1193 9.61067 12.4499 9.96267 12.8553 10.208C13.2713 10.4427 13.7086 10.56 14.1673 10.56C14.6366 10.56 15.0739 10.4427 15.4793 10.208C15.8846 9.97333 16.2099 9.632 16.4553 9.184C16.7113 8.72533 16.8393 8.192 16.8393 7.584ZM22.899 4.48C23.2083 4.07467 23.6297 3.73333 24.163 3.456C24.6963 3.17867 25.299 3.04 25.971 3.04C26.739 3.04 27.4377 3.232 28.067 3.616C28.707 3.98933 29.2083 4.51733 29.571 5.2C29.9337 5.88267 30.115 6.66667 30.115 7.552C30.115 8.43733 29.9337 9.232 29.571 9.936C29.2083 10.6293 28.707 11.1733 28.067 11.568C27.4377 11.952 26.739 12.144 25.971 12.144C25.299 12.144 24.7017 12.0107 24.179 11.744C23.6563 11.4667 23.2297 11.1253 22.899 10.72V16.192H21.075V3.184H22.899V4.48ZM28.259 7.552C28.259 6.944 28.131 6.42133 27.875 5.984C27.6297 5.536 27.299 5.2 26.883 4.976C26.4777 4.74133 26.0403 4.624 25.571 4.624C25.1123 4.624 24.675 4.74133 24.259 4.976C23.8537 5.21067 23.523 5.552 23.267 6C23.0217 6.448 22.899 6.976 22.899 7.584C22.899 8.192 23.0217 8.72533 23.267 9.184C23.523 9.632 23.8537 9.97333 24.259 10.208C24.675 10.4427 25.1123 10.56 25.571 10.56C26.0403 10.56 26.4777 10.4427 26.883 10.208C27.299 9.96267 27.6297 9.61067 27.875 9.152C28.131 8.69333 28.259 8.16 28.259 7.552ZM38.203 4.672V9.552C38.203 9.88267 38.2777 10.1227 38.427 10.272C38.587 10.4107 38.8537 10.48 39.227 10.48H40.347V12H38.907C38.0857 12 37.4563 11.808 37.019 11.424C36.5817 11.04 36.363 10.416 36.363 9.552V4.672H35.323V3.184H36.363V0.992H38.203V3.184H40.347V4.672H38.203ZM45.8521 12.144C45.0201 12.144 44.2681 11.9573 43.5961 11.584C42.9241 11.2 42.3961 10.6667 42.0121 9.984C41.6281 9.29067 41.4361 8.49067 41.4361 7.584C41.4361 6.688 41.6335 5.89333 42.0281 5.2C42.4228 4.50667 42.9615 3.97333 43.6441 3.6C44.3268 3.22667 45.0895 3.04 45.9321 3.04C46.7748 3.04 47.5375 3.22667 48.2201 3.6C48.9028 3.97333 49.4415 4.50667 49.8361 5.2C50.2308 5.89333 50.4281 6.688 50.4281 7.584C50.4281 8.48 50.2255 9.27467 49.8201 9.968C49.4148 10.6613 48.8601 11.2 48.1561 11.584C47.4628 11.9573 46.6948 12.144 45.8521 12.144ZM45.8521 10.56C46.3215 10.56 46.7588 10.448 47.1641 10.224C47.5801 10 47.9161 9.664 48.1721 9.216C48.4281 8.768 48.5561 8.224 48.5561 7.584C48.5561 6.944 48.4335 6.40533 48.1881 5.968C47.9428 5.52 47.6175 5.184 47.2121 4.96C46.8068 4.736 46.3695 4.624 45.9001 4.624C45.4308 4.624 44.9935 4.736 44.5881 4.96C44.1935 5.184 43.8788 5.52 43.6441 5.968C43.4095 6.40533 43.2921 6.944 43.2921 7.584C43.2921 8.53333 43.5321 9.26933 44.0121 9.792C44.5028 10.304 45.1161 10.56 45.8521 10.56ZM59.5875 12.144C58.8942 12.144 58.2702 12.0213 57.7155 11.776C57.1715 11.52 56.7395 11.1787 56.4195 10.752C56.0995 10.3147 55.9288 9.82933 55.9075 9.296H57.7955C57.8275 9.66933 58.0035 9.984 58.3235 10.24C58.6542 10.4853 59.0648 10.608 59.5555 10.608C60.0675 10.608 60.4622 10.512 60.7395 10.32C61.0275 10.1173 61.1715 9.86133 61.1715 9.552C61.1715 9.22133 61.0115 8.976 60.6915 8.816C60.3822 8.656 59.8862 8.48 59.2035 8.288C58.5422 8.10667 58.0035 7.93067 57.5875 7.76C57.1715 7.58933 56.8088 7.328 56.4995 6.976C56.2008 6.624 56.0515 6.16 56.0515 5.584C56.0515 5.11467 56.1902 4.688 56.4675 4.304C56.7448 3.90933 57.1395 3.6 57.6515 3.376C58.1742 3.152 58.7715 3.04 59.4435 3.04C60.4462 3.04 61.2515 3.296 61.8595 3.808C62.4782 4.30933 62.8088 4.99733 62.8515 5.872H61.0275C60.9955 5.47733 60.8355 5.16267 60.5475 4.928C60.2595 4.69333 59.8702 4.576 59.3795 4.576C58.8995 4.576 58.5315 4.66667 58.2755 4.848C58.0195 5.02933 57.8915 5.26933 57.8915 5.568C57.8915 5.80267 57.9768 6 58.1475 6.16C58.3182 6.32 58.5262 6.448 58.7715 6.544C59.0168 6.62933 59.3795 6.74133 59.8595 6.88C60.4995 7.05067 61.0222 7.22667 61.4275 7.408C61.8435 7.57867 62.2008 7.83467 62.4995 8.176C62.7982 8.51733 62.9528 8.97067 62.9635 9.536C62.9635 10.0373 62.8248 10.4853 62.5475 10.88C62.2702 11.2747 61.8755 11.584 61.3635 11.808C60.8622 12.032 60.2702 12.144 59.5875 12.144ZM67.0624 4.672V9.552C67.0624 9.88267 67.137 10.1227 67.2864 10.272C67.4464 10.4107 67.713 10.48 68.0864 10.48H69.2064V12H67.7664C66.945 12 66.3157 11.808 65.8784 11.424C65.441 11.04 65.2224 10.416 65.2224 9.552V4.672H64.1824V3.184H65.2224V0.992H67.0624V3.184H69.2064V4.672H67.0624ZM70.2795 7.552C70.2795 6.66667 70.4608 5.88267 70.8235 5.2C71.1968 4.51733 71.6982 3.98933 72.3275 3.616C72.9675 3.232 73.6715 3.04 74.4395 3.04C75.1328 3.04 75.7355 3.17867 76.2475 3.456C76.7702 3.72267 77.1862 4.05867 77.4955 4.464V3.184H79.3355V12H77.4955V10.688C77.1862 11.104 76.7648 11.4507 76.2315 11.728C75.6982 12.0053 75.0902 12.144 74.4075 12.144C73.6502 12.144 72.9568 11.952 72.3275 11.568C71.6982 11.1733 71.1968 10.6293 70.8235 9.936C70.4608 9.232 70.2795 8.43733 70.2795 7.552ZM77.4955 7.584C77.4955 6.976 77.3675 6.448 77.1115 6C76.8662 5.552 76.5408 5.21067 76.1355 4.976C75.7302 4.74133 75.2928 4.624 74.8235 4.624C74.3542 4.624 73.9168 4.74133 73.5115 4.976C73.1062 5.2 72.7755 5.536 72.5195 5.984C72.2742 6.42133 72.1515 6.944 72.1515 7.552C72.1515 8.16 72.2742 8.69333 72.5195 9.152C72.7755 9.61067 73.1062 9.96267 73.5115 10.208C73.9275 10.4427 74.3648 10.56 74.8235 10.56C75.2928 10.56 75.7302 10.4427 76.1355 10.208C76.5408 9.97333 76.8662 9.632 77.1115 9.184C77.3675 8.72533 77.4955 8.192 77.4955 7.584ZM83.5553 4.464C83.8219 4.016 84.1739 3.66933 84.6113 3.424C85.0593 3.168 85.5873 3.04 86.1953 3.04V4.928H85.7313C85.0166 4.928 84.4726 5.10933 84.0993 5.472C83.7366 5.83467 83.5553 6.464 83.5553 7.36V12H81.7313V3.184H83.5553V4.464ZM89.9999 4.672V9.552C89.9999 9.88267 90.0745 10.1227 90.2239 10.272C90.3839 10.4107 90.6505 10.48 91.0239 10.48H92.1439V12H90.7039C89.8825 12 89.2532 11.808 88.8159 11.424C88.3785 11.04 88.1599 10.416 88.1599 9.552V4.672H87.1199V3.184H88.1599V0.992H89.9999V3.184H92.1439V4.672H89.9999Z" fill="#666666"/>
</svg>
