<svg width="120" height="120" viewBox="0 0 120 120" fill="none" xmlns="http://www.w3.org/2000/svg">
<path d="M60 0C26.9092 0 0 26.9092 0 60C0 93.0908 26.9092 120 60 120C93.0909 120 120 93.0908 120 60C120 26.9092 93.0909 0 60 0ZM60 7.82655C88.861 7.82655 112.174 31.1394 112.174 60.0005C112.174 88.8615 88.861 112.174 60 112.174C31.139 112.174 7.82609 88.8615 7.82609 60.0005C7.82609 31.1394 31.139 7.82655 60 7.82655ZM60 16.9568C57.8391 16.9568 56.0867 18.7091 56.0867 20.87V60.0005C56.0867 62.1613 57.8391 63.9137 60 63.9137H96.5217C98.6826 63.9137 100.435 62.1623 100.435 60.0005C100.435 57.8396 98.6827 56.0872 96.5217 56.0872H63.913V20.8698C63.913 18.7089 62.1616 16.9565 59.9998 16.9565L60 16.9568Z" fill="#EBEBEB"/>
</svg>
