<svg width="90" height="48" viewBox="0 0 90 48" fill="none" xmlns="http://www.w3.org/2000/svg">
<g filter="url(#filter0_d_187_3)">
<path fill-rule="evenodd" clip-rule="evenodd" d="M6 22C6 12.0589 14.0589 4 24 4H66C75.9411 4 84 12.0589 84 22C84 31.9411 75.9411 40 66 40H24C14.0589 40 6 31.9411 6 22Z" fill="white"/>
</g>
<path d="M37.9909 22.0024C37.813 26.1403 35.8559 29.5953 32.9279 31.7196C31.1734 32.9872 29.1172 33.756 26.9719 33.9464C26.5942 33.9826 26.2109 34 25.8241 34C25.6152 34 25.4074 33.9942 25.202 33.9837C22.5725 33.8456 20.0643 32.8175 18.0775 31.0635C18.0745 31.0611 18.0718 31.0584 18.0694 31.0554H18.0637C17.9845 30.9866 17.9065 30.9156 17.8341 30.8433L17.7308 30.7454C17.6999 30.7163 17.67 30.6883 17.6402 30.658C17.4557 30.4786 17.2767 30.2925 17.103 30.0999L17.002 29.9833C16.8998 29.8668 16.8011 29.7503 16.7047 29.6338C16.6886 29.6139 16.6726 29.593 16.6553 29.5732L16.5142 29.3925L16.4212 29.276C16.3626 29.1979 16.3064 29.1187 16.2479 29.043L16.2398 29.0313L16.1951 28.9684C16.1216 28.8635 16.0493 28.7575 15.9793 28.6503C15.923 28.564 15.8645 28.4766 15.814 28.3892L15.8071 28.3799C15.7532 28.2925 15.7004 28.204 15.6487 28.1154C15.6235 28.0723 15.5982 28.0292 15.5741 27.9861L15.4938 27.8416C15.3939 27.6609 15.2998 27.4768 15.2091 27.2904C15.1896 27.2531 15.1724 27.2158 15.154 27.1739L15.0817 27.0131C15.0622 26.9711 15.0427 26.9292 15.0243 26.886C14.9795 26.7835 14.9348 26.6798 14.8923 26.5749C14.8728 26.5271 14.8533 26.4782 14.8349 26.4293C14.7787 26.2883 14.727 26.1449 14.6754 26.0016L14.6409 25.8991C14.5698 25.687 14.502 25.4714 14.4424 25.2523C14.4286 25.2057 14.416 25.1591 14.4045 25.1113L14.3735 24.9948L14.3391 24.8561C14.3241 24.7944 14.3104 24.7326 14.2966 24.6709C14.2828 24.6091 14.2656 24.531 14.2507 24.4611L14.2197 24.3038L14.1921 24.15C14.1439 23.8859 14.1057 23.6178 14.0774 23.3459C14.0774 23.3203 14.0705 23.2935 14.0682 23.2667C14.0498 23.0849 14.0349 22.9008 14.0234 22.7155C14.0234 22.6724 14.0234 22.6316 14.0234 22.5885C14.0096 22.4685 14.0016 22.3345 14.0016 22.204C13.8937 15.5095 19.2563 9.98376 25.8505 10.0001H25.9997H26.196L26.383 10.0094H26.4072C28.1602 10.0933 29.8723 10.5756 31.4174 11.4205C31.5865 11.5122 31.7525 11.6085 31.9155 11.7095C32.502 12.0686 33.0617 12.4709 33.5902 12.9133C34.1306 13.3661 34.6363 13.8601 35.103 14.3908C35.484 14.8271 35.8352 15.2892 36.1544 15.774C37.3642 17.5895 38.0907 19.7219 37.9909 22.0024Z" fill="#DDAB0A"/>
<path d="M32.9286 31.7173C31.174 32.9859 29.1173 33.7555 26.9714 33.9464C26.5938 33.9826 26.2104 34 25.8236 34C25.6147 34 25.407 33.9942 25.2015 33.9837C22.5721 33.8456 20.0639 32.8175 18.077 31.0636C18.0741 31.0611 18.0714 31.0584 18.069 31.0554H18.0633C17.9841 30.9866 17.906 30.9156 17.8337 30.8433L17.7304 30.7454C17.6994 30.7163 17.6696 30.6883 17.6397 30.658C17.4553 30.4786 17.2763 30.2925 17.1026 30.0999L17.0015 29.9833C16.8994 29.8668 16.8007 29.7503 16.7043 29.6338C16.6882 29.614 16.6721 29.593 16.6549 29.5732L16.5137 29.3926L16.4208 29.276C16.3622 29.198 16.306 29.1187 16.2474 29.043C19.9514 29.7922 28.0045 31.3665 32.9286 31.7173Z" fill="#C69712"/>
<path d="M27.8647 32.1763C26.6631 32.5789 25.4055 32.7828 24.1401 32.78C23.9449 32.78 23.7498 32.773 23.557 32.7636C21.6258 32.665 19.7484 32.0842 18.0911 31.0728C18.0804 31.0665 18.0704 31.0591 18.0613 31.0507C16.8495 29.9814 15.8646 28.6731 15.1665 27.2053C15.101 27.0631 15.0345 26.9245 14.9782 26.78C14.4466 25.5391 14.1264 24.2155 14.0313 22.8658C14.0164 22.6467 14.006 22.4265 14.0026 22.2039C13.963 19.4284 14.8697 16.7242 16.5691 14.5496C18.2684 12.375 20.6561 10.8636 23.3274 10.2715C23.4743 10.2389 23.6224 10.2086 23.7716 10.1818C24.4579 10.059 25.1535 9.9982 25.8503 10H25.9995C27.8869 10.0275 29.7288 10.5928 31.315 11.6314C32.0689 12.1233 32.7535 12.7168 33.3501 13.3956C33.8576 13.9685 34.2979 14.5993 34.6621 15.2752C34.8774 15.6785 35.0653 16.0963 35.2245 16.5256C35.301 16.7415 35.3752 16.9594 35.4472 17.1793C35.7875 18.2792 35.9695 19.4233 35.9878 20.5761C36.075 25.9503 32.6362 30.5706 27.8647 32.1763Z" fill="#F8C705"/>
<path d="M33.6023 17.7515C33.0592 16.1616 32.0431 14.7821 30.6946 13.8036C29.346 12.8251 27.7314 12.2957 26.0738 12.2887H26.0222C24.4663 12.2887 22.9329 12.666 21.5497 13.3893C20.1665 14.1126 18.9736 15.1609 18.0702 16.447C17.1668 17.733 16.5791 19.2196 16.3561 20.7828C16.1331 22.3461 16.2812 23.9408 16.788 25.4342C17.1655 26.5481 17.779 27.5645 18.5855 28.4114C19.3292 29.1935 20.2194 29.8166 21.2038 30.244C22.1883 30.6715 23.247 30.8947 24.3177 30.9005H24.3693C25.9255 30.9003 27.459 30.5226 28.8423 29.799C30.2255 29.0753 31.4185 28.0266 32.3218 26.7403C33.225 25.4539 33.8125 23.967 34.0353 22.4035C34.258 20.84 34.1096 19.245 33.6023 17.7515ZM17.4446 24.9331C16.9849 23.5778 16.8507 22.1306 17.0531 20.7119C17.2555 19.2933 17.7887 17.9443 18.6084 16.7771C19.428 15.6099 20.5103 14.6583 21.7653 14.0014C23.0203 13.3446 24.4117 13.0015 25.8236 13.0007H25.8707C26.8227 13.005 27.7641 13.2032 28.6393 13.5835C29.5145 13.9638 30.3056 14.5185 30.9658 15.2147C31.7745 16.0017 32.3871 16.9727 32.753 18.0475C33.2126 19.4029 33.3468 20.8502 33.1444 22.2688C32.9419 23.6875 32.4088 25.0366 31.5892 26.2039C30.7696 27.3712 29.6873 28.3229 28.4323 28.9799C27.1773 29.6369 25.7859 29.9801 24.3739 29.9811H24.3269C23.375 29.9763 22.4337 29.7779 21.5585 29.3977C20.6834 29.0174 19.8922 28.4629 19.2317 27.7671C18.4225 26.9801 17.8099 26.0086 17.4446 24.9331Z" fill="#DDAB0A"/>
<path d="M30.9643 15.217C29.647 13.9336 27.8946 13.2128 26.0689 13.2034H26.023C24.6107 13.2034 23.2189 13.546 21.9635 14.2026C20.7081 14.8592 19.6254 15.8109 18.8057 16.9783C17.9859 18.1457 17.4528 19.4951 17.2507 20.9141C17.0486 22.333 17.1834 23.7805 17.6439 25.1358C17.9779 26.1195 18.5193 27.0175 19.2302 27.767C18.4218 26.9798 17.81 26.0083 17.4454 24.933C16.9857 23.5777 16.8515 22.1305 17.0539 20.7119C17.2563 19.2932 17.7895 17.9442 18.6091 16.777C19.4287 15.6098 20.5111 14.6582 21.7661 14.0013C23.0211 13.3445 24.4124 13.0014 25.8244 13.0006H25.8714C26.8232 13.0056 27.7643 13.2042 28.6391 13.5849C29.5138 13.9656 30.3045 14.5206 30.9643 15.217Z" fill="#C69712"/>
<g style="mix-blend-mode:screen" opacity="0.5">
<path d="M23.3274 10.2715L22.7248 11.4729L15.4809 25.7883L14.9782 26.7799C14.4466 25.539 14.1264 24.2155 14.0312 22.8658L19.6326 11.7863C20.7701 11.0713 22.0197 10.559 23.3274 10.2715Z" fill="#F8C705"/>
</g>
<path d="M24.0183 24.7705C24.4527 24.8952 24.8198 24.8947 25.1195 24.769C25.4211 24.639 25.6525 24.3903 25.8137 24.0227C25.8774 23.8774 25.9072 23.7398 25.903 23.6099C25.9007 23.4757 25.8737 23.3457 25.8219 23.2199C25.77 23.0941 25.6965 22.9712 25.6013 22.8514C25.508 22.7272 25.4003 22.6069 25.2782 22.4902L24.0183 24.7705ZM26.3948 18.0097C26.1648 17.9416 25.9582 17.9071 25.7752 17.9063C25.594 17.9012 25.4338 17.9236 25.2948 17.9734C25.16 18.0251 25.0439 18.0981 24.9465 18.1924C24.8553 18.2843 24.7815 18.3943 24.7253 18.5225C24.6616 18.6678 24.6278 18.8088 24.624 18.9453C24.6263 19.0795 24.6524 19.2116 24.7023 19.3417C24.7523 19.4719 24.823 19.6011 24.9144 19.7295C25.0078 19.8536 25.1167 19.9771 25.2411 20.0999L26.3948 18.0097ZM26.1418 20.9218C26.3197 21.0739 26.4947 21.2324 26.667 21.3973C26.8411 21.558 27.0021 21.7255 27.1498 21.8998C27.2976 22.0741 27.426 22.2576 27.5351 22.4503C27.6442 22.643 27.7227 22.8475 27.7705 23.0637C27.8245 23.2776 27.8396 23.5046 27.8158 23.7448C27.792 23.9849 27.7211 24.2396 27.603 24.5089C27.4287 24.9064 27.1957 25.2517 26.9041 25.5449C26.6185 25.8358 26.2861 26.0593 25.9068 26.2156C25.5293 26.3676 25.1159 26.4445 24.6668 26.4463C24.2176 26.4481 23.7431 26.3565 23.2433 26.1716L22.7844 27.0089C22.7272 27.1161 22.6364 27.1954 22.512 27.2467C22.3875 27.298 22.2573 27.2929 22.1212 27.2314L21.477 26.9402L22.1914 25.6424C21.964 25.4986 21.7462 25.3387 21.5381 25.1627C21.336 24.9843 21.1482 24.797 20.9744 24.6007C20.8025 24.4001 20.648 24.1946 20.511 23.9841C20.3759 23.7694 20.2646 23.5527 20.1771 23.3339L21.0707 22.7776C21.1475 22.7304 21.2356 22.7037 21.3352 22.6975C21.4366 22.687 21.5298 22.7009 21.6149 22.7394C21.7127 22.7836 21.8016 22.8596 21.8817 22.9675C21.9618 23.0754 22.0468 23.2009 22.1369 23.3441C22.2331 23.4848 22.3433 23.6345 22.4674 23.793C22.5958 23.9535 22.7581 24.1062 22.9543 24.2512L24.3635 21.7004C24.1837 21.5526 24.0068 21.3983 23.8326 21.2377C23.6646 21.0747 23.5077 20.9039 23.3618 20.7253C23.216 20.5467 23.0894 20.3589 22.9822 20.162C22.881 19.9626 22.8094 19.7484 22.7672 19.5194C22.7249 19.2903 22.7195 19.0472 22.7508 18.7899C22.7839 18.5284 22.8661 18.2481 22.9973 17.9489C23.1435 17.6155 23.3509 17.3227 23.6196 17.0703C23.8901 16.8136 24.2052 16.618 24.5648 16.4835C24.9286 16.351 25.3302 16.2893 25.7695 16.2984C26.2107 16.3032 26.6772 16.4014 27.169 16.5929L27.5737 15.8618C27.6309 15.7545 27.7208 15.6774 27.8433 15.6303C27.972 15.5809 28.1022 15.586 28.2341 15.6456L28.8847 15.9397L28.2188 17.1443C28.6425 17.4331 28.9777 17.7434 29.2246 18.0751C29.4714 18.4069 29.6612 18.741 29.7939 19.0775L29.079 19.5226C28.9763 19.5939 28.8807 19.6378 28.792 19.654C28.7052 19.666 28.6151 19.6508 28.5215 19.6086C28.4577 19.5797 28.3887 19.528 28.3144 19.4535C28.2462 19.3766 28.1702 19.2885 28.0864 19.1891C28.0044 19.0855 27.9097 18.9761 27.8023 18.861C27.6991 18.7478 27.5836 18.6392 27.4559 18.5354L26.1418 20.9218Z" fill="white"/>
<g style="mix-blend-mode:screen" opacity="0.5">
<path d="M35.4475 17.1794L33.4801 21.0703L29.8335 28.2833L27.865 32.1765C27.2158 32.3945 26.5491 32.5544 25.8724 32.6543L27.3887 29.6549L33.1484 18.262L34.6624 15.2754C34.8777 15.6787 35.0656 16.0964 35.2248 16.5257C35.309 16.7417 35.3832 16.9596 35.4475 17.1794Z" fill="#F8C705"/>
</g>
<defs>
<filter id="filter0_d_187_3" x="0" y="0" width="90" height="48" filterUnits="userSpaceOnUse" color-interpolation-filters="sRGB">
<feFlood flood-opacity="0" result="BackgroundImageFix"/>
<feColorMatrix in="SourceAlpha" type="matrix" values="0 0 0 0 0 0 0 0 0 0 0 0 0 0 0 0 0 0 127 0" result="hardAlpha"/>
<feOffset dy="2"/>
<feGaussianBlur stdDeviation="3"/>
<feColorMatrix type="matrix" values="0 0 0 0 0.854902 0 0 0 0 0.854902 0 0 0 0 0.854902 0 0 0 1 0"/>
<feBlend mode="normal" in2="BackgroundImageFix" result="effect1_dropShadow_187_3"/>
<feBlend mode="normal" in="SourceGraphic" in2="effect1_dropShadow_187_3" result="shape"/>
</filter>
</defs>
</svg>
