<svg width="50" height="90" viewBox="0 0 50 90" fill="none" xmlns="http://www.w3.org/2000/svg">
<rect y="50" width="50" height="40" rx="4" fill="#8D8D8D"/>
<rect width="50" height="88" rx="4" fill="url(#paint0_linear_2_2788)"/>
<g filter="url(#filter0_ii_2_2788)">
<path fill-rule="evenodd" clip-rule="evenodd" d="M6 68C6 61.3726 11.3726 56 18 56H32C38.6274 56 44 61.3726 44 68C44 74.6274 38.6274 80 32 80H18C11.3726 80 6 74.6274 6 68Z" fill="#F5A604"/>
</g>
<path d="M29.8161 66V64.71H32.2261V72H30.7861V66H29.8161ZM33.6091 68.26C33.6091 67.1067 33.8158 66.2033 34.2291 65.55C34.6491 64.8967 35.3424 64.57 36.3091 64.57C37.2758 64.57 37.9658 64.8967 38.3791 65.55C38.7991 66.2033 39.0091 67.1067 39.0091 68.26C39.0091 69.42 38.7991 70.33 38.3791 70.99C37.9658 71.65 37.2758 71.98 36.3091 71.98C35.3424 71.98 34.6491 71.65 34.2291 70.99C33.8158 70.33 33.6091 69.42 33.6091 68.26ZM37.6291 68.26C37.6291 67.7667 37.5958 67.3533 37.5291 67.02C37.4691 66.68 37.3424 66.4033 37.1491 66.19C36.9624 65.9767 36.6824 65.87 36.3091 65.87C35.9358 65.87 35.6524 65.9767 35.4591 66.19C35.2724 66.4033 35.1458 66.68 35.0791 67.02C35.0191 67.3533 34.9891 67.7667 34.9891 68.26C34.9891 68.7667 35.0191 69.1933 35.0791 69.54C35.1391 69.88 35.2658 70.1567 35.4591 70.37C35.6524 70.5767 35.9358 70.68 36.3091 70.68C36.6824 70.68 36.9658 70.5767 37.1591 70.37C37.3524 70.1567 37.4791 69.88 37.5391 69.54C37.5991 69.1933 37.6291 68.7667 37.6291 68.26Z" fill="white"/>
<circle cx="18" cy="68" r="8" fill="white"/>
<path d="M22.7979 68.0006C22.7267 69.6558 21.9439 71.0378 20.7727 71.8875C20.0709 72.3946 19.2484 72.7021 18.3903 72.7783C18.2392 72.7927 18.0859 72.7997 17.9312 72.7997C17.8476 72.7997 17.7645 72.7974 17.6823 72.7932C16.6305 72.7379 15.6273 72.3267 14.8325 71.6251C14.8313 71.6241 14.8303 71.623 14.8293 71.6218H14.827C14.7953 71.5943 14.7641 71.5659 14.7352 71.537L14.6939 71.4979C14.6815 71.4862 14.6695 71.475 14.6576 71.4629C14.5838 71.3911 14.5122 71.3167 14.4427 71.2396L14.4023 71.193C14.3615 71.1464 14.322 71.0998 14.2834 71.0532C14.277 71.0453 14.2706 71.0369 14.2637 71.029L14.2072 70.9567L14.17 70.9101C14.1466 70.8789 14.1241 70.8472 14.1007 70.8169L14.0975 70.8122L14.0796 70.787C14.0502 70.7451 14.0213 70.7027 13.9933 70.6598C13.9708 70.6253 13.9473 70.5903 13.9271 70.5554L13.9244 70.5517C13.9028 70.5167 13.8817 70.4813 13.861 70.4459C13.8509 70.4286 13.8408 70.4114 13.8312 70.3941L13.799 70.3363C13.7591 70.2641 13.7214 70.1904 13.6852 70.1158C13.6774 70.1009 13.6705 70.086 13.6631 70.0692L13.6342 70.0049C13.6264 69.9881 13.6186 69.9714 13.6113 69.9541C13.5934 69.9131 13.5754 69.8716 13.5585 69.8297C13.5507 69.8105 13.5428 69.791 13.5355 69.7714C13.513 69.715 13.4923 69.6577 13.4717 69.6003L13.4579 69.5593C13.4294 69.4745 13.4024 69.3883 13.3785 69.3006C13.373 69.282 13.3679 69.2633 13.3633 69.2442L13.3509 69.1976L13.3372 69.1421C13.3312 69.1174 13.3257 69.0927 13.3202 69.068C13.3147 69.0433 13.3078 69.0121 13.3018 68.9841L13.2894 68.9212L13.2784 68.8597C13.2591 68.754 13.2438 68.6468 13.2325 68.5381C13.2325 68.5278 13.2297 68.5171 13.2288 68.5064C13.2215 68.4337 13.2155 68.36 13.2109 68.2859C13.2109 68.2687 13.2109 68.2523 13.2109 68.2351C13.2054 68.1871 13.2022 68.1335 13.2022 68.0813C13.159 65.4035 15.3041 63.1932 17.9417 63.1997H18.0014H18.0799L18.1548 63.2035H18.1644C18.8656 63.237 19.5505 63.4299 20.1685 63.7679C20.2361 63.8046 20.3025 63.8431 20.3677 63.8835C20.6023 64.0271 20.8262 64.1881 21.0376 64.365C21.2538 64.5461 21.4561 64.7437 21.6427 64.956C21.7951 65.1305 21.9356 65.3154 22.0633 65.5093C22.5472 66.2355 22.8378 67.0885 22.7979 68.0006Z" fill="#DDAB0A"/>
<path d="M20.774 71.8866C20.0722 72.3941 19.2495 72.7019 18.3912 72.7783C18.2401 72.7927 18.0868 72.7997 17.932 72.7997C17.8485 72.7997 17.7654 72.7974 17.6832 72.7932C16.6314 72.7379 15.6281 72.3267 14.8334 71.6251C14.8322 71.6242 14.8311 71.6231 14.8302 71.6219H14.8279C14.7962 71.5944 14.765 71.5659 14.7361 71.537L14.6948 71.4979C14.6824 71.4862 14.6704 71.475 14.6585 71.4629C14.5847 71.3911 14.5131 71.3167 14.4436 71.2397L14.4032 71.193C14.3623 71.1464 14.3229 71.0998 14.2843 71.0532C14.2779 71.0453 14.2714 71.0369 14.2646 71.029L14.2081 70.9567L14.1709 70.9101C14.1475 70.8789 14.125 70.8472 14.1016 70.8169C15.5832 71.1166 18.8044 71.7463 20.774 71.8866Z" fill="#C69712"/>
<path d="M18.7469 72.0702C18.2662 72.2313 17.7632 72.3128 17.257 72.3117C17.179 72.3117 17.1009 72.3089 17.0238 72.3052C16.2513 72.2657 15.5003 72.0334 14.8374 71.6288C14.8332 71.6263 14.8292 71.6233 14.8255 71.62C14.3408 71.1923 13.9469 70.6689 13.6676 70.0818C13.6414 70.025 13.6148 69.9695 13.5923 69.9117C13.3796 69.4153 13.2516 68.8859 13.2135 68.346C13.2075 68.2584 13.2034 68.1703 13.202 68.0813C13.1862 66.9711 13.5489 65.8894 14.2286 65.0196C14.9084 64.1497 15.8634 63.5452 16.932 63.3083C16.9907 63.2953 17.05 63.2832 17.1096 63.2724C17.3841 63.2233 17.6624 63.199 17.9411 63.1997H18.0008C18.7558 63.2107 19.4925 63.4368 20.127 63.8523C20.4286 64.049 20.7024 64.2864 20.941 64.558C21.144 64.7871 21.3202 65.0394 21.4658 65.3098C21.552 65.4711 21.6271 65.6382 21.6908 65.8099C21.7214 65.8963 21.7511 65.9835 21.7799 66.0714C21.916 66.5114 21.9888 66.969 21.9961 67.4301C22.031 69.5798 20.6555 71.4279 18.7469 72.0702Z" fill="#F8C705"/>
<path d="M21.0435 66.3004C20.8262 65.6644 20.4198 65.1126 19.8803 64.7212C19.3409 64.3298 18.6951 64.118 18.0321 64.1152H18.0114C17.389 64.1152 16.7757 64.2662 16.2224 64.5555C15.6691 64.8448 15.1919 65.2641 14.8306 65.7785C14.4692 66.2929 14.2342 66.8876 14.145 67.5129C14.0557 68.1382 14.115 68.7761 14.3177 69.3734C14.4687 69.819 14.7141 70.2255 15.0367 70.5643C15.3342 70.8771 15.6903 71.1264 16.0841 71.2974C16.4778 71.4683 16.9013 71.5576 17.3296 71.5599H17.3503C17.9727 71.5598 18.5861 71.4088 19.1394 71.1193C19.6927 70.8299 20.1699 70.4104 20.5312 69.8958C20.8925 69.3813 21.1275 68.7865 21.2166 68.1611C21.3057 67.5357 21.2463 66.8978 21.0435 66.3004ZM14.5804 69.173C14.3965 68.6308 14.3428 68.052 14.4238 67.4845C14.5047 66.9171 14.718 66.3775 15.0459 65.9106C15.3737 65.4437 15.8066 65.063 16.3086 64.8003C16.8106 64.5376 17.3672 64.4003 17.932 64.4H17.9508C18.3316 64.4017 18.7082 64.481 19.0582 64.6331C19.4083 64.7853 19.7247 65.0071 19.9888 65.2856C20.3123 65.6004 20.5573 65.9888 20.7037 66.4187C20.8876 66.9609 20.9412 67.5398 20.8603 68.1073C20.7793 68.6747 20.566 69.2144 20.2382 69.6813C19.9103 70.1482 19.4774 70.5289 18.9754 70.7917C18.4734 71.0545 17.9169 71.1918 17.3521 71.1922H17.3333C16.9525 71.1903 16.576 71.1109 16.2259 70.9588C15.8759 70.8067 15.5594 70.5849 15.2952 70.3066C14.9715 69.9918 14.7265 69.6032 14.5804 69.173Z" fill="#DDAB0A"/>
<path d="M19.9867 65.2862C19.4598 64.7728 18.7588 64.4845 18.0285 64.4808H18.0101C17.4452 64.4808 16.8885 64.6178 16.3864 64.8804C15.8842 65.1431 15.4511 65.5237 15.1232 65.9907C14.7953 66.4577 14.5821 66.9974 14.5012 67.565C14.4204 68.1326 14.4743 68.7116 14.6585 69.2537C14.7921 69.6472 15.0087 70.0064 15.293 70.3062C14.9697 69.9913 14.7249 69.6027 14.5791 69.1726C14.3952 68.6305 14.3415 68.0516 14.4225 67.4841C14.5035 66.9167 14.7168 66.3771 15.0446 65.9102C15.3724 65.4433 15.8054 65.0627 16.3074 64.7999C16.8094 64.5372 17.3659 64.4 17.9307 64.3997H17.9495C18.3302 64.4016 18.7067 64.4811 19.0566 64.6334C19.4065 64.7857 19.7228 65.0076 19.9867 65.2862Z" fill="#C69712"/>
<g style="mix-blend-mode:screen" opacity="0.5">
<path d="M16.9324 63.3083L16.6914 63.7889L13.7939 69.5151L13.5928 69.9117C13.3801 69.4154 13.252 68.8859 13.214 68.3461L15.4545 63.9143C15.9095 63.6283 16.4094 63.4233 16.9324 63.3083Z" fill="#F8C705"/>
</g>
<path d="M17.6619 68.7981C17.7861 68.8337 17.891 68.8336 17.9766 68.7977C18.0628 68.7605 18.1289 68.6895 18.1749 68.5845C18.1931 68.5429 18.2016 68.5036 18.2004 68.4665C18.1998 68.4282 18.1921 68.391 18.1773 68.3551C18.1624 68.3191 18.1414 68.284 18.1142 68.2498C18.0876 68.2143 18.0568 68.1799 18.0219 68.1466L17.6619 68.7981ZM18.3409 66.8665C18.2752 66.847 18.2162 66.8371 18.1639 66.8369C18.1121 66.8355 18.0664 66.8418 18.0267 66.8561C17.9882 66.8709 17.955 66.8917 17.9272 66.9186C17.9011 66.9449 17.88 66.9763 17.864 67.013C17.8457 67.0545 17.8361 67.0948 17.835 67.1338C17.8357 67.1721 17.8431 67.2099 17.8574 67.247C17.8717 67.2842 17.8919 67.3211 17.918 67.3578C17.9447 67.3933 17.9758 67.4286 18.0113 67.4637L18.3409 66.8665ZM18.2687 67.6985C18.3195 67.7419 18.3695 67.7872 18.4187 67.8343C18.4685 67.8802 18.5145 67.9281 18.5567 67.9779C18.5989 68.0277 18.6356 68.0801 18.6668 68.1352C18.6979 68.1903 18.7203 68.2487 18.734 68.3105C18.7494 68.3716 18.7538 68.4364 18.747 68.505C18.7402 68.5737 18.7199 68.6464 18.6861 68.7234C18.6363 68.8369 18.5698 68.9356 18.4865 69.0194C18.4049 69.1025 18.3099 69.1663 18.2015 69.211C18.0937 69.2544 17.9756 69.2764 17.8472 69.2769C17.7189 69.2774 17.5833 69.2513 17.4405 69.1984L17.3094 69.4376C17.2931 69.4683 17.2671 69.4909 17.2316 69.5056C17.196 69.5203 17.1588 69.5188 17.1199 69.5012L16.9359 69.418L17.14 69.0472C17.075 69.0061 17.0128 68.9605 16.9533 68.9102C16.8956 68.8592 16.8419 68.8057 16.7923 68.7496C16.7431 68.6923 16.699 68.6335 16.6599 68.5734C16.6213 68.5121 16.5895 68.4502 16.5645 68.3876L16.8198 68.2287C16.8417 68.2152 16.8669 68.2076 16.8953 68.2058C16.9243 68.2028 16.951 68.2068 16.9753 68.2178C17.0032 68.2304 17.0286 68.2521 17.0515 68.283C17.0744 68.3138 17.0987 68.3497 17.1244 68.3906C17.1519 68.4308 17.1834 68.4735 17.2188 68.5188C17.2555 68.5647 17.3019 68.6083 17.358 68.6497L17.7606 67.9209C17.7092 67.8787 17.6587 67.8346 17.6089 67.7887C17.5609 67.7422 17.5161 67.6934 17.4744 67.6423C17.4327 67.5913 17.3965 67.5377 17.3659 67.4814C17.337 67.4244 17.3165 67.3632 17.3045 67.2978C17.2924 67.2323 17.2909 67.1629 17.2998 67.0894C17.3093 67.0146 17.3328 66.9345 17.3702 66.8491C17.412 66.7538 17.4713 66.6702 17.548 66.598C17.6253 66.5247 17.7153 66.4688 17.8181 66.4304C17.922 66.3925 18.0368 66.3749 18.1623 66.3775C18.2884 66.3789 18.4216 66.4069 18.5621 66.4617L18.6778 66.2528C18.6941 66.2221 18.7198 66.2001 18.7548 66.1866C18.7916 66.1725 18.8288 66.174 18.8665 66.191L19.0523 66.275L18.8621 66.6192C18.9831 66.7017 19.0789 66.7904 19.1495 66.8851C19.22 66.9799 19.2742 67.0754 19.3121 67.1715L19.1079 67.2987C19.0785 67.3191 19.0512 67.3316 19.0259 67.3363C19.0011 67.3397 18.9753 67.3353 18.9486 67.3233C18.9304 67.315 18.9106 67.3003 18.8894 67.279C18.8699 67.257 18.8482 67.2318 18.8243 67.2034C18.8008 67.1738 18.7738 67.1426 18.7431 67.1097C18.7136 67.0773 18.6806 67.0463 18.6441 67.0167L18.2687 67.6985Z" fill="white"/>
<g style="mix-blend-mode:screen" opacity="0.5">
<path d="M21.7816 66.0714L20.9946 67.6278L19.536 70.513L18.7486 72.0703C18.4889 72.1575 18.2222 72.2214 17.9515 72.2614L18.558 71.0616L20.8619 66.5045L21.4675 65.3098C21.5537 65.4711 21.6288 65.6382 21.6925 65.8099C21.7262 65.8963 21.7558 65.9835 21.7816 66.0714Z" fill="#F8C705"/>
</g>
<path d="M25.3945 34.276H17.6105L16.3225 38H12.2065L19.2345 18.428H23.7985L30.8265 38H26.6825L25.3945 34.276ZM24.3305 31.14L21.5025 22.964L18.6745 31.14H24.3305Z" fill="white"/>
<path d="M35.3991 10.56C36.7858 10.56 37.8991 10.94 38.7391 11.7C39.5925 12.4467 40.0191 13.48 40.0191 14.8C40.0191 16.1067 39.5991 17.1067 38.7591 17.8C37.9191 18.48 36.8058 18.82 35.4191 18.82L35.3391 20.36H32.8791L32.7791 16.96H33.6791C34.8391 16.96 35.7325 16.8067 36.3591 16.5C36.9858 16.1933 37.2991 15.6333 37.2991 14.82C37.2991 14.2333 37.1258 13.7667 36.7791 13.42C36.4458 13.0733 35.9858 12.9 35.3991 12.9C34.7858 12.9 34.3058 13.0667 33.9591 13.4C33.6258 13.7333 33.4591 14.1933 33.4591 14.78H30.8191C30.8058 13.9667 30.9791 13.24 31.3391 12.6C31.6991 11.96 32.2258 11.46 32.9191 11.1C33.6258 10.74 34.4525 10.56 35.3991 10.56ZM34.0991 25.14C33.5925 25.14 33.1725 24.9867 32.8391 24.68C32.5191 24.36 32.3591 23.9667 32.3591 23.5C32.3591 23.0333 32.5191 22.6467 32.8391 22.34C33.1725 22.02 33.5925 21.86 34.0991 21.86C34.5925 21.86 34.9991 22.02 35.3191 22.34C35.6391 22.6467 35.7991 23.0333 35.7991 23.5C35.7991 23.9667 35.6391 24.36 35.3191 24.68C34.9991 24.9867 34.5925 25.14 34.0991 25.14Z" fill="white"/>
<defs>
<filter id="filter0_ii_2_2788" x="6" y="55" width="38" height="26" filterUnits="userSpaceOnUse" color-interpolation-filters="sRGB">
<feFlood flood-opacity="0" result="BackgroundImageFix"/>
<feBlend mode="normal" in="SourceGraphic" in2="BackgroundImageFix" result="shape"/>
<feColorMatrix in="SourceAlpha" type="matrix" values="0 0 0 0 0 0 0 0 0 0 0 0 0 0 0 0 0 0 127 0" result="hardAlpha"/>
<feOffset dy="2"/>
<feGaussianBlur stdDeviation="0.5"/>
<feComposite in2="hardAlpha" operator="arithmetic" k2="-1" k3="1"/>
<feColorMatrix type="matrix" values="0 0 0 0 0 0 0 0 0 0 0 0 0 0 0 0 0 0 0.25 0"/>
<feBlend mode="normal" in2="shape" result="effect1_innerShadow_2_2788"/>
<feColorMatrix in="SourceAlpha" type="matrix" values="0 0 0 0 0 0 0 0 0 0 0 0 0 0 0 0 0 0 127 0" result="hardAlpha"/>
<feOffset dy="-1"/>
<feGaussianBlur stdDeviation="2"/>
<feComposite in2="hardAlpha" operator="arithmetic" k2="-1" k3="1"/>
<feColorMatrix type="matrix" values="0 0 0 0 0 0 0 0 0 0 0 0 0 0 0 0 0 0 0.25 0"/>
<feBlend mode="normal" in2="effect1_innerShadow_2_2788" result="effect2_innerShadow_2_2788"/>
</filter>
<linearGradient id="paint0_linear_2_2788" x1="25" y1="-21.5" x2="25" y2="62" gradientUnits="userSpaceOnUse">
<stop stop-color="#25486F"/>
<stop offset="1" stop-color="#091420"/>
</linearGradient>
</defs>
</svg>
